<?xml version="1.0" encoding="UTF-8"?>
<!DOCTYPE svg PUBLIC "-//W3C//DTD SVG 1.1//EN" "http://www.w3.org/Graphics/SVG/1.1/DTD/svg11.dtd">
<svg version="1.1" xmlns="http://www.w3.org/2000/svg" xmlns:xlink="http://www.w3.org/1999/xlink" x="0" y="0" width="1024" height="768" viewBox="0, 0, 1024, 768">
<title>Juxtaglomerular Apparatus</title>
	<desc>A section of kidney highlighting the juxtaglomerular apparatus</desc>
	<image xlink:href="images/juxtaglomerular_apparatus.jpg" width="100%" height="100%" />
  <g id="Image">
    <text transform="matrix(1, 0, 0, 1, 105.561, 89.5)">
      <tspan x="-79.439" y="-20.5" font-family="Verdana-Bold" font-size="24" fill="#010101">Distal </tspan>
      <tspan x="-79.439" y="8.5" font-family="Verdana-Bold" font-size="24" fill="#010101">convoluted </tspan>
      <tspan x="-79.439" y="37.5" font-family="Verdana-Bold" font-size="24" fill="#010101">tubule</tspan>
    </text>
    <path d="M135.379,110.5 L222.5,179.5" fill-opacity="0" stroke="#2F8A0D" stroke-width="4"/>
    <text transform="matrix(1, 0, 0, 1, 667.561, 272.5)">
      <tspan x="-62.439" y="-8.5" font-family="Verdana-Bold" font-size="24" fill="#010101">Afferent </tspan>
      <tspan x="-62.439" y="20.5" font-family="Verdana-Bold" font-size="24" fill="#010101">arteriole</tspan>
    </text>
    <path d="M492.379,277.5 L594.5,273.5" fill-opacity="0" stroke="#2F8A0D" stroke-width="4"/>
    <text transform="matrix(1, 0, 0, 1, 542.939, 89.5)">
      <tspan x="-140.439" y="8" font-family="Verdana-Bold" font-size="24" fill="#010101">Juxtaglomerular cell</tspan>
    </text>
    <path d="M536.5,106 L482.621,185.5" fill-opacity="0" stroke="#2F8A0D" stroke-width="4"/>
    <text transform="matrix(1, 0, 0, 1, 113.561, 215)">
      <tspan x="-94.439" y="7" font-family="Verdana-Bold" font-size="24" fill="#010101">Macula densa</tspan>
    </text>
    <path d="M208.5,217.5 L327.5,218.5" fill-opacity="0" stroke="#2F8A0D" stroke-width="4"/>
    <text transform="matrix(1, 0, 0, 1, 186.561, 268.5)">
      <tspan x="-69.439" y="7" font-family="Verdana-Bold" font-size="24" fill="#010101">Lacis cells</tspan>
    </text>
    <path d="M258.5,268.5 L380.5,252" fill-opacity="0" stroke="#2F8A0D" stroke-width="4"/>
  </g>
</svg>
