<?xml version="1.0" encoding="UTF-8"?>
<!DOCTYPE svg PUBLIC "-//W3C//DTD SVG 1.1//EN" "http://www.w3.org/Graphics/SVG/1.1/DTD/svg11.dtd">
<svg version="1.1" xmlns="http://www.w3.org/2000/svg" xmlns:xlink="http://www.w3.org/1999/xlink" x="0" y="0" width="1024" height="768" viewBox="0, 0, 1024, 768">
<title>Kidney Section</title>
	<desc>A low magnification image of the kidney showing the cortex and medulla</desc>
	<image xlink:href="images/kidney.jpg" width="100%" height="100%" />
  <g id="Image">
    <path d="M95.621,164.5 L142.5,164.5" fill-opacity="0" stroke="#2F8A0D" stroke-width="4"/>
    <text transform="matrix(1, 0, 0, 1, 741.061, 31.5)">
      <tspan x="-48.939" y="7.5" font-family="Verdana-Bold" font-size="24" fill="#000000">Cortex</tspan>
    </text>
    <text transform="matrix(1, 0, 0, 1, 150.561, 31.5)">
      <tspan x="-55.439" y="5.5" font-family="Verdana-Bold" font-size="24" fill="#010101">Medulla</tspan>
    </text>
    <text transform="matrix(1, 0, 0, 1, 219.561, 164)">
      <tspan x="-67.439" y="-6" font-family="Verdana-Bold" font-size="24" fill="#010101">Collecting </tspan>
      <tspan x="-67.439" y="23" font-family="Verdana-Bold" font-size="24" fill="#010101">Ducts</tspan>
    </text>
    <path d="M513.621,186.5 L560.5,186.5" fill-opacity="0" stroke="#2F8A0D" stroke-width="4"/>
    <text transform="matrix(1, 0, 0, 1, 609.439, 186)">
      <tspan x="-47.439" y="-6" font-family="Verdana-Bold" font-size="24" fill="#010101">Blood </tspan>
      <tspan x="-47.439" y="23" font-family="Verdana-Bold" font-size="24" fill="#010101">Vessel</tspan>
    </text>
    <path d="M440.621,252.5 L487.5,252.5" fill-opacity="0" stroke="#2F8A0D" stroke-width="4"/>
    <text transform="matrix(1, 0, 0, 1, 602.56, 256.5)">
      <tspan x="-108.439" y="5.5" font-family="Verdana-Bold" font-size="24" fill="#010101">Renal corpuscle</tspan>
    </text>
    <path d="M711.5,338.5 L758.379,338.5" fill-opacity="0" stroke="#2F8A0D" stroke-width="4"/>
    <text transform="matrix(1, 0, 0, 1, 873.439, 342.5)">
      <tspan x="-108.439" y="5.5" font-family="Verdana-Bold" font-size="24" fill="#010101">Renal corpuscle</tspan>
    </text>
  </g>
</svg>
