<?xml version="1.0" encoding="UTF-8"?>
<!DOCTYPE svg PUBLIC "-//W3C//DTD SVG 1.1//EN" "http://www.w3.org/Graphics/SVG/1.1/DTD/svg11.dtd">
<svg version="1.1" xmlns="http://www.w3.org/2000/svg" xmlns:xlink="http://www.w3.org/1999/xlink" x="0" y="0" width="1024" height="643" viewBox="0, 0, 1024, 643">
<title>Nephron</title>
	<desc>A cartoon of a nephron showing the  different functional segments</desc>
	<image xlink:href="images/nephron.jpg" width="100%" height="100%" />
  <g id="Image">
    <text transform="matrix(1, 0, 0, 1, 357.564, 200)">
      <tspan x="-75.564" y="8.5" font-family="HelveticaNeue" font-size="24" fill="#000000">Loop of Henle</tspan>
    </text>
    <text transform="matrix(1, 0, 0, 1, 879.436, 207.5)">
      <tspan x="-48.564" y="-6" font-family="HelveticaNeue" font-size="24" fill="#000000">Afferent</tspan>
      <tspan x="-48.564" y="23" font-family="HelveticaNeue" font-size="24" fill="#000000">Arteriole</tspan>
    </text>
    <path d="M719.5,208.5 L826.372,207.5" fill-opacity="0" stroke="#2F8A0D" stroke-width="4"/>
    <text transform="matrix(1, 0, 0, 1, 431.936, 309.5)">
      <tspan x="-84.064" y="6.5" font-family="HelveticaNeue" font-size="24" fill="#000000">Collecting Duct</tspan>
    </text>
    <text transform="matrix(1, 0, 0, 1, 857.436, 68.5)">
      <tspan x="-62.564" y="-20.5" font-family="HelveticaNeue" font-size="24" fill="#000000">Proximal </tspan>
      <tspan x="-62.564" y="8.5" font-family="HelveticaNeue" font-size="24" fill="#000000">Convoluted </tspan>
      <tspan x="-62.564" y="37.5" font-family="HelveticaNeue" font-size="24" fill="#000000">Tubule</tspan>
    </text>
    <path d="M737.5,122.5 L786.5,68.5" fill-opacity="0" stroke="#2F8A0D" stroke-width="4"/>
    <text transform="matrix(1, 0, 0, 1, 517.436, 78.5)">
      <tspan x="-62.564" y="-20.5" font-family="HelveticaNeue" font-size="24" fill="#000000">Distal </tspan>
      <tspan x="-62.564" y="8.5" font-family="HelveticaNeue" font-size="24" fill="#000000">Convoluted </tspan>
      <tspan x="-62.564" y="37.5" font-family="HelveticaNeue" font-size="24" fill="#000000">Tubule</tspan>
    </text>
    <path d="M540.5,207.5 L504.372,125" fill-opacity="0" stroke="#2F8A0D" stroke-width="4"/>
    <text transform="matrix(1, 0, 0, 1, 705.436, 72.5)">
      <tspan x="-58.564" y="6.5" font-family="HelveticaNeue" font-size="24" fill="#000000">Corpuscle</tspan>
    </text>
    <path d="M688.5,174.5 L702.5,89.5" fill-opacity="0" stroke="#2F8A0D" stroke-width="4"/>
    <text transform="matrix(1, 0, 0, 1, 816.436, 614.5)">
      <tspan x="-58.564" y="6.5" font-family="HelveticaNeue-Bold" font-size="24" fill="#000000">Cortex</tspan>
    </text>
    <text transform="matrix(1, 0, 0, 1, 416.436, 614.5)">
      <tspan x="-58.564" y="6.5" font-family="HelveticaNeue-Bold" font-size="24" fill="#000000">Medulla</tspan>
    </text>
  </g>
</svg>
