<?xml version="1.0" encoding="UTF-8"?>
<!DOCTYPE svg PUBLIC "-//W3C//DTD SVG 1.1//EN" "http://www.w3.org/Graphics/SVG/1.1/DTD/svg11.dtd">
<svg version="1.1" xmlns="http://www.w3.org/2000/svg" xmlns:xlink="http://www.w3.org/1999/xlink" x="0" y="0" width="1024" height="768" viewBox="0, 0, 1024, 768">
<title>Podocyte</title>
	<desc>An electron micrograph of a podocyte in a glomerulus</desc>
	<image xlink:href="images/podocyte_em.jpg" width="100%" height="100%" />
  <g id="Image">
    <text transform="matrix(1, 0, 0, 1, 668.561, 217)">
      <tspan x="-67.439" y="8" font-family="Verdana-Bold" font-size="24" fill="#FFFFFF">Podocyte</tspan>
    </text>
    <text transform="matrix(1, 0, 0, 1, 495.561, 640.5)">
      <tspan x="-59.439" y="-5.5" font-family="Verdana-Bold" font-size="24" fill="#010101">Capillary </tspan>
      <tspan x="-59.439" y="23.5" font-family="Verdana-Bold" font-size="24" fill="#010101">Lumen</tspan>
    </text>
    <path d="M748.621,539.5 L795.5,539.5" fill-opacity="0" stroke="#2F8A0D" stroke-width="4"/>
    <text transform="matrix(1, 0, 0, 1, 894.061, 540)">
      <tspan x="-95.939" y="7" font-family="Verdana-Bold" font-size="24" fill="#FFF7F7">Foot process</tspan>
    </text>
    <path d="M720.621,603.5 L802.621,606.5" fill-opacity="0" stroke="#2F8A0D" stroke-width="4"/>
    <text transform="matrix(1, 0, 0, 1, 875.061, 603)">
      <tspan x="-72.939" y="-5.5" font-family="Verdana-Bold" font-size="24" fill="#FFF7F7">Basement </tspan>
      <tspan x="-72.939" y="23.5" font-family="Verdana-Bold" font-size="24" fill="#FFF7F7">membrane</tspan>
    </text>
    <path d="M736.5,671.5 L803.5,670.5" fill-opacity="0" stroke="#2F8A0D" stroke-width="4"/>
    <text transform="matrix(1, 0, 0, 1, 885.061, 670.5)">
      <tspan x="-77.939" y="-5.5" font-family="Verdana-Bold" font-size="24" fill="#FFF7F7">Endothelial </tspan>
      <tspan x="-77.939" y="23.5" font-family="Verdana-Bold" font-size="24" fill="#FFF7F7">cell</tspan>
    </text>
    <text transform="matrix(1, 0, 0, 1, 949.061, 120)">
      <tspan x="-74.939" y="-7" font-family="Verdana-Bold" font-size="24" fill="#010101">Bowman's </tspan>
      <tspan x="-74.939" y="22" font-family="Verdana-Bold" font-size="24" fill="#010101">Space</tspan>
    </text>
  </g>
</svg>
