<?xml version="1.0" encoding="UTF-8"?>
<!DOCTYPE svg PUBLIC "-//W3C//DTD SVG 1.1//EN" "http://www.w3.org/Graphics/SVG/1.1/DTD/svg11.dtd">
<svg version="1.1" xmlns="http://www.w3.org/2000/svg" xmlns:xlink="http://www.w3.org/1999/xlink" x="0" y="0" width="1024" height="768" viewBox="0, 0, 1024, 768">
<title>Renal Corpuscle</title>
	<desc>A section of kidney showing the renal corpuscle</desc>
	<image xlink:href="images/renal_corpuscle_2.jpg" width="100%" height="100%" />
  <g id="Image">
    <text transform="matrix(1, 0, 0, 1, 456.561, 32.5)">
      <tspan x="-94.439" y="8.5" font-family="Verdana-Bold" font-size="24" fill="#010101">Parietal Layer</tspan>
    </text>
    <path d="M305.5,43.5 L360.621,35.5" fill-opacity="0" stroke="#2F8A0D" stroke-width="4"/>
    <path d="M385.621,307.5 L432.5,307.5" fill-opacity="0" stroke="#2F8A0D" stroke-width="4"/>
    <text transform="matrix(1, 0, 0, 1, 531.061, 308)">
      <tspan x="-95.939" y="7" font-family="Verdana-Bold" font-size="24" fill="#010101">Mesangial cell</tspan>
    </text>
    <path d="M746.621,554.5 L793.5,554.5" fill-opacity="0" stroke="#2F8A0D" stroke-width="4"/>
    <text transform="matrix(1, 0, 0, 1, 863.561, 554)">
      <tspan x="-67.439" y="8" font-family="Verdana-Bold" font-size="24" fill="#010101">Capillary</tspan>
    </text>
    <path d="M763.621,609.5 L810.5,609.5" fill-opacity="0" stroke="#2F8A0D" stroke-width="4"/>
    <text transform="matrix(1, 0, 0, 1, 880.561, 609)">
      <tspan x="-67.439" y="8" font-family="Verdana-Bold" font-size="24" fill="#010101">Podocyte</tspan>
    </text>
    <text transform="matrix(1, 0, 0, 1, 646.682, 686.5)">
      <tspan x="-116.439" y="9.5" font-family="Verdana-Bold" font-size="24" fill="#010101">Bowman's Space</tspan>
    </text>
    <path d="M672.621,228.5 L719.5,228.5" fill-opacity="0" stroke="#2F8A0D" stroke-width="4"/>
    <text transform="matrix(1, 0, 0, 1, 818.061, 229)">
      <tspan x="-95.939" y="7" font-family="Verdana-Bold" font-size="24" fill="#010101">Vascular Pole</tspan>
    </text>
    <path d="M716.742,43.5 L786.5,55.5" fill-opacity="0" stroke="#2F8A0D" stroke-width="4"/>
    <text transform="matrix(1, 0, 0, 1, 873.939, 54)">
      <tspan x="-80.939" y="-20" font-family="Verdana-Bold" font-size="24" fill="#010101">Distal </tspan>
      <tspan x="-80.939" y="9" font-family="Verdana-Bold" font-size="24" fill="#010101">Convoluted </tspan>
      <tspan x="-80.939" y="38" font-family="Verdana-Bold" font-size="24" fill="#010101">Tubule</tspan>
    </text>
  </g>
</svg>
