<?xml version="1.0" encoding="UTF-8"?>
<!DOCTYPE svg PUBLIC "-//W3C//DTD SVG 1.1//EN" "http://www.w3.org/Graphics/SVG/1.1/DTD/svg11.dtd">
<svg version="1.1" xmlns="http://www.w3.org/2000/svg" xmlns:xlink="http://www.w3.org/1999/xlink" x="0" y="0" width="1024" height="768" viewBox="0, 0, 1024, 768">
  <defs>
    <linearGradient id="Gradient_1" gradientUnits="userSpaceOnUse" x1="309.833" y1="540.167" x2="220.5" y2="536.167">
      <stop offset="0" stop-color="#AF6DD3"/>
      <stop offset="1" stop-color="#7E12B7" stop-opacity="0.959"/>
    </linearGradient>
    <linearGradient id="Gradient_2" gradientUnits="userSpaceOnUse" x1="388.5" y1="537.5" x2="309.833" y2="544.167">
      <stop offset="0" stop-color="#CBADDB"/>
      <stop offset="1" stop-color="#AF6DD3"/>
    </linearGradient>
    <linearGradient id="Gradient_3" gradientUnits="userSpaceOnUse" x1="304.5" y1="442.833" x2="188.5" y2="392.167">
      <stop offset="0" stop-color="#AF6DD3"/>
      <stop offset="1" stop-color="#7E12B7" stop-opacity="0.959"/>
    </linearGradient>
    <linearGradient id="Gradient_4" gradientUnits="userSpaceOnUse" x1="388.5" y1="470.833" x2="300.5" y2="434.833">
      <stop offset="0" stop-color="#CBADDB"/>
      <stop offset="1" stop-color="#AF6DD3"/>
    </linearGradient>
    <radialGradient id="Gradient_5" gradientUnits="userSpaceOnUse" cx="139.379" cy="385.768" r="65.58">
      <stop offset="0.015" stop-color="#9D49D5"/>
      <stop offset="0.626" stop-color="#9E49D5"/>
      <stop offset="0.819" stop-color="#200CD4"/>
      <stop offset="1" stop-color="#1F0CD4"/>
    </radialGradient>
    <radialGradient id="Gradient_6" gradientUnits="userSpaceOnUse" cx="251.555" cy="231.84" r="54.822">
      <stop offset="0.015" stop-color="#9D49D5"/>
      <stop offset="0.626" stop-color="#9E49D5"/>
      <stop offset="0.819" stop-color="#200CD4"/>
      <stop offset="1" stop-color="#1F0CD4"/>
    </radialGradient>
    <linearGradient id="Gradient_7" gradientUnits="userSpaceOnUse" x1="379.167" y1="366.833" x2="291.167" y2="265.5">
      <stop offset="0" stop-color="#AF6DD3"/>
      <stop offset="1" stop-color="#7E12B7" stop-opacity="0.959"/>
    </linearGradient>
    <linearGradient id="Gradient_8" gradientUnits="userSpaceOnUse" x1="433.833" y1="441.5" x2="367.167" y2="358.833">
      <stop offset="0" stop-color="#CBADDB"/>
      <stop offset="1" stop-color="#AF6DD3"/>
    </linearGradient>
    <linearGradient id="Gradient_9" gradientUnits="userSpaceOnUse" x1="489.834" y1="326.833" x2="455.167" y2="212.167">
      <stop offset="0" stop-color="#AF6DD3"/>
      <stop offset="1" stop-color="#7E12B7" stop-opacity="0.959"/>
    </linearGradient>
    <linearGradient id="Gradient_10" gradientUnits="userSpaceOnUse" x1="497.833" y1="449.5" x2="487.167" y2="322.833">
      <stop offset="0" stop-color="#CBADDB"/>
      <stop offset="1" stop-color="#AF6DD3"/>
    </linearGradient>
    <radialGradient id="Gradient_11" gradientUnits="userSpaceOnUse" cx="438.107" cy="169.442" r="49.792">
      <stop offset="0.015" stop-color="#9D49D5"/>
      <stop offset="0.626" stop-color="#9E49D5"/>
      <stop offset="0.819" stop-color="#200CD4"/>
      <stop offset="1" stop-color="#1F0CD4"/>
    </radialGradient>
    <linearGradient id="Gradient_12" gradientUnits="userSpaceOnUse" x1="591.167" y1="349.5" x2="639.167" y2="221.5">
      <stop offset="0" stop-color="#AF6DD3"/>
      <stop offset="1" stop-color="#7E12B7" stop-opacity="0.959"/>
    </linearGradient>
    <radialGradient id="Gradient_13" gradientUnits="userSpaceOnUse" cx="644.167" cy="181.765" r="43.219">
      <stop offset="0.015" stop-color="#9D49D5"/>
      <stop offset="0.626" stop-color="#9E49D5"/>
      <stop offset="0.819" stop-color="#200CD4"/>
      <stop offset="1" stop-color="#1F0CD4"/>
    </radialGradient>
    <linearGradient id="Gradient_14" gradientUnits="userSpaceOnUse" x1="569.833" y1="430.833" x2="604.5" y2="328.167">
      <stop offset="0" stop-color="#CBADDB"/>
      <stop offset="1" stop-color="#AF6DD3"/>
    </linearGradient>
    <linearGradient id="Gradient_15" gradientUnits="userSpaceOnUse" x1="704.5" y1="374.833" x2="781.833" y2="297.5">
      <stop offset="0" stop-color="#AF6DD3"/>
      <stop offset="1" stop-color="#7E12B7" stop-opacity="0.959"/>
    </linearGradient>
    <linearGradient id="Gradient_16" gradientUnits="userSpaceOnUse" x1="624.5" y1="446.833" x2="700.5" y2="365.5">
      <stop offset="0" stop-color="#CBADDB"/>
      <stop offset="1" stop-color="#AF6DD3"/>
    </linearGradient>
    <radialGradient id="Gradient_17" gradientUnits="userSpaceOnUse" cx="802.375" cy="275.129" r="28.863">
      <stop offset="0.015" stop-color="#9D49D5"/>
      <stop offset="0.626" stop-color="#9E49D5"/>
      <stop offset="0.819" stop-color="#200CD4"/>
      <stop offset="1" stop-color="#1F0CD4"/>
    </radialGradient>
    <linearGradient id="Gradient_18" gradientUnits="userSpaceOnUse" x1="771.167" y1="450.833" x2="857.833" y2="428.167">
      <stop offset="0" stop-color="#AF6DD3"/>
      <stop offset="1" stop-color="#7E12B7" stop-opacity="0.959"/>
    </linearGradient>
    <linearGradient id="Gradient_19" gradientUnits="userSpaceOnUse" x1="656.5" y1="481.5" x2="765.833" y2="458.833">
      <stop offset="0" stop-color="#CBADDB"/>
      <stop offset="1" stop-color="#AF6DD3"/>
    </linearGradient>
    <linearGradient id="Gradient_20" gradientUnits="userSpaceOnUse" x1="731.167" y1="568.167" x2="797.833" y2="565.5">
      <stop offset="0" stop-color="#AF6DD3"/>
      <stop offset="1" stop-color="#7E12B7" stop-opacity="0.959"/>
    </linearGradient>
    <linearGradient id="Gradient_21" gradientUnits="userSpaceOnUse" x1="636.5" y1="546.833" x2="731.167" y2="566.833">
      <stop offset="0" stop-color="#CBADDB"/>
      <stop offset="1" stop-color="#AF6DD3"/>
    </linearGradient>
  </defs>
  <g id="Layer_1">
    <path d="M96.5,180.5 L96.5,180.5" fill-opacity="0" stroke="#000000" stroke-width="1"/>
    <g>
      <path d="M225.833,54.167 C212.5,50.5 246.167,108.5 246.167,108.5 C246.167,108.5 163.167,140.5 126.833,169.5 C90.5,198.5 36.565,260.721 25.5,297.833 C9.5,351.5 7.5,435.833 29.5,468.167 C51.5,500.5 67.167,534.833 106.833,563.167 C146.5,591.5 191.167,606.833 222.833,610.167 C297.5,630.5 336.5,601.5 335.5,612.5 C334.5,623.5 294.833,656.167 294.833,656.167 C294.833,656.167 235.5,718.167 257.5,703.833 C279.5,689.5 317.167,708.167 310.833,718.833 C304.5,729.5 330.167,686.833 362.833,656.833 C399.833,633.833 415.833,572.5 458.833,570.833 C504.5,569.5 561.167,579.167 594.833,603.5 C628.5,627.833 672.167,632.167 722.833,638.833 C773.5,645.5 838.167,626.167 862.833,614.833 C887.5,603.5 956.5,557.5 962.5,536.5 C984.5,506.5 1018.5,454.5 1014.5,414.5 C1012.5,366.5 996.5,298.5 964.5,256.5 C932.5,214.5 876.5,166.5 842.5,149.5 C808.5,132.5 729.5,106.5 722.5,99.5 C708.5,97.5 687.5,88.5 687.5,88.5 C687.5,88.5 695.5,24.5 693.5,40.5 C684.5,37.5 641.5,43.5 637.5,32.5 C633.5,21.5 637.5,80.5 624.5,78.5 C611.5,76.5 462.5,74.5 410.5,79.5 C358.5,84.5 310.5,98.5 310.5,98.5 C310.5,98.5 277.5,21.5 280.5,35.5 C283.5,49.5 240.167,55.833 225.833,54.167 z" fill="#70716C" fill-opacity="0.552"/>
      <path d="M225.833,54.167 C212.5,50.5 246.167,108.5 246.167,108.5 C246.167,108.5 163.167,140.5 126.833,169.5 C90.5,198.5 36.565,260.721 25.5,297.833 C9.5,351.5 7.5,435.833 29.5,468.167 C51.5,500.5 67.167,534.833 106.833,563.167 C146.5,591.5 191.167,606.833 222.833,610.167 C297.5,630.5 336.5,601.5 335.5,612.5 C334.5,623.5 294.833,656.167 294.833,656.167 C294.833,656.167 235.5,718.167 257.5,703.833 C279.5,689.5 317.167,708.167 310.833,718.833 C304.5,729.5 330.167,686.833 362.833,656.833 C399.833,633.833 415.833,572.5 458.833,570.833 C504.5,569.5 561.167,579.167 594.833,603.5 C628.5,627.833 672.167,632.167 722.833,638.833 C773.5,645.5 838.167,626.167 862.833,614.833 C887.5,603.5 956.5,557.5 962.5,536.5 C984.5,506.5 1018.5,454.5 1014.5,414.5 C1012.5,366.5 996.5,298.5 964.5,256.5 C932.5,214.5 876.5,166.5 842.5,149.5 C808.5,132.5 729.5,106.5 722.5,99.5 C708.5,97.5 687.5,88.5 687.5,88.5 C687.5,88.5 695.5,24.5 693.5,40.5 C684.5,37.5 641.5,43.5 637.5,32.5 C633.5,21.5 637.5,80.5 624.5,78.5 C611.5,76.5 462.5,74.5 410.5,79.5 C358.5,84.5 310.5,98.5 310.5,98.5 C310.5,98.5 277.5,21.5 280.5,35.5 C283.5,49.5 240.167,55.833 225.833,54.167 z" fill-opacity="0" stroke="#000000" stroke-width="3"/>
    </g>
    <g>
      <path d="M69,260.5 C64.5,266 39,296 32.5,343.5 C26,391 38.5,443 50.5,453.5 C66,465.5 251.5,483.833 251.5,483.833 C251.5,483.833 379,495 391.5,494 C396.5,494 393.5,485 387.5,483.833 C335.5,484 313.5,461 322.5,446.5 C335.5,430 383,457.5 396.5,464 C410,470.5 410.5,461.5 406.5,455 C397,452.5 89.5,256 95.5,260.5 C101.5,265 82.5,246.5 69,260.5 z" fill="#210CD5" fill-opacity="0.829"/>
      <path d="M69,260.5 C64.5,266 39,296 32.5,343.5 C26,391 38.5,443 50.5,453.5 C66,465.5 251.5,483.833 251.5,483.833 C251.5,483.833 379,495 391.5,494 C396.5,494 393.5,485 387.5,483.833 C335.5,484 313.5,461 322.5,446.5 C335.5,430 383,457.5 396.5,464 C410,470.5 410.5,461.5 406.5,455 C397,452.5 89.5,256 95.5,260.5 C101.5,265 82.5,246.5 69,260.5 z" fill-opacity="0" stroke="#000000" stroke-width="3"/>
    </g>
    <g>
      <path d="M68,479.5 C50.841,487.299 160.5,588.5 242.5,590 C263,592 290.082,592.746 290.082,592.746 C290.082,592.746 361.38,582.86 382.5,567.5 C403,561 402.5,554.5 401,550.5 C399.5,546.5 394,545.5 382.5,546.5 C371,547.5 328.5,571.5 321.5,541.5 C314.5,511.5 357,516.5 372.5,517 C388,517.5 390,516 392.5,508.5 C395,505.5 262.5,498 262.5,498 C262.5,498 262.5,498 262.5,498 C262.5,498 262.5,498 262.5,498 C262.5,498 171.933,486.998 161.467,484.999 C151,483 80.934,477.047 68,479.5 z" fill="#473DD8"/>
      <path d="M68,479.5 C50.841,487.299 160.5,588.5 242.5,590 C263,592 290.082,592.746 290.082,592.746 C290.082,592.746 361.38,582.86 382.5,567.5 C403,561 402.5,554.5 401,550.5 C399.5,546.5 394,545.5 382.5,546.5 C371,547.5 328.5,571.5 321.5,541.5 C314.5,511.5 357,516.5 372.5,517 C388,517.5 390,516 392.5,508.5 C395,505.5 262.5,498 262.5,498 C262.5,498 262.5,498 262.5,498 C262.5,498 262.5,498 262.5,498 C262.5,498 171.933,486.998 161.467,484.999 C151,483 80.934,477.047 68,479.5 z" fill-opacity="0" stroke="#000000" stroke-width="3"/>
    </g>
    <g>
      <path d="M279,498.5 C291,509 310.5,525 307.5,547.5 C304.5,570 296,582.5 291,590.5 C277,598.5 206.167,584.833 195,579.333 C209.5,571.833 232.5,568.5 246.722,543 C260.5,516 195.5,496 202.5,498.5 C212,500.5 152,483.833 152,483.833 C152,483.833 261.5,498 279,498.5 z" fill="url(#Gradient_1)"/>
      <path d="M279,498.5 C291,509 310.5,525 307.5,547.5 C304.5,570 296,582.5 291,590.5 C277,598.5 206.167,584.833 195,579.333 C209.5,571.833 232.5,568.5 246.722,543 C260.5,516 195.5,496 202.5,498.5 C212,500.5 152,483.833 152,483.833 C152,483.833 261.5,498 279,498.5 z" fill-opacity="0" stroke="#000000" stroke-width="3"/>
    </g>
    <g>
      <path d="M279,498.5 C279,498.5 382.833,505.833 391,506.5 C394.833,505.5 392.167,513.833 386.5,516.167 C381.5,520.167 317.167,506.167 321,538.5 C321.5,571.833 370.5,549.833 392,544.5 C398.833,543.833 405.5,550.5 397.5,560 C388.5,576 286.5,595 291,590.5 C295.5,586 303.119,560.5 307.81,541.5 C309.167,525.167 279,498.5 279,498.5 z" fill="url(#Gradient_2)"/>
      <path d="M279,498.5 C279,498.5 382.833,505.833 391,506.5 C394.833,505.5 392.167,513.833 386.5,516.167 C381.5,520.167 317.167,506.167 321,538.5 C321.5,571.833 370.5,549.833 392,544.5 C398.833,543.833 405.5,550.5 397.5,560 C388.5,576 286.5,595 291,590.5 C295.5,586 303.119,560.5 307.81,541.5 C309.167,525.167 279,498.5 279,498.5 z" fill-opacity="0" stroke="#000000" stroke-width="3"/>
    </g>
    <g>
      <path d="M172,308.5 C172,308.5 174.5,327.5 183,337.5 C191.5,347.5 216.5,358 208,395 C199.5,432 161.5,443.5 142.5,445.5 C121.5,456 131,466.5 132,470 C142,473 259.5,484.667 272.5,483.833 C276,470 289.5,463 305,444.5 C313,420.5 307.461,398.425 300,389 C290.5,377 172,308.5 172,308.5 z" fill="url(#Gradient_3)"/>
      <path d="M172,308.5 C172,308.5 174.5,327.5 183,337.5 C191.5,347.5 216.5,358 208,395 C199.5,432 161.5,443.5 142.5,445.5 C121.5,456 131,466.5 132,470 C142,473 259.5,484.667 272.5,483.833 C276,470 289.5,463 305,444.5 C313,420.5 307.461,398.425 300,389 C290.5,377 172,308.5 172,308.5 z" fill-opacity="0" stroke="#000000" stroke-width="3"/>
    </g>
    <g>
      <path d="M300.5,389 C305,391 399,447.5 406.5,455 C414,462.5 407,467.5 400.5,466.5 C394,465.5 347,431 322.5,446.5 C314,482 376,482.667 387.5,483.833 C399,485 397,493 391.5,494.5 C386,496 321.5,490.5 272.5,483.833 C264.223,482.707 291,464.5 305,442 C315.996,424.327 291.831,385.147 300.5,389 z" fill="url(#Gradient_4)"/>
      <path d="M300.5,389 C305,391 399,447.5 406.5,455 C414,462.5 407,467.5 400.5,466.5 C394,465.5 347,431 322.5,446.5 C314,482 376,482.667 387.5,483.833 C399,485 397,493 391.5,494.5 C386,496 321.5,490.5 272.5,483.833 C264.223,482.707 291,464.5 305,442 C315.996,424.327 291.831,385.147 300.5,389 z" fill-opacity="0" stroke="#000000" stroke-width="3"/>
    </g>
    <g>
      <path d="M140.411,446.972 C88.792,443 76.404,415.5 71.861,382.972 C73.926,345.5 97.877,326.5 141.237,321.972 C186.662,321 213.187,363.453 211.026,384.972 C207.309,421.972 182.532,443 140.411,446.972 z" fill="url(#Gradient_5)"/>
      <path d="M140.411,446.972 C88.792,443 76.404,415.5 71.861,382.972 C73.926,345.5 97.877,326.5 141.237,321.972 C186.662,321 213.187,363.453 211.026,384.972 C207.309,421.972 182.532,443 140.411,446.972 z" fill-opacity="0" stroke="#000000" stroke-width="3"/>
    </g>
    <g>
      <path d="M99.5,219.5 C92.5,226 87.5,232 98.5,243.5 C114,263 396.5,439.943 404,446.972 C411.5,454 421,450 415,442.5 C406.5,430 346,404.5 385.5,379.5 C416.5,362 445,439 448.5,449 C452,459 466.5,462 465,446.972 C463.5,434.5 415.871,337.411 408.685,321.955 C401.5,306.5 301.5,136 301.5,136 C301.5,136 295.388,115.5 270.944,122.5 C233.5,129 128.5,190.5 99.5,219.5 z" fill="#453BD6"/>
      <path d="M99.5,219.5 C92.5,226 87.5,232 98.5,243.5 C114,263 396.5,439.943 404,446.972 C411.5,454 421,450 415,442.5 C406.5,430 346,404.5 385.5,379.5 C416.5,362 445,439 448.5,449 C452,459 466.5,462 465,446.972 C463.5,434.5 415.871,337.411 408.685,321.955 C401.5,306.5 301.5,136 301.5,136 C301.5,136 295.388,115.5 270.944,122.5 C233.5,129 128.5,190.5 99.5,219.5 z" fill-opacity="0" stroke="#000000" stroke-width="3"/>
    </g>
    <g>
      <path d="M254.02,283 C221.626,283 194.692,252.741 194.692,227.75 C194.692,202.759 221.887,178.5 254.281,178.5 C286.674,178.5 312,202.759 312,227.75 C312,252.741 286.414,283 254.02,283 z" fill="url(#Gradient_6)"/>
      <path d="M254.02,283 C221.626,283 194.692,252.741 194.692,227.75 C194.692,202.759 221.887,178.5 254.281,178.5 C286.674,178.5 312,202.759 312,227.75 C312,252.741 286.414,283 254.02,283 z" fill-opacity="0" stroke="#000000" stroke-width="3"/>
    </g>
    <g>
      <path d="M172,296.5 C172,296.5 199.5,276 229.151,281.444 C249.5,286.5 268.5,282 286,271.5 C303.5,261 313.759,242.47 313.379,226.485 C309.5,210.5 315.248,183.876 326,178.5 C341,194 408.685,322.955 408.685,322.955 C408.685,322.955 403.082,327.501 397.5,336.5 C392.389,344.741 387.906,357.371 375,360 C365.739,361.887 343.454,359.444 332.5,362.5 C311.518,368.353 303,380 303,380 L172,296.5 z" fill="url(#Gradient_7)"/>
      <path d="M172,296.5 C172,296.5 199.5,276 229.151,281.444 C249.5,286.5 268.5,282 286,271.5 C303.5,261 313.759,242.47 313.379,226.485 C309.5,210.5 315.248,183.876 326,178.5 C341,194 408.685,322.955 408.685,322.955 C408.685,322.955 403.082,327.501 397.5,336.5 C392.389,344.741 387.906,357.371 375,360 C365.739,361.887 343.454,359.444 332.5,362.5 C311.518,368.353 303,380 303,380 L172,296.5 z" fill-opacity="0" stroke="#000000" stroke-width="3"/>
    </g>
    <g>
      <path d="M408.685,322.955 C403.5,325 404.5,329.5 397.5,336.5 C390.5,343.5 393.5,356.5 378.5,358.5 C363.5,360.5 350.5,359 335.5,360.5 C320.5,362 305.5,377.5 303,380 C307.5,383.5 397.5,441.443 404,446.972 C410.5,452.5 423,450.5 415,442.5 C405.5,432.5 352.5,407 381.5,381 C409.5,362.5 439.5,414.5 448.5,449 C448.5,453 466,465.5 465,446.972 C459,427.5 414,327 408.685,322.955 z" fill="url(#Gradient_8)"/>
      <path d="M408.685,322.955 C403.5,325 404.5,329.5 397.5,336.5 C390.5,343.5 393.5,356.5 378.5,358.5 C363.5,360.5 350.5,359 335.5,360.5 C320.5,362 305.5,377.5 303,380 C307.5,383.5 397.5,441.443 404,446.972 C410.5,452.5 423,450.5 415,442.5 C405.5,432.5 352.5,407 381.5,381 C409.5,362.5 439.5,414.5 448.5,449 C448.5,453 466,465.5 465,446.972 C459,427.5 414,327 408.685,322.955 z" fill-opacity="0" stroke="#000000" stroke-width="3"/>
    </g>
    <g>
      <path d="M336.5,108.5 C320.5,114.5 313.167,111.167 323.833,129.833 C334.5,148.5 417.167,299.833 421.833,315.167 C426.5,330.5 467.167,420.5 471.167,441.833 C480.5,454.5 483.167,449.167 485.167,440.5 C489.167,427.833 440.5,359.167 489.167,354.5 C494.5,358.5 539.167,339.167 517.167,437.167 C516.5,449.833 523.167,454.5 529.833,441.167 C537.833,423.167 537.167,287.167 537.167,269.167 C537.167,251.167 534.5,129.833 534.5,111.833 C537.167,93.833 528.826,91.68 513.833,89.167 C497.924,86.5 355.78,101.27 336.5,108.5 z" fill="#453BD6"/>
      <path d="M336.5,108.5 C320.5,114.5 313.167,111.167 323.833,129.833 C334.5,148.5 417.167,299.833 421.833,315.167 C426.5,330.5 467.167,420.5 471.167,441.833 C480.5,454.5 483.167,449.167 485.167,440.5 C489.167,427.833 440.5,359.167 489.167,354.5 C494.5,358.5 539.167,339.167 517.167,437.167 C516.5,449.833 523.167,454.5 529.833,441.167 C537.833,423.167 537.167,287.167 537.167,269.167 C537.167,251.167 534.5,129.833 534.5,111.833 C537.167,93.833 528.826,91.68 513.833,89.167 C497.924,86.5 355.78,101.27 336.5,108.5 z" fill-opacity="0" stroke="#000000" stroke-width="3"/>
    </g>
    <g>
      <path d="M349.834,178.5 C349.834,172.5 374.5,187.167 391.949,203.852 C413.167,215.833 422.5,219.833 449.834,215.167 C476.5,209.833 485.167,208.5 499.167,189.167 C516.5,162.5 531.422,156.617 533.834,159.833 C537.834,165.167 537.181,300.5 537.181,300.5 C537.181,300.5 531.959,302.143 520.5,308.5 C512.765,312.791 501.795,322.263 489.167,323.289 C476.571,324.312 460.629,316.862 449.167,315.167 C432.116,312.644 421.834,315.167 421.834,315.167 C421.834,315.167 355.834,185.167 349.834,178.5 z" fill="url(#Gradient_9)"/>
      <path d="M349.834,178.5 C349.834,172.5 374.5,187.167 391.949,203.852 C413.167,215.833 422.5,219.833 449.834,215.167 C476.5,209.833 485.167,208.5 499.167,189.167 C516.5,162.5 531.422,156.617 533.834,159.833 C537.834,165.167 537.181,300.5 537.181,300.5 C537.181,300.5 531.959,302.143 520.5,308.5 C512.765,312.791 501.795,322.263 489.167,323.289 C476.571,324.312 460.629,316.862 449.167,315.167 C432.116,312.644 421.834,315.167 421.834,315.167 C421.834,315.167 355.834,185.167 349.834,178.5 z" fill-opacity="0" stroke="#000000" stroke-width="3"/>
    </g>
    <g>
      <path d="M421.833,315.167 C434.5,312.5 432.5,313.167 449.167,315.167 C465.833,317.167 476.5,326.077 489.167,323.289 C501.833,320.5 504.5,317.833 517.167,309.833 C529.833,301.833 535.194,297.167 537.18,300.5 C539.167,303.833 537.833,427.833 531.167,438.5 C524.5,449.167 518.5,454.5 517.167,437.167 C515.833,419.833 541.167,348.5 489.167,354.5 C441.833,363.167 489.833,425.167 485.833,437.833 C486.5,451.833 480.5,453.167 471.167,441.833 C464.5,427.167 427.167,327.833 421.833,315.167 z" fill="url(#Gradient_10)"/>
      <path d="M421.833,315.167 C434.5,312.5 432.5,313.167 449.167,315.167 C465.833,317.167 476.5,326.077 489.167,323.289 C501.833,320.5 504.5,317.833 517.167,309.833 C529.833,301.833 535.194,297.167 537.18,300.5 C539.167,303.833 537.833,427.833 531.167,438.5 C524.5,449.167 518.5,454.5 517.167,437.167 C515.833,419.833 541.167,348.5 489.167,354.5 C441.833,363.167 489.833,425.167 485.833,437.833 C486.5,451.833 480.5,453.167 471.167,441.833 C464.5,427.167 427.167,327.833 421.833,315.167 z" fill-opacity="0" stroke="#000000" stroke-width="3"/>
    </g>
    <g>
      <path d="M441.167,215.833 C408.688,216.625 381.833,201.035 381.833,172.5 C381.833,143.965 399.154,121.043 437.077,121.043 C475.001,121.043 495.941,143.371 497.833,170.5 C499.833,199.167 468.5,215.167 441.167,215.833 z" fill="url(#Gradient_11)"/>
      <path d="M441.167,215.833 C408.688,216.625 381.833,201.035 381.833,172.5 C381.833,143.965 399.154,121.043 437.077,121.043 C475.001,121.043 495.941,143.371 497.833,170.5 C499.833,199.167 468.5,215.167 441.167,215.833 z" fill-opacity="0" stroke="#000000" stroke-width="3"/>
    </g>
    <g>
      <path d="M571.833,91.833 C571.833,91.833 551.167,87.167 551.167,109.833 C551.167,132.5 548.825,394.308 542.5,429.167 C538.024,453.833 553.188,446.632 557.167,435.833 C561.833,423.167 553.833,340.5 593.833,348.5 C626.5,358.5 589.167,398.5 575.833,423.833 C569.167,440.5 581.833,441.167 587.167,433.167 C597.167,422.5 749.291,190.142 762.5,164.5 C773.833,142.5 775.114,145.552 763.167,134.5 C736.5,109.833 571.833,91.833 571.833,91.833 z" fill="#453BD6"/>
      <path d="M571.833,91.833 C571.833,91.833 551.167,87.167 551.167,109.833 C551.167,132.5 548.825,394.308 542.5,429.167 C538.024,453.833 553.188,446.632 557.167,435.833 C561.833,423.167 553.833,340.5 593.833,348.5 C626.5,358.5 589.167,398.5 575.833,423.833 C569.167,440.5 581.833,441.167 587.167,433.167 C597.167,422.5 749.291,190.142 762.5,164.5 C773.833,142.5 775.114,145.552 763.167,134.5 C736.5,109.833 571.833,91.833 571.833,91.833 z" fill-opacity="0" stroke="#000000" stroke-width="3"/>
    </g>
    <g>
      <path d="M549.833,161.036 C549.833,159.036 577.167,173.833 587.167,191.167 C597.167,208.5 605.833,213.833 635.167,220.167 C664.5,226.5 678.5,216.5 696.5,207.167 C714.5,197.833 738.5,192.5 742.5,197.833 C735.833,211.833 663.833,324.269 659.833,323.385 C655.833,322.5 642.5,319.603 631.167,323.385 C619.833,327.167 616.5,331.167 604.5,328.5 C592.5,325.833 593.167,317.167 577.167,308.5 C561.167,299.833 549.167,299.412 549.167,299.412 C549.167,299.412 549.833,175.229 549.833,161.036 z" fill="url(#Gradient_12)"/>
      <path d="M549.833,161.036 C549.833,159.036 577.167,173.833 587.167,191.167 C597.167,208.5 605.833,213.833 635.167,220.167 C664.5,226.5 678.5,216.5 696.5,207.167 C714.5,197.833 738.5,192.5 742.5,197.833 C735.833,211.833 663.833,324.269 659.833,323.385 C655.833,322.5 642.5,319.603 631.167,323.385 C619.833,327.167 616.5,331.167 604.5,328.5 C592.5,325.833 593.167,317.167 577.167,308.5 C561.167,299.833 549.167,299.412 549.167,299.412 C549.167,299.412 549.833,175.229 549.833,161.036 z" fill-opacity="0" stroke="#000000" stroke-width="3"/>
    </g>
    <g>
      <path d="M642.503,221.5 C617.17,217.862 592.503,208.5 591.17,184.5 C589.868,161.063 616.033,138.746 646.258,139.84 C674.682,140.868 701.837,161.036 700.503,184.5 C699.246,206.625 669.567,225.386 642.503,221.5 z" fill="url(#Gradient_13)"/>
      <path d="M642.503,221.5 C617.17,217.862 592.503,208.5 591.17,184.5 C589.868,161.063 616.033,138.746 646.258,139.84 C674.682,140.868 701.837,161.036 700.503,184.5 C699.246,206.625 669.567,225.386 642.503,221.5 z" fill-opacity="0" stroke="#000000" stroke-width="3"/>
    </g>
    <g>
      <path d="M549.167,299.412 C549.167,294.949 565.167,302.5 577.167,308.5 C597.211,318.522 590.358,321.9 604.5,328.5 C614.5,333.167 613.217,326.857 634.5,322.955 C655.167,319.167 659.833,323.385 659.833,323.385 C659.833,323.385 591.119,429.167 587.167,433.167 C581.928,438.468 569.167,439.833 575.833,423.833 C582.5,407.833 627.833,361.167 593.833,348.5 C565.833,337.167 558.5,397.833 557.167,435.833 C556.5,444.5 541.53,450.5 541.682,434.5 C541.833,418.5 549.167,315.167 549.167,299.412 z" fill="url(#Gradient_14)"/>
      <path d="M549.167,299.412 C549.167,294.949 565.167,302.5 577.167,308.5 C597.211,318.522 590.358,321.9 604.5,328.5 C614.5,333.167 613.217,326.857 634.5,322.955 C655.167,319.167 659.833,323.385 659.833,323.385 C659.833,323.385 591.119,429.167 587.167,433.167 C581.928,438.468 569.167,439.833 575.833,423.833 C582.5,407.833 627.833,361.167 593.833,348.5 C565.833,337.167 558.5,397.833 557.167,435.833 C556.5,444.5 541.53,450.5 541.682,434.5 C541.833,418.5 549.167,315.167 549.167,299.412 z" fill-opacity="0" stroke="#000000" stroke-width="3"/>
    </g>
    <g>
      <path d="M783.167,160.855 C794.364,147.669 795.269,148.179 814.5,154.5 C833.833,160.855 927.467,236.117 943.833,263.167 C955.833,283 951.167,283.167 942.5,291.167 C933.833,299.167 669.167,443.833 649.167,453.833 C629.167,463.833 625.833,453.101 631.833,445.8 C637.833,438.5 722.5,410.833 691.833,380 C649.833,356.5 631.167,428.5 616.5,438.5 C604.5,451.167 592.729,444.753 603.833,432.5 C623.167,411.167 771.579,174.5 783.167,160.855 z" fill="#453BD6"/>
      <path d="M783.167,160.855 C794.364,147.669 795.269,148.179 814.5,154.5 C833.833,160.855 927.467,236.117 943.833,263.167 C955.833,283 951.167,283.167 942.5,291.167 C933.833,299.167 669.167,443.833 649.167,453.833 C629.167,463.833 625.833,453.101 631.833,445.8 C637.833,438.5 722.5,410.833 691.833,380 C649.833,356.5 631.167,428.5 616.5,438.5 C604.5,451.167 592.729,444.753 603.833,432.5 C623.167,411.167 771.579,174.5 783.167,160.855 z" fill-opacity="0" stroke="#000000" stroke-width="3"/>
    </g>
    <g>
      <path d="M754.5,203.167 C764.5,200.5 761.833,226.5 762.5,250.5 C760.5,263.167 764.5,274.5 774.5,289.167 C784.5,303.833 823.167,317.167 839.167,313.833 C854.5,311.167 887.167,311.833 897.833,315.833 C893.833,321.833 763.833,388.735 763.833,388.735 C763.833,388.735 757.414,380 732.5,380 C714.5,380 709.833,375.167 705.167,369.833 C699.052,362.845 694.5,359.167 689.167,345.167 C683.833,331.167 675.167,326.5 675.167,326.5 C675.167,326.5 748.5,215.167 754.5,203.167 z" fill="url(#Gradient_15)"/>
      <path d="M754.5,203.167 C764.5,200.5 761.833,226.5 762.5,250.5 C760.5,263.167 764.5,274.5 774.5,289.167 C784.5,303.833 823.167,317.167 839.167,313.833 C854.5,311.167 887.167,311.833 897.833,315.833 C893.833,321.833 763.833,388.735 763.833,388.735 C763.833,388.735 757.414,380 732.5,380 C714.5,380 709.833,375.167 705.167,369.833 C699.052,362.845 694.5,359.167 689.167,345.167 C683.833,331.167 675.167,326.5 675.167,326.5 C675.167,326.5 748.5,215.167 754.5,203.167 z" fill-opacity="0" stroke="#000000" stroke-width="3"/>
    </g>
    <g>
      <path d="M675.167,326.5 C677.833,324.5 682.5,330.5 689.167,345.167 C695.833,359.833 693.167,355.167 705.167,369.833 C717.167,384.5 728.5,377.5 742.5,380 C756.5,382.5 762.5,383.833 763.833,388.735 C765.346,394.298 652.507,452.129 645.833,456.175 C636.5,461.833 617.833,455.833 636.5,441.833 C649.167,437.167 724.226,404.233 689.167,379.333 C659.833,358.5 634.5,415.167 616.5,438.5 C609.377,447.734 591.833,447.167 603.833,432.5 C615.833,417.833 672.5,328.5 675.167,326.5 z" fill="url(#Gradient_16)"/>
      <path d="M675.167,326.5 C677.833,324.5 682.5,330.5 689.167,345.167 C695.833,359.833 693.167,355.167 705.167,369.833 C717.167,384.5 728.5,377.5 742.5,380 C756.5,382.5 762.5,383.833 763.833,388.735 C765.346,394.298 652.507,452.129 645.833,456.175 C636.5,461.833 617.833,455.833 636.5,441.833 C649.167,437.167 724.226,404.233 689.167,379.333 C659.833,358.5 634.5,415.167 616.5,438.5 C609.377,447.734 591.833,447.167 603.833,432.5 C615.833,417.833 672.5,328.5 675.167,326.5 z" fill-opacity="0" stroke="#000000" stroke-width="3"/>
    </g>
    <g>
      <path d="M803.614,301.95 C782.28,303.297 772.912,291.433 771.579,277.167 C770.277,263.235 779.302,249.141 800.787,247.256 C826.2,245.027 833.833,261.833 835.167,276.5 C836.363,289.658 822.955,300.728 803.614,301.95 z" fill="url(#Gradient_17)"/>
      <path d="M803.614,301.95 C782.28,303.297 772.912,291.433 771.579,277.167 C770.277,263.235 779.302,249.141 800.787,247.256 C826.2,245.027 833.833,261.833 835.167,276.5 C836.363,289.658 822.955,300.728 803.614,301.95 z" fill-opacity="0" stroke="#000000" stroke-width="3"/>
    </g>
    <g>
      <path d="M951.075,305.833 C951.075,305.833 962.341,293.916 973.167,311.833 C992.5,343.833 1004.5,414.5 987.833,456.842 C981.44,473.085 969.167,473.167 969.167,473.167 C969.167,473.167 861.167,493.167 831.833,498.082 C798.5,503.833 681.833,508.5 663.167,506.5 C644.5,504.5 647.167,493.833 659.833,494.063 C700.5,491.833 746.5,493.833 742.5,466.5 C739.833,429.167 677.167,473.833 653.833,475.167 C637.833,477.167 637.167,468.5 649.833,461.833 C673.167,457.833 820.5,380 820.5,380 L951.075,305.833 z" fill="#453BD6"/>
      <path d="M951.075,305.833 C951.075,305.833 962.341,293.916 973.167,311.833 C992.5,343.833 1004.5,414.5 987.833,456.842 C981.44,473.085 969.167,473.167 969.167,473.167 C969.167,473.167 861.167,493.167 831.833,498.082 C798.5,503.833 681.833,508.5 663.167,506.5 C644.5,504.5 647.167,493.833 659.833,494.063 C700.5,491.833 746.5,493.833 742.5,466.5 C739.833,429.167 677.167,473.833 653.833,475.167 C637.833,477.167 637.167,468.5 649.833,461.833 C673.167,457.833 820.5,380 820.5,380 L951.075,305.833 z" fill-opacity="0" stroke="#000000" stroke-width="3"/>
    </g>
    <g>
      <path d="M881.833,345.167 C869.167,361.167 833.833,391.167 853.167,425.833 C872.5,460.5 914.5,478.5 927.833,480.917 C915.833,481.167 796.5,507.833 771.579,502.5 C777.833,493.167 776.5,499.167 779.167,483.833 C781.833,468.5 761.252,452.218 756.5,444.497 C751.167,435.833 767.167,407.167 767.167,407.167 C767.167,407.167 901.167,335.167 881.833,345.167 z" fill="url(#Gradient_18)"/>
      <path d="M881.833,345.167 C869.167,361.167 833.833,391.167 853.167,425.833 C872.5,460.5 914.5,478.5 927.833,480.917 C915.833,481.167 796.5,507.833 771.579,502.5 C777.833,493.167 776.5,499.167 779.167,483.833 C781.833,468.5 761.252,452.218 756.5,444.497 C751.167,435.833 767.167,407.167 767.167,407.167 C767.167,407.167 901.167,335.167 881.833,345.167 z" fill-opacity="0" stroke="#000000" stroke-width="3"/>
    </g>
    <g>
      <path d="M767.167,407.167 C767.167,407.167 748.287,434.584 756.5,444.497 C775.833,467.833 777.833,473.167 777.833,473.167 C777.833,473.167 783.833,499.833 771.579,502.5 C754.5,504.5 666.5,509.243 656.5,504.538 C647.833,501.833 645.167,495.833 659.833,494.063 C686.5,491.167 743.833,494.5 742.5,466.5 C741.833,430.5 677.833,472.5 653.833,475.167 C634.5,475.167 641.167,467.833 649.833,461.833 C659.833,458.5 767.167,407.167 767.167,407.167 z" fill="url(#Gradient_19)"/>
      <path d="M767.167,407.167 C767.167,407.167 748.287,434.584 756.5,444.497 C775.833,467.833 777.833,473.167 777.833,473.167 C777.833,473.167 783.833,499.833 771.579,502.5 C754.5,504.5 666.5,509.243 656.5,504.538 C647.833,501.833 645.167,495.833 659.833,494.063 C686.5,491.167 743.833,494.5 742.5,466.5 C741.833,430.5 677.833,472.5 653.833,475.167 C634.5,475.167 641.167,467.833 649.833,461.833 C659.833,458.5 767.167,407.167 767.167,407.167 z" fill-opacity="0" stroke="#000000" stroke-width="3"/>
    </g>
    <g>
      <path d="M951.075,489.833 C951.075,489.833 984.5,479.167 965.167,498.5 C945.833,517.833 904.5,593.167 798.5,614.5 C692.5,635.833 635.833,584.5 625.833,582.5 C619.167,579.833 622.5,557.833 634.5,562.5 C651.167,569.833 672.5,595.833 689.167,558.5 C705.167,532.5 671.167,535.833 649.833,533.833 C634.5,533.167 640.5,518.167 653.833,518 C667.167,517.833 765.833,520.5 800.5,516.5 C859.833,513.833 951.075,489.833 951.075,489.833 z" fill="#453BD6"/>
      <path d="M951.075,489.833 C951.075,489.833 984.5,479.167 965.167,498.5 C945.833,517.833 904.5,593.167 798.5,614.5 C692.5,635.833 635.833,584.5 625.833,582.5 C619.167,579.833 622.5,557.833 634.5,562.5 C651.167,569.833 672.5,595.833 689.167,558.5 C705.167,532.5 671.167,535.833 649.833,533.833 C634.5,533.167 640.5,518.167 653.833,518 C667.167,517.833 765.833,520.5 800.5,516.5 C859.833,513.833 951.075,489.833 951.075,489.833 z" fill-opacity="0" stroke="#000000" stroke-width="3"/>
    </g>
    <g>
      <path d="M855.833,510.304 C855.833,510.304 784.5,533.833 794.5,563.167 C804.5,592.5 834.5,597.833 842.5,600.5 C834.5,606.5 775.833,622.5 751.167,619.68 C745.833,607.833 731.167,581.833 730.5,563.833 C727.167,549.833 743.167,525.5 751.833,518.667 C760.5,522.5 855.833,510.304 855.833,510.304 z" fill="url(#Gradient_20)"/>
      <path d="M855.833,510.304 C855.833,510.304 784.5,533.833 794.5,563.167 C804.5,592.5 834.5,597.833 842.5,600.5 C834.5,606.5 775.833,622.5 751.167,619.68 C745.833,607.833 731.167,581.833 730.5,563.833 C727.167,549.833 743.167,525.5 751.833,518.667 C760.5,522.5 855.833,510.304 855.833,510.304 z" fill-opacity="0" stroke="#000000" stroke-width="3"/>
    </g>
    <g>
      <path d="M750.5,518 C744.5,527.167 731.833,535.833 730.5,563.833 C734.5,589.833 746.5,612.5 751.167,619.68 C715.167,623.167 646.5,599.167 625.833,582.5 C615.167,567.167 629.167,557.833 634.5,562.5 C642.5,567.167 673.167,597.167 689.167,558.5 C705.833,527.833 666.5,536.5 649.833,533.833 C633.167,531.167 641.167,518.167 653.833,518 C666.5,517.833 758.5,517.833 750.5,518 z" fill="url(#Gradient_21)"/>
      <path d="M750.5,518 C744.5,527.167 731.833,535.833 730.5,563.833 C734.5,589.833 746.5,612.5 751.167,619.68 C715.167,623.167 646.5,599.167 625.833,582.5 C615.167,567.167 629.167,557.833 634.5,562.5 C642.5,567.167 673.167,597.167 689.167,558.5 C705.833,527.833 666.5,536.5 649.833,533.833 C633.167,531.167 641.167,518.167 653.833,518 C666.5,517.833 758.5,517.833 750.5,518 z" fill-opacity="0" stroke="#000000" stroke-width="3"/>
    </g>
    <g>
      <path d="M433.167,579.833 C442.927,593.347 439.167,607.526 439.167,619.68 C439.167,631.833 459.833,661.833 460.5,675.167 C461.167,688.5 463.167,719.167 465.041,715.167 C477.167,701.833 495.167,710.5 502.5,717.833 C503.167,727.167 501.833,689.167 497.924,673.833 C495.833,659.167 483.833,637.526 481.833,619.68 C479.833,601.833 481.167,587.167 479.833,571.167 C457.833,571.167 453.833,567.833 433.167,579.833 z" fill="#290ED6"/>
      <path d="M433.167,579.833 C442.927,593.347 439.167,607.526 439.167,619.68 C439.167,631.833 459.833,661.833 460.5,675.167 C461.167,688.5 463.167,719.167 465.041,715.167 C477.167,701.833 495.167,710.5 502.5,717.833 C503.167,727.167 501.833,689.167 497.924,673.833 C495.833,659.167 483.833,637.526 481.833,619.68 C479.833,601.833 481.167,587.167 479.833,571.167 C457.833,571.167 453.833,567.833 433.167,579.833 z" fill-opacity="0" stroke="#000000" stroke-width="3"/>
    </g>
    <g>
      <path d="M492.003,571.044 C489.833,587.167 490.5,599.167 494.5,611.167 C498.343,622.697 501.167,647.833 509.833,665.833 C519.833,677.167 509.959,719.167 511.833,715.167 C528.5,707.167 545.167,711.956 552.5,719.289 C553.167,728.623 553.076,681.167 549.167,665.833 C547.076,651.167 540.838,623.28 540.669,610.89 C539.833,593.167 554.5,593.167 578.5,592.952 C563.167,579.833 517.167,573.167 492.003,571.044 z" fill="#E5410A" fill-opacity="0.97"/>
      <path d="M492.003,571.044 C489.833,587.167 490.5,599.167 494.5,611.167 C498.343,622.697 501.167,647.833 509.833,665.833 C519.833,677.167 509.959,719.167 511.833,715.167 C528.5,707.167 545.167,711.956 552.5,719.289 C553.167,728.623 553.076,681.167 549.167,665.833 C547.076,651.167 540.838,623.28 540.669,610.89 C539.833,593.167 554.5,593.167 578.5,592.952 C563.167,579.833 517.167,573.167 492.003,571.044 z" fill-opacity="0" stroke="#000000" stroke-width="3"/>
    </g>
    <text transform="matrix(1, 0, 0, 1, 539.168, 125.512)">
      <tspan x="-57.672" y="10.818" font-family="HelveticaNeue-Bold" font-size="36" fill="#FBF7F7">Cortex</tspan>
    </text>
    <text transform="matrix(1, 0, 0, 1, 534.142, 244.61)">
      <tspan x="-94.338" y="12.333" font-family="HelveticaNeue-Bold" font-size="36" fill="#FBF7F7">Paracortex</tspan>
    </text>
    <text transform="matrix(1, 0, 0, 1, 541.583, 345.122)">
      <tspan x="-67.95" y="12.333" font-family="HelveticaNeue-Bold" font-size="36" fill="#FBF7F7">Medulla</tspan>
    </text>
    <path d="M152,392.208 L240.74,392.208" fill-opacity="0" stroke="#FEF9F9" stroke-width="4"/>
    <text transform="matrix(1, 0, 0, 1, 361.184, 389.399)">
      <tspan x="-117.18" y="10.333" font-family="HelveticaNeue-Bold" font-size="30" fill="#FBF7F7">Germinal Center</tspan>
    </text>
    <text transform="matrix(1, 0, 0, 1, 869.827, 87.832)">
      <tspan x="-133.065" y="6.168" font-family="HelveticaNeue-Bold" font-size="30" fill="#020000">Subcapsular Sinus</tspan>
    </text>
    <path d="M700.551,101.83 L730.05,88.849" fill-opacity="0" stroke="#0C9602" stroke-width="4"/>
    <text transform="matrix(1, 0, 0, 1, 538.286, 506)">
      <tspan x="-49.608" y="12.333" font-family="HelveticaNeue-Bold" font-size="36" fill="#FBF7F7">Hilum</tspan>
    </text>
  </g>
</svg>
