<?xml version="1.0" encoding="UTF-8"?>
<!DOCTYPE svg PUBLIC "-//W3C//DTD SVG 1.1//EN" "http://www.w3.org/Graphics/SVG/1.1/DTD/svg11.dtd">
<svg version="1.1" xmlns="http://www.w3.org/2000/svg" xmlns:xlink="http://www.w3.org/1999/xlink" x="0" y="0" width="1024" height="768" viewBox="0, 0, 1024, 768">
  <g id="Layer_1">
    <g>
      <path d="M1.177,336.407 C22.5,330 277,264 309.7,267.067 C318.455,266.744 390.061,272.209 461,282.467 C527.01,292.012 592.469,306.317 605.489,308.166 C632.5,312 879.5,346.5 876.768,369.833 C885,377.5 912.132,445 911.316,472 C910.5,499 911.316,768.696 911.316,768.696 L0.833,768.696 C0.833,768.696 0.5,361 1.177,336.407 z" fill="#443BD6"/>
      <path d="M1.177,336.407 C22.5,330 277,264 309.7,267.067 C318.455,266.744 390.061,272.209 461,282.467 C527.01,292.012 592.469,306.317 605.489,308.166 C632.5,312 879.5,346.5 876.768,369.833 C885,377.5 912.132,445 911.316,472 C910.5,499 911.316,768.696 911.316,768.696 L0.833,768.696 C0.833,768.696 0.5,361 1.177,336.407 z" fill-opacity="0" stroke="#000000" stroke-width="3" stroke-opacity="0.155"/>
    </g>
    <g>
      <path d="M497.337,571.433 L550.992,512.711" fill-opacity="0" stroke="#000000" stroke-width="2" stroke-dasharray="6,4"/>
      <path d="M553.65,515.14 L557.468,505.624 L548.334,510.283 z" fill="#000000" fill-opacity="1" stroke="#000000" stroke-width="2" stroke-opacity="1"/>
    </g>
    <g>
      <g>
        <path d="M290.796,73.167 C290.796,73.167 291.528,88.509 295.347,94.505 C299.167,100.5 304.665,100.735 305.167,106.5 C305.516,110.517 307.75,111.278 299.458,121.222 C291.167,131.167 285.833,161.833 283.833,154.5 C283.833,154.5 283.833,154.5 283.833,154.5 C283.833,154.5 283.833,154.5 283.833,154.5 C282.967,151.325 286.935,141.4 287.932,131.166 C289.238,117.765 287.833,103.833 287.833,103.833 L290.796,73.167 z" fill="#F3C9C9"/>
        <path d="M290.796,73.167 C290.796,73.167 291.528,88.509 295.347,94.505 C299.167,100.5 304.665,100.735 305.167,106.5 C305.516,110.517 307.75,111.278 299.458,121.222 C291.167,131.167 285.833,161.833 283.833,154.5 C283.833,154.5 283.833,154.5 283.833,154.5 C283.833,154.5 283.833,154.5 283.833,154.5 C282.967,151.325 286.935,141.4 287.932,131.166 C289.238,117.765 287.833,103.833 287.833,103.833 L290.796,73.167 z" fill-opacity="0" stroke="#000000" stroke-width="3"/>
      </g>
      <path d="M295,116 C290.766,116 290.296,113.199 290.296,109.333 C290.296,105.467 290.766,102 295,102 C299.234,102 301.333,105.134 301.333,109 C301.333,112.866 299.234,116 295,116 z" fill="#4917E3"/>
    </g>
    <g>
      <path d="M284.058,154.965 C284.058,154.965 270.998,163.051 267.61,169.3 C264.221,175.549 266.685,180.471 261.887,183.707 C258.544,185.962 258.963,188.284 246.245,185.861 C233.526,183.437 190.5,190.833 190.5,190.833 L229.833,177.167 L255.807,167.258 L284.058,154.965 z" fill="#F3C9C9"/>
      <path d="M284.058,154.965 C284.058,154.965 270.998,163.051 267.61,169.3 C264.221,175.549 266.685,180.471 261.887,183.707 C258.544,185.962 258.963,188.284 246.245,185.861 C233.526,183.437 190.5,190.833 190.5,190.833 L229.833,177.167 L255.807,167.258 L284.058,154.965 z" fill-opacity="0" stroke="#000000" stroke-width="3"/>
    </g>
    <path d="M247.138,177.393 C246.218,173.261 248.849,172.193 252.623,171.353 C256.396,170.512 259.883,170.216 260.803,174.349 C261.724,178.482 259.122,181.213 255.348,182.053 C251.575,182.894 248.059,181.526 247.138,177.393 z" fill="#4917E3"/>
    <g>
      <path d="M191.024,190.612 C191.024,190.612 177.174,197.254 173.137,203.105 C169.1,208.956 171.022,214.112 165.906,216.817 C162.341,218.702 162.509,221.055 150.123,217.285 C137.736,213.515 94.166,216.267 94.166,216.267 L134.736,206.886 L161.62,199.812 L191.024,190.612 z" fill="#F3C9C9"/>
      <path d="M191.024,190.612 C191.024,190.612 177.174,197.254 173.137,203.105 C169.1,208.956 171.022,214.112 165.906,216.817 C162.341,218.702 162.509,221.055 150.123,217.285 C137.736,213.515 94.166,216.267 94.166,216.267 L134.736,206.886 L161.62,199.812 L191.024,190.612 z" fill-opacity="0" stroke="#000000" stroke-width="3"/>
    </g>
    <path d="M151.861,208.013 C151.388,203.805 154.118,203.026 157.96,202.593 C161.802,202.161 165.3,202.24 165.773,206.448 C166.247,210.655 163.367,213.092 159.525,213.524 C155.683,213.956 152.334,212.22 151.861,208.013 z" fill="#4917E3"/>
    <g>
      <path d="M96.197,215.076 C96.197,215.076 82.047,221.05 77.735,226.702 C73.423,232.353 75.098,237.596 69.858,240.054 C66.207,241.766 66.263,244.125 54.07,239.768 C41.878,235.411 -1.774,236.081 -1.774,236.081 L39.197,228.646 L66.388,222.863 L96.197,215.076 z" fill="#F3C9C9"/>
      <path d="M96.197,215.076 C96.197,215.076 82.047,221.05 77.735,226.702 C73.423,232.353 75.098,237.596 69.858,240.054 C66.207,241.766 66.263,244.125 54.07,239.768 C41.878,235.411 -1.774,236.081 -1.774,236.081 L39.197,228.646 L66.388,222.863 L96.197,215.076 z" fill-opacity="0" stroke="#000000" stroke-width="3"/>
    </g>
    <path d="M56.177,230.611 C55.905,226.386 58.669,225.737 62.527,225.489 C66.385,225.241 69.876,225.486 70.148,229.712 C70.42,233.937 67.427,236.233 63.569,236.482 C59.711,236.73 56.449,234.837 56.177,230.611 z" fill="#4917E3"/>
    <g>
      <path d="M23.177,329.407 C23.177,329.407 37.11,322.943 41.222,317.145 C45.334,311.346 43.478,306.165 48.628,303.526 C52.217,301.688 52.079,299.332 64.416,303.261 C76.753,307.189 120.355,304.997 120.355,304.997 L79.669,313.857 L52.696,320.585 L23.177,329.407 z" fill="#F3C9C9"/>
      <path d="M23.177,329.407 C23.177,329.407 37.11,322.943 41.222,317.145 C45.334,311.346 43.478,306.165 48.628,303.526 C52.217,301.688 52.079,299.332 64.416,303.261 C76.753,307.189 120.355,304.997 120.355,304.997 L79.669,313.857 L52.696,320.585 L23.177,329.407 z" fill-opacity="0" stroke="#000000" stroke-width="3"/>
    </g>
    <path d="M60.579,310.504 C60.998,314.717 58.258,315.462 54.411,315.844 C50.564,316.227 47.067,316.103 46.647,311.89 C46.228,307.677 49.139,305.277 52.986,304.895 C56.833,304.512 60.159,306.29 60.579,310.504 z" fill="#4917E3"/>
    <g>
      <path d="M119.355,305.344 C119.355,305.344 133.289,298.88 137.401,293.081 C141.513,287.283 139.656,282.102 144.807,279.463 C148.396,277.624 148.258,275.269 160.595,279.197 C172.932,283.126 216.534,280.933 216.534,280.933 L175.847,289.793 L148.875,296.522 L119.355,305.344 z" fill="#F3C9C9"/>
      <path d="M119.355,305.344 C119.355,305.344 133.289,298.88 137.401,293.081 C141.513,287.283 139.656,282.102 144.807,279.463 C148.396,277.624 148.258,275.269 160.595,279.197 C172.932,283.126 216.534,280.933 216.534,280.933 L175.847,289.793 L148.875,296.522 L119.355,305.344 z" fill-opacity="0" stroke="#000000" stroke-width="3"/>
    </g>
    <path d="M157.757,286.44 C158.177,290.654 155.436,291.398 151.589,291.781 C147.742,292.164 144.245,292.04 143.826,287.827 C143.407,283.613 146.318,281.214 150.165,280.831 C154.012,280.448 157.338,282.227 157.757,286.44 z" fill="#4917E3"/>
    <g>
      <path d="M214.655,281.422 C214.655,281.422 228.588,274.958 232.7,269.159 C236.812,263.361 234.956,258.18 240.106,255.541 C243.695,253.702 243.557,252.347 255.894,256.275 C268.232,260.204 312.5,266.833 312.5,266.833 L274.5,269.167 L244.174,274.6 L214.655,281.422 z" fill="#F3C9C9"/>
      <path d="M214.655,281.422 C214.655,281.422 228.588,274.958 232.7,269.159 C236.812,263.361 234.956,258.18 240.106,255.541 C243.695,253.702 243.557,252.347 255.894,256.275 C268.232,260.204 312.5,266.833 312.5,266.833 L274.5,269.167 L244.174,274.6 L214.655,281.422 z" fill-opacity="0" stroke="#000000" stroke-width="3"/>
    </g>
    <path d="M253.057,264.518 C253.476,268.732 250.736,269.476 246.889,269.859 C243.042,270.242 239.545,270.118 239.126,265.905 C238.706,261.691 241.617,259.292 245.464,258.909 C249.311,258.527 252.637,260.305 253.057,264.518 z" fill="#4917E3"/>
    <g>
      <path d="M309.7,267.067 C309.7,267.067 324.995,265.646 330.812,261.56 C336.629,257.475 336.616,251.972 342.353,251.211 C346.351,250.682 347.01,248.416 357.318,256.252 C367.625,264.088 409.44,276.634 409.44,276.634 L368.137,271.347 L340.469,268.647 L309.7,267.067 z" fill="#F3C9C9"/>
      <path d="M309.7,267.067 C309.7,267.067 324.995,265.646 330.812,261.56 C336.629,257.475 336.616,251.972 342.353,251.211 C346.351,250.682 347.01,248.416 357.318,256.252 C367.625,264.088 409.44,276.634 409.44,276.634 L368.137,271.347 L340.469,268.647 L309.7,267.067 z" fill-opacity="0" stroke="#000000" stroke-width="3"/>
    </g>
    <path d="M355.02,262.264 C354.003,266.374 351.172,266.157 347.419,265.229 C343.666,264.3 340.413,263.012 341.43,258.902 C342.447,254.791 345.993,253.506 349.746,254.435 C353.499,255.363 356.037,258.154 355.02,262.264 z" fill="#4917E3"/>
    <g>
      <path d="M408.914,276.578 C408.914,276.578 423.919,276.106 429.896,272.258 C435.873,268.41 436.081,262.91 441.844,262.381 C445.86,262.012 446.61,259.775 456.594,268.019 C466.578,276.262 507.855,291.479 507.855,291.479 L466.798,283.536 L439.261,279.727 L408.914,276.578 z" fill="#F3C9C9"/>
      <path d="M408.914,276.578 C408.914,276.578 423.919,276.106 429.896,272.258 C435.873,268.41 436.081,262.91 441.844,262.381 C445.86,262.012 446.61,259.775 456.594,268.019 C466.578,276.262 507.855,291.479 507.855,291.479 L466.798,283.536 L439.261,279.727 L408.914,276.578 z" fill-opacity="0" stroke="#000000" stroke-width="3"/>
    </g>
    <path d="M454.036,273.953 C452.855,278.019 450.035,277.689 446.322,276.61 C442.61,275.532 439.411,274.114 440.592,270.048 C441.773,265.982 445.369,264.84 449.081,265.919 C452.794,266.997 455.218,269.887 454.036,273.953 z" fill="#4917E3"/>
    <g>
      <path d="M507.673,291.39 C507.673,291.39 523.031,290.5 529.15,286.882 C535.268,283.263 535.685,277.775 541.463,277.464 C545.49,277.248 546.324,275.041 555.989,283.657 C565.653,292.273 606.362,308.044 606.362,308.044 L565.598,300.883 L538.225,296.033 L507.673,291.39 z" fill="#F3C9C9"/>
      <path d="M507.673,291.39 C507.673,291.39 523.031,290.5 529.15,286.882 C535.268,283.263 535.685,277.775 541.463,277.464 C545.49,277.248 546.324,275.041 555.989,283.657 C565.653,292.273 606.362,308.044 606.362,308.044 L565.598,300.883 L538.225,296.033 L507.673,291.39 z" fill-opacity="0" stroke="#000000" stroke-width="3"/>
    </g>
    <path d="M553.189,289.509 C551.854,293.527 549.048,293.09 545.379,291.872 C541.711,290.653 538.568,289.115 539.902,285.097 C541.237,281.078 544.873,280.074 548.542,281.292 C552.211,282.511 554.523,285.491 553.189,289.509 z" fill="#4917E3"/>
    <g>
      <path d="M605.489,308.166 C605.489,308.166 620.847,307.942 626.966,304.323 C633.084,300.704 633.5,295.217 639.279,294.906 C643.306,294.69 644.14,292.483 653.805,301.099 C663.469,309.715 704.178,325.486 704.178,325.486 L663.414,316.992 L636.04,312.142 L605.489,308.166 z" fill="#F3C9C9"/>
      <path d="M605.489,308.166 C605.489,308.166 620.847,307.942 626.966,304.323 C633.084,300.704 633.5,295.217 639.279,294.906 C643.306,294.69 644.14,292.483 653.805,301.099 C663.469,309.715 704.178,325.486 704.178,325.486 L663.414,316.992 L636.04,312.142 L605.489,308.166 z" fill-opacity="0" stroke="#000000" stroke-width="3"/>
    </g>
    <path d="M651.005,306.951 C649.67,310.969 646.864,310.532 643.195,309.314 C639.526,308.095 636.384,306.557 637.718,302.539 C639.053,298.52 642.689,297.516 646.358,298.734 C650.026,299.953 652.339,302.933 651.005,306.951 z" fill="#4917E3"/>
    <g>
      <path d="M703.178,325.346 C703.178,325.346 718.537,324.79 724.655,321.171 C730.773,317.552 731.19,312.064 736.969,311.754 C740.995,311.538 741.829,309.33 751.494,317.946 C761.159,326.562 801.867,342.333 801.867,342.333 L761.103,334.839 L733.73,329.989 L703.178,325.346 z" fill="#F3C9C9"/>
      <path d="M703.178,325.346 C703.178,325.346 718.537,324.79 724.655,321.171 C730.773,317.552 731.19,312.064 736.969,311.754 C740.995,311.538 741.829,309.33 751.494,317.946 C761.159,326.562 801.867,342.333 801.867,342.333 L761.103,334.839 L733.73,329.989 L703.178,325.346 z" fill-opacity="0" stroke="#000000" stroke-width="3"/>
    </g>
    <path d="M746.694,324.798 C745.36,328.817 742.554,328.38 738.885,327.161 C735.216,325.943 732.073,324.404 733.408,320.386 C734.742,316.367 738.378,315.363 742.047,316.582 C745.716,317.8 748.029,320.78 746.694,324.798 z" fill="#4917E3"/>
    <g>
      <g>
        <path d="M800.811,342.076 C800.811,342.076 816.169,341.853 822.288,338.234 C828.406,334.615 828.822,329.127 834.601,328.817 C838.628,328.601 845.753,328.853 853.126,339.51 C860.5,350.167 882.833,367.167 880.5,369.833 C865.833,363.833 872.471,364.305 858.735,356.403 C845,348.5 830.362,348.553 830.362,348.553 L800.811,342.076 z" fill="#F3C9C9"/>
        <path d="M800.811,342.076 C800.811,342.076 816.169,341.853 822.288,338.234 C828.406,334.615 828.822,329.127 834.601,328.817 C838.628,328.601 845.753,328.853 853.126,339.51 C860.5,350.167 882.833,367.167 880.5,369.833 C865.833,363.833 872.471,364.305 858.735,356.403 C845,348.5 830.362,348.553 830.362,348.553 L800.811,342.076 z" fill-opacity="0" stroke="#000000" stroke-width="3"/>
      </g>
      <path d="M843.327,340.862 C841.992,344.88 839.186,344.443 835.517,343.225 C831.848,342.006 828.706,340.468 830.04,336.449 C831.375,332.431 835.01,331.426 838.679,332.645 C842.348,333.863 844.661,336.843 843.327,340.862 z" fill="#4917E3"/>
    </g>
    <g>
      <path d="M399.327,155.856 C399.327,155.856 394.634,141.23 389.387,136.433 C384.141,131.636 378.77,132.839 376.788,127.402 C375.407,123.613 373.052,123.459 378.475,111.702 C383.897,99.944 381.078,68.945 384.915,75.507 C384.915,75.507 384.915,75.507 384.915,75.507 C384.915,75.507 384.915,75.507 384.915,75.507 C386.576,78.348 385.325,88.963 387.021,99.105 C389.242,112.385 394.219,125.473 394.219,125.473 L399.327,155.856 z" fill="#F3C9C9"/>
      <path d="M399.327,155.856 C399.327,155.856 394.634,141.23 389.387,136.433 C384.141,131.636 378.77,132.839 376.788,127.402 C375.407,123.613 373.052,123.459 378.475,111.702 C383.897,99.944 381.078,68.945 384.915,75.507 C384.915,75.507 384.915,75.507 384.915,75.507 C384.915,75.507 384.915,75.507 384.915,75.507 C386.576,78.348 385.325,88.963 387.021,99.105 C389.242,112.385 394.219,125.473 394.219,125.473 L399.327,155.856 z" fill-opacity="0" stroke="#000000" stroke-width="3"/>
    </g>
    <path d="M383.024,114.733 C387.113,113.633 388.294,116.215 389.299,119.949 C390.303,123.682 390.751,127.152 386.662,128.252 C382.573,129.353 379.732,126.872 378.727,123.139 C377.723,119.405 378.935,115.834 383.024,114.733 z" fill="#4917E3"/>
    <g>
      <path d="M478.833,175.167 C478.833,175.167 462.965,178.526 456.243,180.839 C449.521,183.151 448.008,188.443 442.285,187.583 C438.297,186.984 437.036,188.977 429.304,178.592 C421.573,168.206 393.002,155.853 400.6,155.622 C400.6,155.622 400.6,155.622 400.6,155.622 C400.6,155.622 400.6,155.622 400.6,155.622 C403.89,155.522 412.612,161.699 422.33,165.061 C435.055,169.462 452.167,168.5 452.167,168.5 L478.833,175.167 z" fill="#F3C9C9"/>
      <path d="M478.833,175.167 C478.833,175.167 462.965,178.526 456.243,180.839 C449.521,183.151 448.008,188.443 442.285,187.583 C438.297,186.984 437.036,188.977 429.304,178.592 C421.573,168.206 393.002,155.853 400.6,155.622 C400.6,155.622 400.6,155.622 400.6,155.622 C400.6,155.622 400.6,155.622 400.6,155.622 C403.89,155.522 412.612,161.699 422.33,165.061 C435.055,169.462 452.167,168.5 452.167,168.5 L478.833,175.167 z" fill-opacity="0" stroke="#000000" stroke-width="3"/>
    </g>
    <path d="M434.321,175.347 C435.31,171.23 438.143,171.428 441.902,172.331 C445.661,173.235 448.923,174.502 447.933,178.619 C446.944,182.736 443.406,184.044 439.647,183.141 C435.888,182.237 433.331,179.464 434.321,175.347 z" fill="#4917E3"/>
    <g>
      <path d="M577.083,189.886 C577.083,189.886 561.734,190.451 555.697,194.205 C549.661,197.96 549.367,203.456 543.596,203.894 C539.576,204.2 538.791,206.425 528.937,198.027 C519.083,189.628 478.033,174.769 478.033,174.769 L518.976,182.352 L546.451,186.591 L577.083,189.886 z" fill="#F3C9C9"/>
      <path d="M577.083,189.886 C577.083,189.886 561.734,190.451 555.697,194.205 C549.661,197.96 549.367,203.456 543.596,203.894 C539.576,204.2 538.791,206.425 528.937,198.027 C519.083,189.628 478.033,174.769 478.033,174.769 L518.976,182.352 L546.451,186.591 L577.083,189.886 z" fill-opacity="0" stroke="#000000" stroke-width="3"/>
    </g>
    <path d="M530.595,191.125 C531.839,187.078 534.654,187.453 538.349,188.589 C542.045,189.725 545.221,191.193 543.976,195.241 C542.731,199.288 539.119,200.373 535.424,199.236 C531.728,198.1 529.35,195.172 530.595,191.125 z" fill="#4917E3"/>
    <g>
      <path d="M674.152,206.886 C674.152,206.886 658.794,207.161 652.688,210.801 C646.582,214.44 646.184,219.93 640.406,220.259 C636.381,220.489 635.554,222.699 625.86,214.116 C616.167,205.533 575.404,189.901 575.404,189.901 L616.198,198.256 L643.587,203.013 L674.152,206.886 z" fill="#F3C9C9"/>
      <path d="M674.152,206.886 C674.152,206.886 658.794,207.161 652.688,210.801 C646.582,214.44 646.184,219.93 640.406,220.259 C636.381,220.489 635.554,222.699 625.86,214.116 C616.167,205.533 575.404,189.901 575.404,189.901 L616.198,198.256 L643.587,203.013 L674.152,206.886 z" fill-opacity="0" stroke="#000000" stroke-width="3"/>
    </g>
    <path d="M626.678,207.19 C627.923,203.143 630.738,203.517 634.433,204.654 C638.128,205.79 641.304,207.258 640.059,211.305 C638.815,215.352 635.202,216.438 631.507,215.301 C627.812,214.165 625.433,211.237 626.678,207.19 z" fill="#4917E3"/>
    <g>
      <path d="M772.217,222.502 C772.217,222.502 756.868,223.068 750.831,226.822 C744.795,230.576 744.501,236.072 738.731,236.511 C734.71,236.817 733.925,239.042 724.071,230.643 C714.217,222.245 673.167,207.385 673.167,207.385 L714.11,214.969 L741.585,219.208 L772.217,222.502 z" fill="#F3C9C9"/>
      <path d="M772.217,222.502 C772.217,222.502 756.868,223.068 750.831,226.822 C744.795,230.576 744.501,236.072 738.731,236.511 C734.71,236.817 733.925,239.042 724.071,230.643 C714.217,222.245 673.167,207.385 673.167,207.385 L714.11,214.969 L741.585,219.208 L772.217,222.502 z" fill-opacity="0" stroke="#000000" stroke-width="3"/>
    </g>
    <path d="M725.729,223.742 C726.973,219.695 729.788,220.069 733.484,221.206 C737.179,222.342 740.355,223.81 739.11,227.857 C737.866,231.904 734.253,232.989 730.558,231.853 C726.863,230.717 724.484,227.789 725.729,223.742 z" fill="#4917E3"/>
    <g>
      <path d="M871.268,238.058 C871.268,238.058 855.918,238.623 849.882,242.377 C843.846,246.132 843.552,251.628 837.781,252.066 C833.76,252.372 832.976,254.597 823.122,246.199 C813.268,237.8 772.217,222.941 772.217,222.941 L813.161,230.524 L840.635,234.763 L871.268,238.058 z" fill="#F3C9C9"/>
      <path d="M871.268,238.058 C871.268,238.058 855.918,238.623 849.882,242.377 C843.846,246.132 843.552,251.628 837.781,252.066 C833.76,252.372 832.976,254.597 823.122,246.199 C813.268,237.8 772.217,222.941 772.217,222.941 L813.161,230.524 L840.635,234.763 L871.268,238.058 z" fill-opacity="0" stroke="#000000" stroke-width="3"/>
    </g>
    <path d="M824.779,239.297 C826.024,235.25 828.839,235.625 832.534,236.761 C836.229,237.898 839.406,239.366 838.161,243.413 C836.916,247.46 833.304,248.545 829.609,247.409 C825.913,246.272 823.535,243.344 824.779,239.297 z" fill="#4917E3"/>
    <g>
      <path d="M967.5,252.999 C967.5,252.999 952.15,253.564 946.114,257.319 C940.078,261.073 939.784,266.569 934.013,267.008 C929.992,267.313 929.208,269.539 919.353,261.14 C909.499,252.741 868.449,237.882 868.449,237.882 L909.393,245.465 L936.867,249.704 L967.5,252.999 z" fill="#F3C9C9"/>
      <path d="M967.5,252.999 C967.5,252.999 952.15,253.564 946.114,257.319 C940.078,261.073 939.784,266.569 934.013,267.008 C929.992,267.313 929.208,269.539 919.353,261.14 C909.499,252.741 868.449,237.882 868.449,237.882 L909.393,245.465 L936.867,249.704 L967.5,252.999 z" fill-opacity="0" stroke="#000000" stroke-width="3"/>
    </g>
    <path d="M923.011,253.238 C924.256,249.191 927.071,249.566 930.766,250.702 C934.461,251.839 937.637,253.307 936.393,257.354 C935.148,261.401 931.535,262.486 927.84,261.35 C924.145,260.213 921.767,257.286 923.011,253.238 z" fill="#4917E3"/>
    <g>
      <path d="M704.178,270.5 C700,270 698,314.688 698.5,323.844 C699,333 696.5,334.166 688.5,342.333 C680.5,350.5 656.773,347.5 651.886,350.5 C647,353.5 649.5,354 645.5,371 C641.5,388 654.5,390.5 684.5,388.5 C714.5,386.5 710,387 710,387 C710,387 715.291,387.5 725.895,379.5 C736.5,371.5 733.291,370.293 731.895,359.396 C730.5,348.5 707.356,335.471 704.178,325.486 C701,315.5 708.356,271.001 704.178,270.5 z" fill="#F3C9C9"/>
      <path d="M704.178,270.5 C700,270 698,314.688 698.5,323.844 C699,333 696.5,334.166 688.5,342.333 C680.5,350.5 656.773,347.5 651.886,350.5 C647,353.5 649.5,354 645.5,371 C641.5,388 654.5,390.5 684.5,388.5 C714.5,386.5 710,387 710,387 C710,387 715.291,387.5 725.895,379.5 C736.5,371.5 733.291,370.293 731.895,359.396 C730.5,348.5 707.356,335.471 704.178,325.486 C701,315.5 708.356,271.001 704.178,270.5 z" fill-opacity="0" stroke="#000000" stroke-width="3" stroke-opacity="0.992"/>
    </g>
    <path d="M694.681,370.761 C692.39,377.661 687.979,377.045 682.24,375.14 C676.502,373.234 671.609,370.759 673.901,363.86 C676.192,356.96 681.98,355.084 687.719,356.99 C693.457,358.895 696.973,363.861 694.681,370.761 z" fill="#4917E3"/>
    <g>
      <g>
        <path d="M880.67,369.833 C880.67,369.833 888.163,383.242 894.254,386.906 C900.346,390.571 905.372,388.33 908.391,393.268 C910.494,396.708 912.833,396.393 909.843,408.991 C906.853,421.589 912.316,464.902 912.316,464.902 L900.423,424.997 L891.686,398.606 L880.67,369.833 z" fill="#F3C9C9"/>
        <path d="M880.67,369.833 C880.67,369.833 888.163,383.242 894.254,386.906 C900.346,390.571 905.372,388.33 908.391,393.268 C910.494,396.708 912.833,396.393 909.843,408.991 C906.853,421.589 912.316,464.902 912.316,464.902 L900.423,424.997 L891.686,398.606 L880.67,369.833 z" fill-opacity="0" stroke="#000000" stroke-width="3"/>
      </g>
      <path d="M901.678,407.019 C897.508,407.754 896.56,405.077 895.889,401.27 C895.218,397.462 895.079,393.966 899.249,393.231 C903.419,392.496 906.03,395.219 906.701,399.026 C907.372,402.833 905.848,406.284 901.678,407.019 z" fill="#4917E3"/>
    </g>
    <g>
      <g>
        <path d="M911.878,461.201 C911.878,461.201 914.668,476.305 919.26,481.732 C923.851,487.159 929.332,486.651 930.604,492.296 C931.491,496.23 933.807,496.683 926.93,507.653 C920.052,518.623 911.316,561.397 911.316,561.397 L912.869,519.786 L913.07,491.987 L911.878,461.201 z" fill="#F3C9C9"/>
        <path d="M911.878,461.201 C911.878,461.201 914.668,476.305 919.26,481.732 C923.851,487.159 929.332,486.651 930.604,492.296 C931.491,496.23 933.807,496.683 926.93,507.653 C920.052,518.623 911.316,561.397 911.316,561.397 L912.869,519.786 L913.07,491.987 L911.878,461.201 z" fill-opacity="0" stroke="#000000" stroke-width="3"/>
      </g>
      <path d="M919.644,503.297 C915.459,502.654 915.42,499.815 916.008,495.993 C916.595,492.172 917.586,488.817 921.771,489.46 C925.956,490.103 927.555,493.52 926.967,497.341 C926.38,501.162 923.829,503.941 919.644,503.297 z" fill="#4917E3"/>
    </g>
    <g>
      <g>
        <path d="M911.878,559.304 C911.878,559.304 914.668,574.409 919.26,579.835 C923.851,585.262 929.332,584.754 930.604,590.399 C931.491,594.333 933.807,594.786 926.93,605.756 C920.052,616.726 911.316,659.5 911.316,659.5 L912.869,617.889 L913.07,590.09 L911.878,559.304 z" fill="#F3C9C9"/>
        <path d="M911.878,559.304 C911.878,559.304 914.668,574.409 919.26,579.835 C923.851,585.262 929.332,584.754 930.604,590.399 C931.491,594.333 933.807,594.786 926.93,605.756 C920.052,616.726 911.316,659.5 911.316,659.5 L912.869,617.889 L913.07,590.09 L911.878,559.304 z" fill-opacity="0" stroke="#000000" stroke-width="3"/>
      </g>
      <path d="M919.644,601.4 C915.459,600.757 915.42,597.918 916.008,594.096 C916.595,590.275 917.586,586.92 921.771,587.563 C925.956,588.206 927.555,591.623 926.967,595.444 C926.38,599.265 923.829,602.044 919.644,601.4 z" fill="#4917E3"/>
    </g>
    <g>
      <g>
        <path d="M911.878,659.5 C911.878,659.5 914.668,674.605 919.26,680.031 C923.851,685.458 929.332,684.95 930.604,690.596 C931.491,694.529 933.807,694.982 926.93,705.952 C920.052,716.922 911.316,759.696 911.316,759.696 L912.869,718.085 L913.07,690.286 L911.878,659.5 z" fill="#F3C9C9"/>
        <path d="M911.878,659.5 C911.878,659.5 914.668,674.605 919.26,680.031 C923.851,685.458 929.332,684.95 930.604,690.596 C931.491,694.529 933.807,694.982 926.93,705.952 C920.052,716.922 911.316,759.696 911.316,759.696 L912.869,718.085 L913.07,690.286 L911.878,659.5 z" fill-opacity="0" stroke="#000000" stroke-width="3"/>
      </g>
      <path d="M919.644,701.597 C915.459,700.953 915.42,698.114 916.008,694.293 C916.595,690.472 917.586,687.116 921.771,687.759 C925.956,688.402 927.555,691.819 926.967,695.64 C926.38,699.461 923.829,702.24 919.644,701.597 z" fill="#4917E3"/>
    </g>
    <g>
      <g>
        <path d="M994.751,763.526 C994.751,763.526 991.515,748.511 986.765,743.222 C982.014,737.934 976.551,738.604 975.112,732.999 C974.109,729.093 971.781,728.709 978.33,717.54 C984.88,706.371 992.345,663.357 992.345,663.357 L992.026,704.996 L992.648,732.788 L994.751,763.526 z" fill="#F3C9C9"/>
        <path d="M994.751,763.526 C994.751,763.526 991.515,748.511 986.765,743.222 C982.014,737.934 976.551,738.604 975.112,732.999 C974.109,729.093 971.781,728.709 978.33,717.54 C984.88,706.371 992.345,663.357 992.345,663.357 L992.026,704.996 L992.648,732.788 L994.751,763.526 z" fill-opacity="0" stroke="#000000" stroke-width="3"/>
      </g>
      <path d="M984.727,720.693 C988.929,721.212 989.052,724.049 988.578,727.886 C988.104,731.723 987.213,735.107 983.011,734.587 C978.809,734.068 977.109,730.701 977.583,726.864 C978.057,723.027 980.525,720.174 984.727,720.693 z" fill="#4917E3"/>
    </g>
    <g>
      <g>
        <path d="M991.833,663.357 C991.833,663.357 988.597,648.342 983.847,643.054 C979.096,637.766 973.633,638.435 972.194,632.83 C971.191,628.924 968.863,628.54 975.412,617.371 C981.962,606.202 989.427,563.188 989.427,563.188 L989.108,604.827 L989.73,632.62 L991.833,663.357 z" fill="#F3C9C9"/>
        <path d="M991.833,663.357 C991.833,663.357 988.597,648.342 983.847,643.054 C979.096,637.766 973.633,638.435 972.194,632.83 C971.191,628.924 968.863,628.54 975.412,617.371 C981.962,606.202 989.427,563.188 989.427,563.188 L989.108,604.827 L989.73,632.62 L991.833,663.357 z" fill-opacity="0" stroke="#000000" stroke-width="3"/>
      </g>
      <path d="M981.809,620.524 C986.011,621.043 986.134,623.88 985.66,627.717 C985.186,631.554 984.295,634.938 980.093,634.419 C975.891,633.9 974.191,630.532 974.665,626.695 C975.139,622.858 977.607,620.005 981.809,620.524 z" fill="#4917E3"/>
    </g>
    <g>
      <g>
        <path d="M989.833,563.071 C989.833,563.071 986.597,548.056 981.847,542.768 C977.096,537.479 971.633,538.149 970.194,532.544 C969.191,528.638 966.863,528.254 973.412,517.085 C979.962,505.916 987.427,462.902 987.427,462.902 L987.108,504.541 L987.73,532.333 L989.833,563.071 z" fill="#F3C9C9"/>
        <path d="M989.833,563.071 C989.833,563.071 986.597,548.056 981.847,542.768 C977.096,537.479 971.633,538.149 970.194,532.544 C969.191,528.638 966.863,528.254 973.412,517.085 C979.962,505.916 987.427,462.902 987.427,462.902 L987.108,504.541 L987.73,532.333 L989.833,563.071 z" fill-opacity="0" stroke="#000000" stroke-width="3"/>
      </g>
      <path d="M979.809,520.238 C984.011,520.757 984.134,523.594 983.66,527.431 C983.186,531.268 982.295,534.652 978.093,534.133 C973.891,533.614 972.191,530.246 972.665,526.409 C973.139,522.572 975.607,519.719 979.809,520.238 z" fill="#4917E3"/>
    </g>
    <g>
      <g>
        <path d="M1084.725,356.613 C1084.725,356.613 1069.86,352.746 1064.777,347.777 C1059.694,342.807 1060.594,337.378 1055.054,335.703 C1051.194,334.536 1044.214,333.087 1034.519,341.686 C1024.823,350.285 999.09,361.489 1000.722,364.634 C1016.395,362.292 1009.835,361.173 1025.055,356.761 C1040.275,352.35 1054.481,355.88 1054.481,355.88 L1084.725,356.613 z" fill="#F3C9C9"/>
        <path d="M1084.725,356.613 C1084.725,356.613 1069.86,352.746 1064.777,347.777 C1059.694,342.807 1060.594,337.378 1055.054,335.703 C1051.194,334.536 1044.214,333.087 1034.519,341.686 C1024.823,350.285 999.09,361.489 1000.722,364.634 C1016.395,362.292 1009.835,361.173 1025.055,356.761 C1040.275,352.35 1054.481,355.88 1054.481,355.88 L1084.725,356.613 z" fill-opacity="0" stroke="#000000" stroke-width="3"/>
      </g>
      <path d="M1042.612,345.195 C1042.953,349.415 1045.782,349.658 1049.636,349.346 C1053.489,349.035 1056.907,348.287 1056.566,344.067 C1056.225,339.847 1052.932,338.007 1049.079,338.318 C1045.225,338.63 1042.271,340.975 1042.612,345.195 z" fill="#4917E3"/>
    </g>
    <g>
      <g>
        <path d="M1000.292,364.673 C1000.292,364.673 995.529,379.276 990.26,384.047 C984.991,388.819 979.626,387.591 977.617,393.018 C976.218,396.8 973.863,396.943 979.229,408.726 C984.595,420.509 987.598,464.063 987.598,464.063 L991.562,422.612 L995.039,395.031 L1000.292,364.673 z" fill="#F3C9C9"/>
        <path d="M1000.292,364.673 C1000.292,364.673 995.529,379.276 990.26,384.047 C984.991,388.819 979.626,387.591 977.617,393.018 C976.218,396.8 973.863,396.943 979.229,408.726 C984.595,420.509 987.598,464.063 987.598,464.063 L991.562,422.612 L995.039,395.031 L1000.292,364.673 z" fill-opacity="0" stroke="#000000" stroke-width="3"/>
      </g>
      <path d="M985.965,405.302 C990.198,405.218 990.612,402.408 990.535,398.543 C990.458,394.678 989.92,391.22 985.687,391.305 C981.453,391.389 979.417,394.564 979.494,398.429 C979.571,402.294 981.732,405.386 985.965,405.302 z" fill="#4917E3"/>
    </g>
    <g>
      <path d="M1065.551,267.966 C1065.551,267.966 1050.201,268.531 1044.165,272.286 C1038.128,276.04 1037.834,281.536 1032.064,281.975 C1028.043,282.28 1027.258,284.506 1017.404,276.107 C1007.55,267.708 966.5,252.849 966.5,252.849 L1007.444,260.432 L1034.918,264.671 L1065.551,267.966 z" fill="#F3C9C9"/>
      <path d="M1065.551,267.966 C1065.551,267.966 1050.201,268.531 1044.165,272.286 C1038.128,276.04 1037.834,281.536 1032.064,281.975 C1028.043,282.28 1027.258,284.506 1017.404,276.107 C1007.55,267.708 966.5,252.849 966.5,252.849 L1007.444,260.432 L1034.918,264.671 L1065.551,267.966 z" fill-opacity="0" stroke="#000000" stroke-width="3"/>
    </g>
    <path d="M1021.062,268.206 C1022.307,264.158 1025.122,264.533 1028.817,265.669 C1032.512,266.806 1035.688,268.274 1034.443,272.321 C1033.199,276.368 1029.586,277.453 1025.891,276.317 C1022.196,275.18 1019.817,272.253 1021.062,268.206 z" fill="#4917E3"/>
    <text transform="matrix(0.972, -0.234, 0.234, 0.972, 149.071, 249.771)">
      <tspan x="-125.55" y="10.5" font-family="HelveticaNeue-Bold" font-size="30" fill="#090000">Subcapsule sinus</tspan>
    </text>
    <text transform="matrix(1, 0, 0, 1, 353.26, 532.121)">
      <tspan x="-48.06" y="10.5" font-family="HelveticaNeue-Bold" font-size="30" fill="#FAF6F6">Cortex</tspan>
    </text>
    <g>
      <g>
        <path d="M286.2,-10.146 C286.2,-10.146 288.953,4.966 293.531,10.404 C298.109,15.842 303.59,15.348 304.849,20.997 C305.726,24.933 308.041,25.391 301.136,36.344 C294.231,47.297 292.997,78.399 290.045,71.395 C290.045,71.395 290.045,71.395 290.045,71.395 C290.045,71.395 290.045,71.395 290.045,71.395 C288.767,68.362 291.388,58 291.025,47.724 C290.548,34.267 287.315,20.644 287.315,20.644 L286.2,-10.146 z" fill="#F3C9C9"/>
        <path d="M286.2,-10.146 C286.2,-10.146 288.953,4.966 293.531,10.404 C298.109,15.842 303.59,15.348 304.849,20.997 C305.726,24.933 308.041,25.391 301.136,36.344 C294.231,47.297 292.997,78.399 290.045,71.395 C290.045,71.395 290.045,71.395 290.045,71.395 C290.045,71.395 290.045,71.395 290.045,71.395 C288.767,68.362 291.388,58 291.025,47.724 C290.548,34.267 287.315,20.644 287.315,20.644 L286.2,-10.146 z" fill-opacity="0" stroke="#000000" stroke-width="3"/>
      </g>
      <path d="M296.089,31.686 C291.892,32.246 291.056,29.532 290.545,25.7 C290.034,21.868 290.042,18.369 294.239,17.809 C298.436,17.25 300.931,20.079 301.441,23.911 C301.952,27.743 300.286,31.127 296.089,31.686 z" fill="#4917E3"/>
    </g>
    <g>
      <g>
        <path d="M385,74.605 C385,74.605 380.307,59.98 375.06,55.183 C369.814,50.386 364.444,51.588 362.461,46.151 C361.08,42.363 358.725,42.209 364.148,30.451 C369.57,18.694 366.751,-12.305 370.588,-5.743 C370.588,-5.743 370.588,-5.743 370.588,-5.743 C370.588,-5.743 370.588,-5.743 370.588,-5.743 C372.25,-2.902 370.998,7.713 372.694,17.854 C374.916,31.134 379.892,44.222 379.892,44.222 L385,74.605 z" fill="#F3C9C9"/>
        <path d="M385,74.605 C385,74.605 380.307,59.98 375.06,55.183 C369.814,50.386 364.444,51.588 362.461,46.151 C361.08,42.363 358.725,42.209 364.148,30.451 C369.57,18.694 366.751,-12.305 370.588,-5.743 C370.588,-5.743 370.588,-5.743 370.588,-5.743 C370.588,-5.743 370.588,-5.743 370.588,-5.743 C372.25,-2.902 370.998,7.713 372.694,17.854 C374.916,31.134 379.892,44.222 379.892,44.222 L385,74.605 z" fill-opacity="0" stroke="#000000" stroke-width="3"/>
      </g>
      <path d="M368.697,33.483 C372.786,32.382 373.967,34.965 374.972,38.698 C375.976,42.431 376.424,45.902 372.335,47.002 C368.247,48.102 365.405,45.621 364.4,41.888 C363.396,38.155 364.608,34.583 368.697,33.483 z" fill="#4917E3"/>
    </g>
    <text transform="matrix(1, 0, 0, 1, 478.19, 364.583)">
      <tspan x="-90" y="10.25" font-family="HelveticaNeue-Bold" font-size="30" fill="#FAF6F6">Macrophage</tspan>
    </text>
    <path d="M580,364.673 L661.886,362.339" fill-opacity="0" stroke="#FFFFFF" stroke-width="3"/>
    <text transform="matrix(1, 0, 0, 1, 715.385, 608.819)">
      <tspan x="-109.08" y="9.333" font-family="HelveticaNeue-Bold" font-size="30" fill="#FAF6F6">Endothelial cell</tspan>
    </text>
    <path d="M834.28,608.992 L916.167,606.658" fill-opacity="0" stroke="#FFFFFF" stroke-width="3"/>
    <g>
      <path d="M700.537,279.599 L687.376,276.371" fill-opacity="0" stroke="#000000" stroke-width="3"/>
      <path d="M676.239,281.69 C676.239,281.69 684.887,285.37 687.247,276.714 C689.607,268.058 680.643,266.114 680.643,266.114" fill-opacity="0" stroke="#000000" stroke-width="3"/>
    </g>
    <path d="M678.5,279.463 C675.186,279.463 672.5,276.777 672.5,273.463 C672.5,270.149 675.186,267.463 678.5,267.463 C681.814,267.463 684.5,270.149 684.5,273.463 C684.5,276.777 681.814,279.463 678.5,279.463 z" fill="#EA0650"/>
    <g>
      <g>
        <path d="M647.164,383.833 L640.962,395.882" fill-opacity="0" stroke="#000000" stroke-width="3"/>
        <path d="M643.543,407.951 C643.543,407.951 649.135,400.396 641.266,396.087 C633.397,391.778 629.42,400.043 629.42,400.043" fill-opacity="0" stroke="#000000" stroke-width="3"/>
      </g>
      <path d="M642.006,404.364 C641.235,407.586 637.997,409.574 634.775,408.803 C631.552,408.031 629.565,404.794 630.336,401.571 C631.107,398.348 634.345,396.361 637.567,397.132 C640.79,397.903 642.777,401.141 642.006,404.364 z" fill="#EA0650"/>
    </g>
    <g>
      <path d="M693.5,282.781 C693.5,282.781 692.5,312.5 689,329.276 C678.5,345 659.773,330.166 646.386,343.833 C637.281,353.129 634.05,363.191 635.305,371.694" fill-opacity="0" stroke="#000000" stroke-width="2" stroke-dasharray="6,4"/>
      <path d="M631.997,373.114 L639.091,380.516 L638.613,370.274 z" fill="#000000" fill-opacity="1" stroke="#000000" stroke-width="2" stroke-opacity="1"/>
    </g>
    <path d="M608.989,241.749 C605.675,241.749 602.989,239.063 602.989,235.749 C602.989,232.435 605.675,229.749 608.989,229.749 C612.302,229.749 614.989,232.435 614.989,235.749 C614.989,239.063 612.302,241.749 608.989,241.749 z" fill="#EA0650"/>
    <path d="M537.256,226.576 C533.942,226.576 531.256,223.89 531.256,220.576 C531.256,217.263 533.942,214.576 537.256,214.576 C540.57,214.576 543.256,217.263 543.256,220.576 C543.256,223.89 540.57,226.576 537.256,226.576 z" fill="#EA0650"/>
    <path d="M551.5,241.749 L562.99,241.749 L562.99,253.239 L551.5,253.239 L551.5,241.749 z" fill="#EA0650"/>
    <path d="M591.498,255.51 L602.989,255.51 L602.989,267 L591.498,267 L591.498,255.51 z" fill="#EA0650"/>
    <text transform="matrix(1, 0, 0, 1, 415.237, 218.882)">
      <tspan x="-54.99" y="10.5" font-family="HelveticaNeue-Bold" font-size="30" fill="#000000">Antigen</tspan>
    </text>
    <path d="M477.614,222.243 L529.5,220.682" fill-opacity="0" stroke="#010000" stroke-width="3"/>
    <g>
      <g>
        <path d="M415.397,613.508 C415.397,613.508 429.397,593.508 438.397,590.508 C447.397,587.508 459.878,593.008 465.387,597.508 C470.897,602.008 481.897,610.008 481.897,619.008 C481.897,628.008 455.968,649.508 455.968,649.508 C455.968,649.508 426.397,671.616 414.397,672.812 C402.397,674.008 398.397,669.508 396.397,660.508 C394.397,651.508 415.397,613.508 415.397,613.508 z" fill="#F3C9C9"/>
        <path d="M415.397,613.508 C415.397,613.508 429.397,593.508 438.397,590.508 C447.397,587.508 459.878,593.008 465.387,597.508 C470.897,602.008 481.897,610.008 481.897,619.008 C481.897,628.008 455.968,649.508 455.968,649.508 C455.968,649.508 426.397,671.616 414.397,672.812 C402.397,674.008 398.397,669.508 396.397,660.508 C394.397,651.508 415.397,613.508 415.397,613.508 z" fill-opacity="0" stroke="#010000" stroke-width="3"/>
      </g>
      <path d="M432.445,648.857 C430.153,655.757 420.636,660.414 414.897,658.508 C409.159,656.602 409.372,648.856 411.664,641.956 C413.955,635.056 419.743,633.18 425.482,635.086 C431.22,636.992 434.736,641.957 432.445,648.857 z" fill="#4917E3"/>
      <g>
        <path d="M458.457,595.116 L465.739,583.688" fill-opacity="0" stroke="#000000" stroke-width="3"/>
        <path d="M464.276,571.433 C464.276,571.433 458.015,578.442 465.455,583.456 C472.895,588.469 477.614,580.604 477.614,580.604" fill-opacity="0" stroke="#000000" stroke-width="3"/>
      </g>
      <g>
        <path d="M476.309,608.175 L485.144,597.899" fill-opacity="0" stroke="#000000" stroke-width="3"/>
        <path d="M485.441,585.561 C485.441,585.561 478.246,591.607 484.896,597.628 C491.547,603.65 497.337,596.536 497.337,596.536" fill-opacity="0" stroke="#000000" stroke-width="3"/>
      </g>
    </g>
    <g>
      <g>
        <path d="M578.086,444.506 C578.086,444.506 592.086,424.506 601.086,421.506 C610.086,418.506 622.566,424.006 628.076,428.506 C633.586,433.006 644.586,441.006 644.586,450.006 C644.586,459.006 618.656,480.506 618.656,480.506 C618.656,480.506 589.086,502.614 577.086,503.81 C565.086,505.006 561.086,500.506 559.086,491.506 C557.086,482.506 578.086,444.506 578.086,444.506 z" fill="#F3C9C9"/>
        <path d="M578.086,444.506 C578.086,444.506 592.086,424.506 601.086,421.506 C610.086,418.506 622.566,424.006 628.076,428.506 C633.586,433.006 644.586,441.006 644.586,450.006 C644.586,459.006 618.656,480.506 618.656,480.506 C618.656,480.506 589.086,502.614 577.086,503.81 C565.086,505.006 561.086,500.506 559.086,491.506 C557.086,482.506 578.086,444.506 578.086,444.506 z" fill-opacity="0" stroke="#010000" stroke-width="3"/>
      </g>
      <path d="M595.134,479.855 C592.842,486.755 583.324,491.412 577.586,489.506 C571.848,487.601 572.061,479.854 574.353,472.954 C576.644,466.054 582.432,464.178 588.171,466.084 C593.909,467.99 597.425,472.956 595.134,479.855 z" fill="#4917E3"/>
      <g>
        <path d="M621.145,426.115 L628.428,414.686" fill-opacity="0" stroke="#000000" stroke-width="3"/>
        <path d="M626.965,402.431 C626.965,402.431 620.704,409.44 628.144,414.454 C635.584,419.468 640.302,411.603 640.302,411.603" fill-opacity="0" stroke="#000000" stroke-width="3"/>
      </g>
      <g>
        <path d="M638.998,439.173 L647.833,428.897" fill-opacity="0" stroke="#000000" stroke-width="3"/>
        <path d="M648.129,416.559 C648.129,416.559 640.934,422.605 647.585,428.627 C654.236,434.648 660.026,427.535 660.026,427.535" fill-opacity="0" stroke="#000000" stroke-width="3"/>
      </g>
    </g>
    <text transform="matrix(1, 0, 0, 1, 292.746, 621.717)">
      <tspan x="-44.13" y="10.25" font-family="HelveticaNeue-Bold" font-size="30" fill="#FAF6F6">B-Cell</tspan>
    </text>
    <path d="M346.906,621.807 L428.792,619.474" fill-opacity="0" stroke="#FFFFFF" stroke-width="3"/>
  </g>
</svg>
