<?xml version="1.0" encoding="UTF-8"?>
<!DOCTYPE svg PUBLIC "-//W3C//DTD SVG 1.1//EN" "http://www.w3.org/Graphics/SVG/1.1/DTD/svg11.dtd">
<svg version="1.1" xmlns="http://www.w3.org/2000/svg" xmlns:xlink="http://www.w3.org/1999/xlink" x="0" y="0" width="1024" height="768" viewBox="0, 0, 1024, 768">
  <defs>
    <radialGradient id="Gradient_1" gradientUnits="userSpaceOnUse" cx="308.623" cy="488.422" r="24.965">
      <stop offset="0.014" stop-color="#B51C1C"/>
      <stop offset="0.629" stop-color="#B51C1C"/>
      <stop offset="0.809" stop-color="#B51C1C"/>
      <stop offset="1" stop-color="#C9A9DA"/>
      <stop offset="1" stop-color="#C40D0D" stop-opacity="0"/>
    </radialGradient>
    <radialGradient id="Gradient_2" gradientUnits="userSpaceOnUse" cx="705.695" cy="140.321" r="59.14">
      <stop offset="0.015" stop-color="#9D49D5"/>
      <stop offset="0.626" stop-color="#9E49D5"/>
      <stop offset="0.819" stop-color="#200CD4"/>
      <stop offset="1" stop-color="#1F0CD4"/>
    </radialGradient>
  </defs>
  <g id="Layer_1">
    <path d="M307.831,514.043 C295.244,514.043 285.039,502.542 285.039,488.355 C285.039,474.168 295.244,462.667 307.831,462.667 C320.419,462.667 330.623,474.168 330.623,488.355 C330.623,502.542 320.419,514.043 307.831,514.043 z" fill="url(#Gradient_1)"/>
    <g>
      <path d="M234.487,48.301 L817.123,48.301 L817.123,632.499 L234.487,632.499 L234.487,48.301 z" fill="#E69494"/>
      <g>
        <path d="M377.913,632.999 C377.913,632.999 341.205,385.418 466.948,386.98 C537.615,387.858 542.707,462.738 533.334,531.467 C532.28,584.312 538.802,632.999 538.802,632.999" fill="#B2A7D2"/>
        <path d="M377.913,632.999 C377.913,632.999 341.205,385.418 466.948,386.98 C537.615,387.858 542.707,462.738 533.334,531.467 C532.28,584.312 538.802,632.999 538.802,632.999" fill-opacity="0" stroke="#000000" stroke-width="1"/>
      </g>
      <g>
        <path d="M533.334,454.928 C533.334,454.928 581.757,440.089 608.312,406.505 C634.866,372.922 646.061,336.474 654.652,322.416 C663.243,308.358 762.171,254.989 767.639,234.682 C784.3,206.045 817.623,184.697 803.565,132.369 C784.3,69.628 730.671,68.587 698.909,64.161 C667.669,54.528 551.298,83.166 526.305,86.29 C502.094,82.385 475.539,62.859 439.613,68.326 C403.686,66.764 364.635,106.856 364.635,106.856 C364.635,106.856 371.404,116.489 392.629,125.986 C417.224,148.771 409.153,150.333 409.153,150.333 C409.153,150.333 512.247,128.464 552.079,226.091 C593.472,332.309 458.357,386.973 458.357,386.973" fill="#D4DAD2"/>
        <path d="M533.334,454.928 C533.334,454.928 581.757,440.089 608.312,406.505 C634.866,372.922 646.061,336.474 654.652,322.416 C663.243,308.358 762.171,254.989 767.639,234.682 C784.3,206.045 817.623,184.697 803.565,132.369 C784.3,69.628 730.671,68.587 698.909,64.161 C667.669,54.528 551.298,83.166 526.305,86.29 C502.094,82.385 475.539,62.859 439.613,68.326 C403.686,66.764 364.635,106.856 364.635,106.856 C364.635,106.856 371.404,116.489 392.629,125.986 C417.224,148.771 409.153,150.333 409.153,150.333 C409.153,150.333 512.247,128.464 552.079,226.091 C593.472,332.309 458.357,386.973 458.357,386.973" fill-opacity="0" stroke="#000000" stroke-width="1"/>
      </g>
      <g>
        <path d="M497.928,637.165 C499.946,625.384 503.396,591.527 502.875,572.471 C502.354,553.414 489.949,522.251 492.136,510.38 C494.323,498.509 505.426,475.026 504.697,469.507 C503.968,463.988 505.999,432.083 509.513,426.812 C513.028,421.54 565.2,390.573 576.759,372.141 C591.715,353.787 607.166,320.281 610.394,304.973 C617.684,291.228 645.865,273.212 651.007,271.129 C656.149,269.047 691.294,261.861 700.471,259.206 C717.654,253.036 733.518,236.537 734.721,234.209 C738.058,230.094 738.123,220.618 735.292,220.575 C731.907,220.282 731.565,227.751 726.475,232.318 C723.658,235.414 715.863,243.711 703.4,248.399 C676.797,258.405 655.905,258.991 649.445,261.839 C639.747,264.605 617.293,278.614 613.518,284.797 C613.681,279.786 612.217,245.421 612.477,241.451 C614.365,237.709 622.533,229.345 626.015,223.227 C629.497,217.109 628.52,200.415 623.932,200.936 C621.394,201.294 623.737,216.914 621.296,219.745 C618.855,222.576 613.779,228.922 610.459,231.753 C609.19,225.896 597.67,198.072 597.085,193.777 C596.304,188.993 600.209,177.863 600.502,171.16 C601.185,161.462 594.058,152.578 592.496,153.554 C588.884,154.335 593.57,168.882 593.57,168.882 C593.57,168.882 592.496,182.94 590.934,184.6 C590.348,176.009 541.34,123.583 498.97,110.892 C460.505,100.543 425.745,93.828 395.876,118.311 C385.528,132.369 389.237,139.919 386.504,145.126 C383.77,150.333 360.73,170.444 367.955,174.154 C374.008,174.349 383.315,152.676 387.545,155.019 C389.572,156.141 382.16,163.279 379.865,170.639 C377.369,178.644 378.303,191.141 382.403,191.141 C386.504,191.141 383.128,184.178 385.332,176.497 C387.808,167.869 388.954,159.561 392.817,159.184 C395.485,158.924 391.58,176.887 396.266,176.887 C400.953,176.887 399,163.415 398.609,158.729 C400.943,158.169 405.258,163.625 406.81,169.077 C409.934,175.52 407.396,184.893 410.91,184.307 C415.401,183.526 414.425,170.834 412.277,165.758 C411.51,163.945 406.615,159.51 402.71,153.066 C398.457,141.117 400.436,124.035 422.951,118.051 C435.206,114.793 453.28,113.43 473.001,119.483 C504.632,126.902 531.772,145.647 542.186,153.457 C555.008,163.024 586.639,208.323 583.905,217.695 C579.916,216.897 573.166,214.376 566.527,211.447 C559.889,208.518 554.744,198.542 552.079,198.756 C546.416,201.099 556.765,213.595 561.711,216.459 C563.453,218.069 567.214,220.424 572.19,221.795 C577.067,223.14 582.343,221.795 585.858,226.482 C598.159,237.025 593.082,294.039 581.302,319.227 C576.826,328.796 568.87,349.101 547.393,368.626 C523.067,390.315 494.088,403.772 487.84,413.534 C481.592,423.297 479.575,470.353 481.267,462.738 C482.959,455.123 467.859,498.535 467.209,508.558 C466.558,518.581 472.806,547.869 477.101,561.146 C479.054,572.471 474.368,629.419 475.539,635.603 C476.125,639.833 478.924,641.655 486.408,641.525 C493.112,640.224 492.136,640.809 497.928,637.165 z" fill="#E54041"/>
        <path d="M497.928,637.165 C499.946,625.384 503.396,591.527 502.875,572.471 C502.354,553.414 489.949,522.251 492.136,510.38 C494.323,498.509 505.426,475.026 504.697,469.507 C503.968,463.988 505.999,432.083 509.513,426.812 C513.028,421.54 565.2,390.573 576.759,372.141 C591.715,353.787 607.166,320.281 610.394,304.973 C617.684,291.228 645.865,273.212 651.007,271.129 C656.149,269.047 691.294,261.861 700.471,259.206 C717.654,253.036 733.518,236.537 734.721,234.209 C738.058,230.094 738.123,220.618 735.292,220.575 C731.907,220.282 731.565,227.751 726.475,232.318 C723.658,235.414 715.863,243.711 703.4,248.399 C676.797,258.405 655.905,258.991 649.445,261.839 C639.747,264.605 617.293,278.614 613.518,284.797 C613.681,279.786 612.217,245.421 612.477,241.451 C614.365,237.709 622.533,229.345 626.015,223.227 C629.497,217.109 628.52,200.415 623.932,200.936 C621.394,201.294 623.737,216.914 621.296,219.745 C618.855,222.576 613.779,228.922 610.459,231.753 C609.19,225.896 597.67,198.072 597.085,193.777 C596.304,188.993 600.209,177.863 600.502,171.16 C601.185,161.462 594.058,152.578 592.496,153.554 C588.884,154.335 593.57,168.882 593.57,168.882 C593.57,168.882 592.496,182.94 590.934,184.6 C590.348,176.009 541.34,123.583 498.97,110.892 C460.505,100.543 425.745,93.828 395.876,118.311 C385.528,132.369 389.237,139.919 386.504,145.126 C383.77,150.333 360.73,170.444 367.955,174.154 C374.008,174.349 383.315,152.676 387.545,155.019 C389.572,156.141 382.16,163.279 379.865,170.639 C377.369,178.644 378.303,191.141 382.403,191.141 C386.504,191.141 383.128,184.178 385.332,176.497 C387.808,167.869 388.954,159.561 392.817,159.184 C395.485,158.924 391.58,176.887 396.266,176.887 C400.953,176.887 399,163.415 398.609,158.729 C400.943,158.169 405.258,163.625 406.81,169.077 C409.934,175.52 407.396,184.893 410.91,184.307 C415.401,183.526 414.425,170.834 412.277,165.758 C411.51,163.945 406.615,159.51 402.71,153.066 C398.457,141.117 400.436,124.035 422.951,118.051 C435.206,114.793 453.28,113.43 473.001,119.483 C504.632,126.902 531.772,145.647 542.186,153.457 C555.008,163.024 586.639,208.323 583.905,217.695 C579.916,216.897 573.166,214.376 566.527,211.447 C559.889,208.518 554.744,198.542 552.079,198.756 C546.416,201.099 556.765,213.595 561.711,216.459 C563.453,218.069 567.214,220.424 572.19,221.795 C577.067,223.14 582.343,221.795 585.858,226.482 C598.159,237.025 593.082,294.039 581.302,319.227 C576.826,328.796 568.87,349.101 547.393,368.626 C523.067,390.315 494.088,403.772 487.84,413.534 C481.592,423.297 479.575,470.353 481.267,462.738 C482.959,455.123 467.859,498.535 467.209,508.558 C466.558,518.581 472.806,547.869 477.101,561.146 C479.054,572.471 474.368,629.419 475.539,635.603 C476.125,639.833 478.924,641.655 486.408,641.525 C493.112,640.224 492.136,640.809 497.928,637.165 z" fill-opacity="0" stroke="#000000" stroke-width="1"/>
      </g>
      <g>
        <path d="M438.571,632.999 C433.365,617.379 431.803,563.098 428.679,537.716 C427.209,527.269 430.482,495.53 431.803,478.358 C434.536,442.822 457.576,428.374 438.571,415.487 C416.963,405.724 409.934,428.894 409.934,428.894 C409.934,428.894 388.717,416.789 388.587,398.174 C388.456,379.56 406.029,353.787 414.75,338.687 C415.792,316.298 415.42,313.849 421.649,309.269 C434.927,299.506 443.127,306.926 459.529,306.926 C472.806,304.973 479.054,295.992 486.864,291.696 C494.674,287.401 504.827,292.477 505.739,283.626 C504.827,279.981 493.112,278.809 485.432,281.022 C474.368,285.839 474.108,294.169 460.96,296.643 C447.813,299.116 443.127,292.087 426.596,295.601 C415.011,300.287 411.887,305.754 407.982,311.742 C404.858,319.813 409.153,323.067 405.248,334.131 C401.343,345.196 394.314,352.355 394.314,352.355 C394.314,352.355 395.616,331.658 392.231,321.635 C388.847,311.612 372.836,313.174 376.09,284.667 C380.88,274.045 389.628,275.607 400.562,264.361 C413.058,249.678 407.747,248.116 414.1,238.848 C421.493,233.745 426.596,233.433 432.323,229.996 C438.051,226.56 443.674,217.812 439.613,215.521 C436.801,213.751 433.989,220.936 425.555,225.518 C416.182,232.183 413.683,226.872 408.06,234.057 C401.083,242.972 405.248,243.742 400.562,254.364 C395.572,265.675 384.356,266.86 384.356,266.86 C384.356,266.86 383.067,259.05 380.568,253.114 C378.069,247.178 369.322,244.471 370.259,236.765 C367.759,229.684 374.945,216.875 366.559,218.021 C363.073,217.188 361.511,233.745 361.511,239.368 C361.511,244.992 369.53,250.927 375.049,261.237 C380.568,271.546 369.732,276.128 369.058,284.146 C368.384,292.165 369.842,294.56 368.801,298.205 C364.011,299.35 353.389,295.185 347.453,291.957 C341.517,288.728 336.207,281.751 336.519,277.898 C336.831,274.045 335.269,271.65 338.081,268.005 C340.893,264.361 348.078,261.861 346.412,257.592 C343.704,251.865 336.831,259.987 334.957,262.799 C333.082,265.61 332.145,268.734 330.271,270.609 C323.085,268.422 318.087,265.402 313.089,257.071 C308.09,248.74 317.879,234.786 318.295,228.955 C320.274,222.186 317.775,220.936 315.9,211.877 C315.588,205.629 322.148,196.256 318.816,195.632 C314.963,194.382 310.798,202.192 309.444,206.566 C308.09,210.939 311.526,221.665 311.526,227.393 C311.526,233.12 309.34,234.682 304.341,242.18 C304.341,254.364 308.715,261.549 307.778,264.361 C303.716,264.361 295.386,266.131 287.159,265.298 C274.663,264.361 269.664,250.302 265.707,255.613 C260.917,262.486 277.162,270.296 283.098,274.67 C290.075,275.711 310.277,270.296 320.274,277.482 C330.271,284.667 335.373,296.955 340.164,299.246 C350.89,304.973 360.887,303.411 372.925,313.825 C403.374,334.027 370.259,382.138 375.96,410.02 C384.161,429.545 395.095,432.279 402.905,449.461 C404.858,466.253 391.58,507.646 395.485,548.259 C398.61,579.5 403.165,626.361 404.207,636.123 C409.544,639.638 413.058,641.473 419.306,641.532 C425.555,641.59 431.022,637.685 438.571,632.999 z" fill="#5687C8"/>
        <path d="M438.571,632.999 C433.365,617.379 431.803,563.098 428.679,537.716 C427.209,527.269 430.482,495.53 431.803,478.358 C434.536,442.822 457.576,428.374 438.571,415.487 C416.963,405.724 409.934,428.894 409.934,428.894 C409.934,428.894 388.717,416.789 388.587,398.174 C388.456,379.56 406.029,353.787 414.75,338.687 C415.792,316.298 415.42,313.849 421.649,309.269 C434.927,299.506 443.127,306.926 459.529,306.926 C472.806,304.973 479.054,295.992 486.864,291.696 C494.674,287.401 504.827,292.477 505.739,283.626 C504.827,279.981 493.112,278.809 485.432,281.022 C474.368,285.839 474.108,294.169 460.96,296.643 C447.813,299.116 443.127,292.087 426.596,295.601 C415.011,300.287 411.887,305.754 407.982,311.742 C404.858,319.813 409.153,323.067 405.248,334.131 C401.343,345.196 394.314,352.355 394.314,352.355 C394.314,352.355 395.616,331.658 392.231,321.635 C388.847,311.612 372.836,313.174 376.09,284.667 C380.88,274.045 389.628,275.607 400.562,264.361 C413.058,249.678 407.747,248.116 414.1,238.848 C421.493,233.745 426.596,233.433 432.323,229.996 C438.051,226.56 443.674,217.812 439.613,215.521 C436.801,213.751 433.989,220.936 425.555,225.518 C416.182,232.183 413.683,226.872 408.06,234.057 C401.083,242.972 405.248,243.742 400.562,254.364 C395.572,265.675 384.356,266.86 384.356,266.86 C384.356,266.86 383.067,259.05 380.568,253.114 C378.069,247.178 369.322,244.471 370.259,236.765 C367.759,229.684 374.945,216.875 366.559,218.021 C363.073,217.188 361.511,233.745 361.511,239.368 C361.511,244.992 369.53,250.927 375.049,261.237 C380.568,271.546 369.732,276.128 369.058,284.146 C368.384,292.165 369.842,294.56 368.801,298.205 C364.011,299.35 353.389,295.185 347.453,291.957 C341.517,288.728 336.207,281.751 336.519,277.898 C336.831,274.045 335.269,271.65 338.081,268.005 C340.893,264.361 348.078,261.861 346.412,257.592 C343.704,251.865 336.831,259.987 334.957,262.799 C333.082,265.61 332.145,268.734 330.271,270.609 C323.085,268.422 318.087,265.402 313.089,257.071 C308.09,248.74 317.879,234.786 318.295,228.955 C320.274,222.186 317.775,220.936 315.9,211.877 C315.588,205.629 322.148,196.256 318.816,195.632 C314.963,194.382 310.798,202.192 309.444,206.566 C308.09,210.939 311.526,221.665 311.526,227.393 C311.526,233.12 309.34,234.682 304.341,242.18 C304.341,254.364 308.715,261.549 307.778,264.361 C303.716,264.361 295.386,266.131 287.159,265.298 C274.663,264.361 269.664,250.302 265.707,255.613 C260.917,262.486 277.162,270.296 283.098,274.67 C290.075,275.711 310.277,270.296 320.274,277.482 C330.271,284.667 335.373,296.955 340.164,299.246 C350.89,304.973 360.887,303.411 372.925,313.825 C403.374,334.027 370.259,382.138 375.96,410.02 C384.161,429.545 395.095,432.279 402.905,449.461 C404.858,466.253 391.58,507.646 395.485,548.259 C398.61,579.5 403.165,626.361 404.207,636.123 C409.544,639.638 413.058,641.473 419.306,641.532 C425.555,641.59 431.022,637.685 438.571,632.999 z" fill-opacity="0" stroke="#000000" stroke-width="1"/>
      </g>
      <g>
        <path d="M708.206,195.284 C664.957,198.045 645.965,173.732 643.262,144.497 C640.622,115.948 658.919,87.066 702.476,83.204 C753.996,78.636 769.471,113.076 772.174,143.131 C774.599,170.094 747.418,192.779 708.206,195.284 z" fill="url(#Gradient_2)"/>
        <path d="M708.206,195.284 C664.957,198.045 645.965,173.732 643.262,144.497 C640.622,115.948 658.919,87.066 702.476,83.204 C753.996,78.636 769.471,113.076 772.174,143.131 C774.599,170.094 747.418,192.779 708.206,195.284 z" fill-opacity="0" stroke="#000000" stroke-width="3"/>
      </g>
    </g>
    <text transform="matrix(1, 0, 0, 1, 307.831, 102.5)">
      <tspan x="-51.768" y="7.5" font-family="HelveticaNeue-Bold" font-size="24" fill="#130101">Red Pulp</tspan>
    </text>
    <text transform="matrix(1, 0, 0, 1, 570.378, 102)">
      <tspan x="-61.536" y="7" font-family="HelveticaNeue-Bold" font-size="24" fill="#130101">White Pulp</tspan>
    </text>
    <text transform="matrix(1, 0, 0, 1, 901.92, 150)">
      <tspan x="-98.71" y="7.5" font-family="HelveticaNeue-Bold" font-size="24" fill="#130101">Germinal Center</tspan>
    </text>
    <path d="M710.957,149.5 L796.623,149.5" fill-opacity="0" stroke="#000000" stroke-width="3"/>
    <text transform="matrix(1, 0, 0, 1, 734.413, 383.667)">
      <tspan x="-80.004" y="6.5" font-family="HelveticaNeue-Bold" font-size="24" fill="#130101">Central Artery</tspan>
    </text>
    <path d="M545.203,385.398 L652.203,385.398" fill-opacity="0" stroke="#000000" stroke-width="3"/>
    <text transform="matrix(1, 0, 0, 1, 700.79, 572.667)">
      <tspan x="-98.892" y="8.5" font-family="HelveticaNeue-Bold" font-size="24" fill="#130101">Trabecular Artery</tspan>
    </text>
    <path d="M486.87,574.167 L593.87,574.167" fill-opacity="0" stroke="#000000" stroke-width="3"/>
    <text transform="matrix(1, 0, 0, 1, 123.413, 239.718)">
      <tspan x="-88.861" y="7.884" font-family="HelveticaNeue-Bold" font-size="24" fill="#130101">Venous Sinusoid</tspan>
    </text>
    <path d="M230.654,240.218 L308.341,240.218" fill-opacity="0" stroke="#000000" stroke-width="3"/>
    <path d="M285.539,187.833 L370.206,186.833" fill-opacity="0" stroke="#000000" stroke-width="3"/>
    <text transform="matrix(1, 0, 0, 1, 195.472, 186.833)">
      <tspan x="-77.666" y="8.5" font-family="HelveticaNeue-Bold" font-size="24" fill="#130101">Splenic Cords</tspan>
    </text>
    <text transform="matrix(1, 0, 0, 1, 247.976, 572.667)">
      <tspan x="-87.996" y="8.5" font-family="HelveticaNeue-Bold" font-size="24" fill="#130101">Trabecular Vein</tspan>
    </text>
    <path d="M346.748,573.167 L410.623,573.167" fill-opacity="0" stroke="#000000" stroke-width="3"/>
    <g>
      <path d="M486.038,685.167 L486.038,663.367" fill-opacity="0" stroke="#E54041" stroke-width="5"/>
      <path d="M491.438,663.367 L486.038,648.967 L480.638,663.367 z" fill="#E54041" fill-opacity="1" stroke="#E54041" stroke-width="5" stroke-opacity="1"/>
    </g>
    <g>
      <path d="M418.957,644.167 L418.957,665.967" fill-opacity="0" stroke="#5687C8" stroke-width="5"/>
      <path d="M413.557,665.967 L418.957,680.367 L424.357,665.967 z" fill="#5687C8" fill-opacity="1" stroke="#5687C8" stroke-width="5" stroke-opacity="1"/>
    </g>
    <text transform="matrix(1, 0, 0, 1, 416.777, 709.667)">
      <tspan x="-8.888" y="-6" font-family="HelveticaNeue-Bold" font-size="16" fill="#130101">To </tspan>
      <tspan x="-17.912" y="13" font-family="HelveticaNeue-Bold" font-size="16" fill="#130101">hilus</tspan>
    </text>
    <text transform="matrix(1, 0, 0, 1, 485.538, 710.667)">
      <tspan x="-19.848" y="-6" font-family="HelveticaNeue-Bold" font-size="16" fill="#130101">From </tspan>
      <tspan x="-17.912" y="13" font-family="HelveticaNeue-Bold" font-size="16" fill="#130101">hilus</tspan>
    </text>
    <g>
      <path d="M415.623,184.167 C415.623,184.167 427.704,193.919 431.8,206.515" fill-opacity="0" stroke="#000000" stroke-width="1"/>
      <path d="M428.833,206.959 L432.983,214.427 L434.767,206.072 z" fill="#000000" fill-opacity="1" stroke="#000000" stroke-width="1" stroke-opacity="1"/>
    </g>
    <g>
      <path d="M378.123,192.167 C378.123,192.167 371.995,196.362 369.801,206.417" fill-opacity="0" stroke="#000000" stroke-width="1"/>
      <path d="M366.811,206.17 L369.142,214.39 L372.791,206.664 z" fill="#000000" fill-opacity="1" stroke="#000000" stroke-width="1" stroke-opacity="1"/>
    </g>
    <text transform="matrix(0.528, 0.849, -0.849, 0.528, 625.682, 173.064)">
      <tspan x="-30.24" y="7" font-family="HelveticaNeue-Bold" font-size="24" fill="#130101">PALS</tspan>
    </text>
  </g>
</svg>
