<?xml version="1.0" standalone="no"?>
<?xml-stylesheet type="text/css" href="../css/svg.css" ?> 
<svg viewBox="0 0 1024 768" preserveAspectRatio="xMinYMin meet" version="1.1" xmlns="http://www.w3.org/2000/svg" xmlns:xlink="http://www.w3.org/1999/xlink">
	<title>Thymus - Cross Section</title>
	<desc>A cross section of thymus stained by H&amp;E</desc>
	<image xlink:href="images/thymus.jpg" width="100%" height="100%" />
	<defs>
		<marker id="markerCircle" markerWidth="16" markerHeight="16" refX="10" refY="10" markerUnits="userSpaceOnUse">
        	<circle cx="10" cy="10" r="6" />
    	</marker>
		<marker id="markerArrow" markerWidth="13" markerHeight="13" refX="2" refY="6" markerUnits="userSpaceOnUse"
           orient="auto">
		   <path d="M2,2 L2,11 L10,6 L2,2" style="fill: #000000;" />
    	</marker>
	</defs>
	<!-- Capsule Label -->
	<path class="marker-line" d="M835,184 L785,184" />
	<text class="marker-text-right" x="837" y="184">Capsule</text>
	<!-- Cortex Label -->
	<path class="marker-line" d="M755,154 L705,154"  />
	<text class="marker-text-right" x="757" y="154">Cortex</text>
	<!-- Medulla Label -->
	<path class="marker-line" d="M629,188 L679,188" />
	<text class="marker-text-left" x="627" y="188">Medulla</text>
	<!-- Septa Label -->
	<path class="marker-line" d="M826,244 L776,244" />
	<text class="marker-text-right" x="828" y="244">Septa</text>
	<!-- Lobule Label -->
	<path class="polygon" d="M546,234
												L492,391
												Q492,397 505,402
												L600,407
												Q613,400 613,393
												L614,366
												Q614,357 610,348
												L576,244
												Q561,214 546,234
												" />
	<path class="marker-line" d="M418,319 L518,319" />
	<text class="marker-text-left" x="415" y="319">Lobule</text>
</svg>