<?xml version="1.0" encoding="UTF-8"?>
<!DOCTYPE svg PUBLIC "-//W3C//DTD SVG 1.1//EN" "http://www.w3.org/Graphics/SVG/1.1/DTD/svg11.dtd">
<svg version="1.1" xmlns="http://www.w3.org/2000/svg" xmlns:xlink="http://www.w3.org/1999/xlink" x="0" y="0" width="1024" height="768" viewBox="0, 0, 1024, 768">
  <g id="Image">
    <g>
      <path d="M179.3,333.5 L266.5,333.5" fill-opacity="0" stroke="#000000" stroke-width="2"/>
      <path d="M179.3,329.9 L169.7,333.5 L179.3,337.1 z" fill="#000000" fill-opacity="1" stroke="#000000" stroke-width="2" stroke-opacity="1"/>
    </g>
    <g>
      <path d="M743.7,213.5 L1002.3,213.5" fill-opacity="0" stroke="#000000" stroke-width="2"/>
      <path d="M743.7,213.5 L736.5,213.5 M736.5,207.5 L736.5,219.5" fill-opacity="0" stroke="#000000" stroke-width="2" stroke-opacity="1"/>
      <path d="M1002.3,213.5 L1009.5,213.5 M1009.5,219.5 L1009.5,207.5" fill-opacity="0" stroke="#000000" stroke-width="2" stroke-opacity="1"/>
    </g>
    <g>
      <path d="M813.81,191 L942.686,191 C948.38,191 952.996,196.373 952.996,203 L952.996,224 C952.996,230.627 948.38,236 942.686,236 L813.81,236 C808.116,236 803.5,230.627 803.5,224 L803.5,203 C803.5,196.373 808.116,191 813.81,191 z" fill="#FFFFFF"/>
      <path d="M813.81,191 L942.686,191 C948.38,191 952.996,196.373 952.996,203 L952.996,224 C952.996,230.627 948.38,236 942.686,236 L813.81,236 C808.116,236 803.5,230.627 803.5,224 L803.5,203 C803.5,196.373 808.116,191 813.81,191 z" fill-opacity="0" stroke="#000000" stroke-width="2" stroke-miterlimit="2"/>
    </g>
    <text transform="matrix(1, 0, 0, 1, 877.748, 213)">
      <tspan x="-55.996" y="8.5" font-family="HelveticaNeue" font-size="24" fill="#000000">Epidermis</tspan>
    </text>
    <g>
      <path d="M398.7,191 L727.3,191" fill-opacity="0" stroke="#000000" stroke-width="2"/>
      <path d="M398.7,191 L391.5,191 M391.5,185 L391.5,197" fill-opacity="0" stroke="#000000" stroke-width="2" stroke-opacity="1"/>
      <path d="M727.3,191 L734.5,191 M734.5,197 L734.5,185" fill-opacity="0" stroke="#000000" stroke-width="2" stroke-opacity="1"/>
    </g>
    <g>
      <path d="M508.907,168.5 L617.093,168.5 C621.873,168.5 625.748,173.873 625.748,180.5 L625.748,201.5 C625.748,208.127 621.873,213.5 617.093,213.5 L508.907,213.5 C504.127,213.5 500.252,208.127 500.252,201.5 L500.252,180.5 C500.252,173.873 504.127,168.5 508.907,168.5 z" fill="#FFFFFF"/>
      <path d="M508.907,168.5 L617.093,168.5 C621.873,168.5 625.748,173.873 625.748,180.5 L625.748,201.5 C625.748,208.127 621.873,213.5 617.093,213.5 L508.907,213.5 C504.127,213.5 500.252,208.127 500.252,201.5 L500.252,180.5 C500.252,173.873 504.127,168.5 508.907,168.5 z" fill-opacity="0" stroke="#000000" stroke-width="2" stroke-miterlimit="2"/>
    </g>
    <text transform="matrix(1, 0, 0, 1, 562.5, 190.5)">
      <tspan x="-39.996" y="8" font-family="HelveticaNeue" font-size="24" fill="#000000">Dermis</tspan>
    </text>
    <g>
      <path d="M0.5,213.5 L382.3,213.5" fill-opacity="0" stroke="#000000" stroke-width="2"/>
      <path d="M382.3,213.5 L389.5,213.5 M389.5,219.5 L389.5,207.5" fill-opacity="0" stroke="#000000" stroke-width="2" stroke-opacity="1"/>
    </g>
    <g>
      <path d="M68.004,191 L230.5,191 C237.68,191 243.5,196.373 243.5,203 L243.5,224 C243.5,230.627 237.68,236 230.5,236 L68.004,236 C60.824,236 55.004,230.627 55.004,224 L55.004,203 C55.004,196.373 60.824,191 68.004,191 z" fill="#FFFFFF"/>
      <path d="M68.004,191 L230.5,191 C237.68,191 243.5,196.373 243.5,203 L243.5,224 C243.5,230.627 237.68,236 230.5,236 L68.004,236 C60.824,236 55.004,230.627 55.004,224 L55.004,203 C55.004,196.373 60.824,191 68.004,191 z" fill-opacity="0" stroke="#000000" stroke-width="2" stroke-miterlimit="2"/>
    </g>
    <text transform="matrix(1, 0, 0, 1, 148.752, 213)">
      <tspan x="-68.788" y="8.5" font-family="HelveticaNeue" font-size="24" fill="#000000">Hypodermis</tspan>
    </text>
    <g>
      <path d="M279.638,311 L443.858,311 C451.114,311 456.996,316.373 456.996,323 L456.996,344 C456.996,350.627 451.114,356 443.858,356 L279.638,356 C272.382,356 266.5,350.627 266.5,344 L266.5,323 C266.5,316.373 272.382,311 279.638,311 z" fill="#FFFFFF"/>
      <path d="M279.638,311 L443.858,311 C451.114,311 456.996,316.373 456.996,323 L456.996,344 C456.996,350.627 451.114,356 443.858,356 L279.638,356 C272.382,356 266.5,350.627 266.5,344 L266.5,323 C266.5,316.373 272.382,311 279.638,311 z" fill-opacity="0" stroke="#000000" stroke-width="2" stroke-miterlimit="2"/>
    </g>
    <text transform="matrix(1, 0, 0, 1, 361.248, 333)">
      <tspan x="-82.212" y="8" font-family="HelveticaNeue" font-size="24" fill="#000000">Adipose Tissue</tspan>
    </text>
    <g>
      <path d="M730.7,444.5 L659.5,444.5" fill-opacity="0" stroke="#000000" stroke-width="2"/>
      <path d="M730.7,448.1 L740.3,444.5 L730.7,440.9 z" fill="#000000" fill-opacity="1" stroke="#000000" stroke-width="2" stroke-opacity="1"/>
    </g>
    <g>
      <path d="M511.217,422 L648.283,422 C654.339,422 659.248,427.373 659.248,434 L659.248,455 C659.248,461.627 654.339,467 648.283,467 L511.217,467 C505.161,467 500.252,461.627 500.252,455 L500.252,434 C500.252,427.373 505.161,422 511.217,422 z" fill="#FFFFFF"/>
      <path d="M511.217,422 L648.283,422 C654.339,422 659.248,427.373 659.248,434 L659.248,455 C659.248,461.627 654.339,467 648.283,467 L511.217,467 C505.161,467 500.252,461.627 500.252,455 L500.252,434 C500.252,427.373 505.161,422 511.217,422 z" fill-opacity="0" stroke="#000000" stroke-width="2" stroke-miterlimit="2"/>
    </g>
    <text transform="matrix(1, 0, 0, 1, 580, 444)">
      <tspan x="-62.508" y="8.5" font-family="HelveticaNeue" font-size="24" fill="#000000">Rete Ridge</tspan>
    </text>
  </g>
</svg>
