<?xml version="1.0" encoding="UTF-8"?>
<!DOCTYPE svg PUBLIC "-//W3C//DTD SVG 1.1//EN" "http://www.w3.org/Graphics/SVG/1.1/DTD/svg11.dtd">
<svg version="1.1" xmlns="http://www.w3.org/2000/svg" xmlns:xlink="http://www.w3.org/1999/xlink" x="0" y="0" width="1900" height="1200" viewBox="0, 0, 1900, 1200">
  <defs>
    <linearGradient id="Gradient_1" gradientUnits="userSpaceOnUse" x1="-1667.988" y1="-1686.499" x2="-1576.748" y2="-1772.121" gradientTransform="matrix(-1, -1.461, 0, 1, 0, 0)">
      <stop offset="0" stop-color="#625A8C"/>
      <stop offset="0.107" stop-color="#832678"/>
      <stop offset="1" stop-color="#E00909"/>
    </linearGradient>
    <linearGradient id="Gradient_2" gradientUnits="userSpaceOnUse" x1="-1693.543" y1="336.11" x2="-1693.543" y2="205.143" gradientTransform="matrix(-1, -0.264, 0, 1, 0, 0)">
      <stop offset="0" stop-color="#4B37BB"/>
      <stop offset="1" stop-color="#F21814"/>
    </linearGradient>
    <linearGradient id="Gradient_3" gradientUnits="userSpaceOnUse" x1="-1632.062" y1="211.228" x2="-1632.062" y2="83.861" gradientTransform="matrix(-1, -0.264, 0, 1, 0, 0)">
      <stop offset="0" stop-color="#EA504D"/>
      <stop offset="1" stop-color="#F21814"/>
    </linearGradient>
    <linearGradient id="Gradient_4" gradientUnits="userSpaceOnUse" x1="340.51" y1="1329.062" x2="500.51" y2="1178.78" gradientTransform="matrix(1, -1.461, 0, 1, 0, 0)">
      <stop offset="0" stop-color="#4B37BB"/>
      <stop offset="1" stop-color="#E00909"/>
    </linearGradient>
    <linearGradient id="Gradient_5" gradientUnits="userSpaceOnUse" x1="295.696" y1="965.504" x2="295.696" y2="737.445" gradientTransform="matrix(1, -0.264, 0, 1, 0, 0)">
      <stop offset="0" stop-color="#4B37BB"/>
      <stop offset="1" stop-color="#F21814"/>
    </linearGradient>
    <linearGradient id="Gradient_6" gradientUnits="userSpaceOnUse" x1="403.51" y1="748.09" x2="403.51" y2="526.71" gradientTransform="matrix(1, -0.264, 0, 1, 0, 0)">
      <stop offset="0" stop-color="#EA504D"/>
      <stop offset="1" stop-color="#F21814"/>
    </linearGradient>
    <linearGradient id="Gradient_7" gradientUnits="userSpaceOnUse" x1="-1120.458" y1="856.5" x2="-1120.458" y2="487" gradientTransform="matrix(-1, -0, -0, 1, 0, 0)">
      <stop offset="0" stop-color="#4236C5"/>
      <stop offset="1" stop-color="#CA3427"/>
    </linearGradient>
    <linearGradient id="Gradient_8" gradientUnits="userSpaceOnUse" x1="-856.5" y1="-867.458" x2="-443.5" y2="-867.458" gradientTransform="matrix(0, -1, -1, -0, 0, 0)">
      <stop offset="0" stop-color="#4A35BB"/>
      <stop offset="1" stop-color="#C6342C"/>
    </linearGradient>
    <linearGradient id="Gradient_9" gradientUnits="userSpaceOnUse" x1="943.958" y1="665.5" x2="1033.958" y2="665.5">
      <stop offset="0" stop-color="#8B8686"/>
      <stop offset="0.599" stop-color="#AEA8A8"/>
      <stop offset="1" stop-color="#8D8484"/>
    </linearGradient>
    <linearGradient id="Gradient_10" gradientUnits="userSpaceOnUse" x1="956.958" y1="578" x2="1018.958" y2="578">
      <stop offset="0" stop-color="#8B8686"/>
      <stop offset="0.599" stop-color="#AEA8A8"/>
      <stop offset="1" stop-color="#8D8484"/>
    </linearGradient>
    <linearGradient id="Gradient_11" gradientUnits="userSpaceOnUse" x1="990.958" y1="655" x2="990.958" y2="655">
      <stop offset="0" stop-color="#8B8686"/>
      <stop offset="0.599" stop-color="#AEA8A8"/>
      <stop offset="1" stop-color="#8D8484"/>
    </linearGradient>
    <linearGradient id="Gradient_12" gradientUnits="userSpaceOnUse" x1="1080.958" y1="665.5" x2="1170.958" y2="665.5">
      <stop offset="0" stop-color="#8B8686"/>
      <stop offset="0.599" stop-color="#AEA8A8"/>
      <stop offset="1" stop-color="#8D8484"/>
    </linearGradient>
    <linearGradient id="Gradient_13" gradientUnits="userSpaceOnUse" x1="1093.958" y1="578" x2="1155.958" y2="578">
      <stop offset="0" stop-color="#8B8686"/>
      <stop offset="0.599" stop-color="#AEA8A8"/>
      <stop offset="1" stop-color="#8D8484"/>
    </linearGradient>
    <linearGradient id="Gradient_14" gradientUnits="userSpaceOnUse" x1="1127.958" y1="655" x2="1127.958" y2="655">
      <stop offset="0" stop-color="#8B8686"/>
      <stop offset="0.599" stop-color="#AEA8A8"/>
      <stop offset="1" stop-color="#8D8484"/>
    </linearGradient>
    <linearGradient id="Gradient_15" gradientUnits="userSpaceOnUse" x1="1222.958" y1="665.5" x2="1312.958" y2="665.5">
      <stop offset="0" stop-color="#8B8686"/>
      <stop offset="0.599" stop-color="#AEA8A8"/>
      <stop offset="1" stop-color="#8D8484"/>
    </linearGradient>
    <linearGradient id="Gradient_16" gradientUnits="userSpaceOnUse" x1="1235.958" y1="578" x2="1297.958" y2="578">
      <stop offset="0" stop-color="#8B8686"/>
      <stop offset="0.599" stop-color="#AEA8A8"/>
      <stop offset="1" stop-color="#8D8484"/>
    </linearGradient>
    <linearGradient id="Gradient_17" gradientUnits="userSpaceOnUse" x1="1269.958" y1="655" x2="1269.958" y2="655">
      <stop offset="0" stop-color="#8B8686"/>
      <stop offset="0.599" stop-color="#AEA8A8"/>
      <stop offset="1" stop-color="#8D8484"/>
    </linearGradient>
  </defs>
  <g id="Layer_1">
    <g>
      <g>
        <g>
          <g>
            <path d="M1701.062,653.858 L1578.1,500.141 L1585.177,635.335 L1701.062,778.74 L1701.062,653.858 z" fill="#F21814"/>
            <path d="M1701.062,653.858 L1578.1,500.141 L1585.177,635.335 L1701.062,778.74 L1701.062,653.858 z" fill-opacity="0" stroke="#000000" stroke-width="2"/>
          </g>
          <g>
            <path d="M1686.024,655.977 L1563.062,502.26 L1570.139,637.453 L1686.024,780.859 L1686.024,655.977 z" fill="url(#Gradient_1)"/>
            <path d="M1686.024,655.977 L1563.062,502.26 L1570.139,637.453 L1686.024,780.859 L1686.024,655.977 z" fill-opacity="0" stroke="#000000" stroke-width="2"/>
          </g>
          <g>
            <path d="M1701.062,653.858 L1686.024,655.977 L1686.024,780.859 L1701.062,778.74 L1701.062,653.858 z" fill="url(#Gradient_2)"/>
            <path d="M1701.062,653.858 L1686.024,655.977 L1686.024,780.859 L1701.062,778.74 L1701.062,653.858 z" fill-opacity="0" stroke="#000000" stroke-width="2"/>
          </g>
          <g>
            <path d="M1578.1,500.141 L1563.062,502.26 L1686.024,655.977 L1701.062,653.858 L1578.1,500.141 z" fill="url(#Gradient_3)"/>
            <path d="M1578.1,500.141 L1563.062,502.26 L1686.024,655.977 L1701.062,653.858 L1578.1,500.141 z" fill-opacity="0" stroke="#000000" stroke-width="2"/>
          </g>
        </g>
        <path d="M1674.26,664.625 L1575.037,537.109" fill-opacity="0" stroke="#857D7D" stroke-width="2"/>
        <path d="M1674.26,678.41 L1575.037,550.894" fill-opacity="0" stroke="#857D7D" stroke-width="2"/>
        <path d="M1674.26,695.642 L1575.037,568.126" fill-opacity="0" stroke="#857D7D" stroke-width="2"/>
        <path d="M1674.26,711.725 L1575.037,584.209" fill-opacity="0" stroke="#857D7D" stroke-width="2"/>
        <path d="M1674.26,727.808 L1575.037,600.292" fill-opacity="0" stroke="#857D7D" stroke-width="2"/>
        <path d="M1674.26,747.338 L1575.037,619.822" fill-opacity="0" stroke="#857D7D" stroke-width="2"/>
      </g>
      <path d="M1624.5,718.5 L1546.5,958.5" fill-opacity="0" stroke="#000000" stroke-width="2"/>
      <g>
        <g>
          <path d="M1568.129,513 C1563.84,510 1335.991,503.167 1334.74,502.667 C1333.131,503.167 1331.702,517.167 1334.74,521.167 C1338.314,521.667 1564.912,530 1568.129,530 C1571.346,530 1572.418,516 1568.129,513 z" fill="#C5342D"/>
          <path d="M1568.129,513 C1563.84,510 1335.991,503.167 1334.74,502.667 C1333.131,503.167 1331.702,517.167 1334.74,521.167 C1338.314,521.667 1564.912,530 1568.129,530 C1571.346,530 1572.418,516 1568.129,513 z" fill-opacity="0" stroke="#000000" stroke-width="1"/>
        </g>
        <g>
          <g>
            <g>
              <path d="M282.51,662.923 L498.138,395.308 L485.728,630.674 L282.51,880.338 L282.51,662.923 z" fill="#F21814"/>
              <path d="M282.51,662.923 L498.138,395.308 L485.728,630.674 L282.51,880.338 L282.51,662.923 z" fill-opacity="0" stroke="#000000" stroke-width="2"/>
            </g>
            <g>
              <path d="M308.882,666.611 L524.51,398.996 L512.1,634.362 L308.882,884.025 L308.882,666.611 z" fill="url(#Gradient_4)"/>
              <path d="M308.882,666.611 L524.51,398.996 L512.1,634.362 L308.882,884.025 L308.882,666.611 z" fill-opacity="0" stroke="#000000" stroke-width="2"/>
            </g>
            <g>
              <path d="M282.51,662.923 L308.882,666.611 L308.882,884.025 L282.51,880.338 L282.51,662.923 z" fill="url(#Gradient_5)"/>
              <path d="M282.51,662.923 L308.882,666.611 L308.882,884.025 L282.51,880.338 L282.51,662.923 z" fill-opacity="0" stroke="#000000" stroke-width="2"/>
            </g>
            <g>
              <path d="M498.138,395.308 L524.51,398.996 L308.882,666.611 L282.51,662.923 L498.138,395.308 z" fill="url(#Gradient_6)"/>
              <path d="M498.138,395.308 L524.51,398.996 L308.882,666.611 L282.51,662.923 L498.138,395.308 z" fill-opacity="0" stroke="#000000" stroke-width="2"/>
            </g>
          </g>
          <path d="M329.51,681.667 L503.51,459.667" fill-opacity="0" stroke="#857D7D" stroke-width="2"/>
          <path d="M329.51,705.667 L503.51,483.667" fill-opacity="0" stroke="#857D7D" stroke-width="2"/>
          <path d="M329.51,735.667 L503.51,513.667" fill-opacity="0" stroke="#857D7D" stroke-width="2"/>
          <path d="M329.51,763.667 L503.51,541.667" fill-opacity="0" stroke="#857D7D" stroke-width="2"/>
          <path d="M329.51,791.667 L503.51,569.667" fill-opacity="0" stroke="#857D7D" stroke-width="2"/>
          <path d="M329.51,825.667 L503.51,603.667" fill-opacity="0" stroke="#857D7D" stroke-width="2"/>
        </g>
        <g>
          <g>
            <path d="M1346.958,487 L895.958,497 L893.958,856.5 L1326.958,841.5 L1346.958,487 z" fill="url(#Gradient_7)"/>
            <path d="M1346.958,487 L895.958,497 L893.958,856.5 L1326.958,841.5 L1346.958,487 z" fill-opacity="0" stroke="#857D7D" stroke-width="2"/>
          </g>
          <g>
            <path d="M1288.958,433.5 L838.958,443.5 L895.958,497 L1346.958,487 L1288.958,433.5 z" fill="#C5342D"/>
            <path d="M1288.958,433.5 L838.958,443.5 L895.958,497 L1346.958,487 L1288.958,433.5 z" fill-opacity="0" stroke="#857D7D" stroke-width="2"/>
          </g>
          <g>
            <path d="M893.958,856.5 L895.958,497 L838.958,443.5 L838.958,807.5 L893.958,856.5 z" fill="url(#Gradient_8)"/>
            <path d="M893.958,856.5 L895.958,497 L838.958,443.5 L838.958,807.5 L893.958,856.5 z" fill-opacity="0" stroke="#857D7D" stroke-width="2"/>
          </g>
        </g>
        <g>
          <g>
            <path d="M943.958,534 L943.958,678 L976.958,692 L976.958,797 L1000.958,795 L1003.958,691 L1032.958,681 L1033.958,534 L943.958,534 z" fill="url(#Gradient_9)"/>
            <path d="M943.958,534 L943.958,678 L976.958,692 L976.958,797 L1000.958,795 L1003.958,691 L1032.958,681 L1033.958,534 L943.958,534 z" fill-opacity="0" stroke="#857D7D" stroke-width="2"/>
          </g>
          <g>
            <path d="M948.958,568 L1027.958,568 L1027.958,608 L948.958,608 L948.958,568 z" fill="#D6CBCB"/>
            <path d="M948.958,568 L1027.958,568 L1027.958,608 L948.958,608 L948.958,568 z" fill-opacity="0" stroke="#857D7D" stroke-width="2"/>
          </g>
          <g>
            <path d="M956.958,578 L1018.958,578" fill="url(#Gradient_10)"/>
            <path d="M956.958,578 L1018.958,578" fill-opacity="0" stroke="#857D7D" stroke-width="2"/>
          </g>
          <g>
            <path d="M990.958,608 L990.958,702" fill="url(#Gradient_11)"/>
            <path d="M990.958,608 L990.958,702" fill-opacity="0" stroke="#474343" stroke-width="2"/>
          </g>
        </g>
        <g>
          <g>
            <path d="M1080.958,534 L1080.958,678 L1113.958,692 L1113.958,797 L1137.958,795 L1140.958,691 L1169.958,681 L1170.958,534 L1080.958,534 z" fill="url(#Gradient_12)"/>
            <path d="M1080.958,534 L1080.958,678 L1113.958,692 L1113.958,797 L1137.958,795 L1140.958,691 L1169.958,681 L1170.958,534 L1080.958,534 z" fill-opacity="0" stroke="#857D7D" stroke-width="2"/>
          </g>
          <g>
            <path d="M1085.958,568 L1164.958,568 L1164.958,608 L1085.958,608 L1085.958,568 z" fill="#D6CBCB"/>
            <path d="M1085.958,568 L1164.958,568 L1164.958,608 L1085.958,608 L1085.958,568 z" fill-opacity="0" stroke="#857D7D" stroke-width="2"/>
          </g>
          <g>
            <path d="M1093.958,578 L1155.958,578" fill="url(#Gradient_13)"/>
            <path d="M1093.958,578 L1155.958,578" fill-opacity="0" stroke="#857D7D" stroke-width="2"/>
          </g>
          <g>
            <path d="M1127.958,608 L1127.958,702" fill="url(#Gradient_14)"/>
            <path d="M1127.958,608 L1127.958,702" fill-opacity="0" stroke="#474343" stroke-width="2"/>
          </g>
        </g>
        <g>
          <g>
            <path d="M1222.958,534 L1222.958,678 L1255.958,692 L1255.958,797 L1279.958,795 L1282.958,691 L1311.958,681 L1312.958,534 L1222.958,534 z" fill="url(#Gradient_15)"/>
            <path d="M1222.958,534 L1222.958,678 L1255.958,692 L1255.958,797 L1279.958,795 L1282.958,691 L1311.958,681 L1312.958,534 L1222.958,534 z" fill-opacity="0" stroke="#857D7D" stroke-width="2"/>
          </g>
          <g>
            <path d="M1227.958,568 L1306.958,568 L1306.958,608 L1227.958,608 L1227.958,568 z" fill="#D6CBCB"/>
            <path d="M1227.958,568 L1306.958,568 L1306.958,608 L1227.958,608 L1227.958,568 z" fill-opacity="0" stroke="#857D7D" stroke-width="2"/>
          </g>
          <g>
            <path d="M1235.958,578 L1297.958,578" fill="url(#Gradient_16)"/>
            <path d="M1235.958,578 L1297.958,578" fill-opacity="0" stroke="#857D7D" stroke-width="2"/>
          </g>
          <g>
            <path d="M1269.958,608 L1269.958,702" fill="url(#Gradient_17)"/>
            <path d="M1269.958,608 L1269.958,702" fill-opacity="0" stroke="#474343" stroke-width="2"/>
          </g>
        </g>
        <g>
          <g>
            <path d="M885.958,778.853 L794.515,780.508 L794.109,840 L881.903,837.518 L885.958,778.853 z" fill="#545050"/>
            <path d="M885.958,778.853 L794.515,780.508 L794.109,840 L881.903,837.518 L885.958,778.853 z" fill-opacity="0" stroke="#857D7D" stroke-width="2"/>
          </g>
          <g>
            <path d="M874.198,770 L782.958,771.655 L794.515,780.508 L885.958,778.853 L874.198,770 z" fill="#545050"/>
            <path d="M874.198,770 L782.958,771.655 L794.515,780.508 L885.958,778.853 L874.198,770 z" fill-opacity="0" stroke="#857D7D" stroke-width="2"/>
          </g>
          <g>
            <path d="M794.109,840 L794.515,780.508 L782.958,771.655 L782.958,831.891 L794.109,840 z" fill="#545050"/>
            <path d="M794.109,840 L794.515,780.508 L782.958,771.655 L782.958,831.891 L794.109,840 z" fill-opacity="0" stroke="#857D7D" stroke-width="2"/>
          </g>
        </g>
        <g>
          <path d="M325.664,835 C334.186,832 786.917,806.5 789.403,806 C792.599,806.5 795.439,820.5 789.403,824.5 C782.301,825 332.055,856 325.664,856 C319.272,856 317.142,838 325.664,835 z" fill="#4E37B8"/>
          <path d="M325.664,835 C334.186,832 786.917,806.5 789.403,806 C792.599,806.5 795.439,820.5 789.403,824.5 C782.301,825 332.055,856 325.664,856 C319.272,856 317.142,838 325.664,835 z" fill-opacity="0" stroke="#000000" stroke-width="1"/>
        </g>
        <text transform="matrix(1, 0, 0, 1, 289.734, 257.5)">
          <tspan x="-251.276" y="-26.5" font-family="HelveticaNeue-Bold" font-size="54" fill="#444242">Radiator</tspan>
          <tspan x="-251.276" y="18.5" font-family="HelveticaNeue-Bold" font-size="32" fill="#444242">Dissipates heat from hot coolant </tspan>
          <tspan x="-251.276" y="57.5" font-family="HelveticaNeue-Bold" font-size="32" fill="#444242">to surrounding air.</tspan>
        </text>
        <path d="M305.043,334.5 L410.958,492" fill-opacity="0" stroke="#000000" stroke-width="2"/>
        <text transform="matrix(1, 0, 0, 1, 1180.734, 121.5)">
          <tspan x="-205.276" y="-42" font-family="HelveticaNeue-Bold" font-size="54" fill="#444242">Engine Block</tspan>
          <tspan x="-205.276" y="3" font-family="HelveticaNeue-Bold" font-size="32" fill="#444242">Site of combustion to </tspan>
          <tspan x="-205.276" y="42" font-family="HelveticaNeue-Bold" font-size="32" fill="#444242">generate power to propel </tspan>
          <tspan x="-205.276" y="81" font-family="HelveticaNeue-Bold" font-size="32" fill="#444242">the car. Must be cooled.</tspan>
        </text>
        <path d="M1150.5,214.5 L1195.958,417.882" fill-opacity="0" stroke="#000000" stroke-width="2"/>
        <text transform="matrix(1, 0, 0, 1, 703.182, 1008.5)">
          <tspan x="-235.276" y="-22" font-family="HelveticaNeue-Bold" font-size="54" fill="#444242">Water Pump</tspan>
          <tspan x="-235.276" y="23" font-family="HelveticaNeue-Bold" font-size="32" fill="#444242">Pushes coolant from radiator </tspan>
          <tspan x="-235.276" y="62" font-family="HelveticaNeue-Bold" font-size="32" fill="#444242">into engine block.</tspan>
        </text>
        <path d="M787.958,856 L709.958,934" fill-opacity="0" stroke="#000000" stroke-width="2"/>
        <text transform="matrix(1, 0, 0, 1, 726.182, 117.5)">
          <tspan x="-211.276" y="-39" font-family="HelveticaNeue-Bold" font-size="54" fill="#444141">Thermostat</tspan>
          <tspan x="-211.276" y="6" font-family="HelveticaNeue-Bold" font-size="32" fill="#444242">Controls direction of flow </tspan>
          <tspan x="-211.276" y="45" font-family="HelveticaNeue-Bold" font-size="32" fill="#444242">of coolant based on </tspan>
          <tspan x="-211.276" y="84" font-family="HelveticaNeue-Bold" font-size="32" fill="#444242">coolant temp.</tspan>
        </text>
        <path d="M714.5,212.5 L811.958,387" fill-opacity="0" stroke="#000000" stroke-width="2"/>
        <g>
          <g>
            <path d="M850.958,404.161 L795.027,405.816 L794.112,465.308 L848.478,462.826 L850.958,404.161 z" fill="#545050"/>
            <path d="M850.958,404.161 L795.027,405.816 L794.112,465.308 L848.478,462.826 L850.958,404.161 z" fill-opacity="0" stroke="#857D7D" stroke-width="2"/>
          </g>
          <g>
            <path d="M843.765,395.308 L787.958,396.963 L795.027,405.816 L850.958,404.161 L843.765,395.308 z" fill="#545050"/>
            <path d="M843.765,395.308 L787.958,396.963 L795.027,405.816 L850.958,404.161 L843.765,395.308 z" fill-opacity="0" stroke="#857D7D" stroke-width="2"/>
          </g>
          <g>
            <path d="M793.445,464.308 L795.027,405.816 L787.958,396.963 L787.958,457.199 L793.445,464.308 z" fill="#545050"/>
            <path d="M793.445,464.308 L795.027,405.816 L787.958,396.963 L787.958,457.199 L793.445,464.308 z" fill-opacity="0" stroke="#857D7D" stroke-width="2"/>
          </g>
        </g>
        <g>
          <path d="M510.343,427.639 C515.497,424.806 789.299,418.354 790.802,417.882 C792.735,418.354 794.453,431.573 790.802,435.35 C786.507,435.822 514.208,447.468 510.343,447.468 C506.477,447.468 505.189,430.472 510.343,427.639 z" fill="#C5342D"/>
          <path d="M510.343,427.639 C515.497,424.806 789.299,418.354 790.802,417.882 C792.735,418.354 794.453,431.573 790.802,435.35 C786.507,435.822 514.208,447.468 510.343,447.468 C506.477,447.468 505.189,430.472 510.343,427.639 z" fill-opacity="0" stroke="#000000" stroke-width="1"/>
        </g>
        <g>
          <path d="M880.625,454.667 C883.208,457.75 897.708,459 899.958,454.141 C900.958,452 900.815,424.178 900.458,419.808 C900.208,416.75 881.458,418.25 881.458,418.25 L850.958,418.25 L850.958,433.5 C850.958,433.5 873.208,433.5 879.291,433.308 C880.458,437.25 879.708,451.75 880.625,454.667 z" fill="#C5342D"/>
          <path d="M880.625,454.667 C883.208,457.75 897.708,459 899.958,454.141 C900.958,452 900.815,424.178 900.458,419.808 C900.208,416.75 881.458,418.25 881.458,418.25 L850.958,418.25 L850.958,433.5 C850.958,433.5 873.208,433.5 879.291,433.308 C880.458,437.25 879.708,451.75 880.625,454.667 z" fill-opacity="0" stroke="#000000" stroke-width="1"/>
        </g>
        <g>
          <path d="M811.958,465.308 C811.958,465.308 810.958,767.333 811.958,772.667 C816.291,776.667 826.958,777.333 829.958,772.667 C829.625,768.333 829.958,464.308 829.958,464.308" fill="#C5342D"/>
          <path d="M811.958,465.308 C811.958,465.308 810.958,767.333 811.958,772.667 C816.291,776.667 826.958,777.333 829.958,772.667 C829.625,768.333 829.958,464.308 829.958,464.308" fill-opacity="0" stroke="#000000" stroke-width="1"/>
        </g>
        <text transform="matrix(1, 0, 0, 1, 1560.734, 1050.704)">
          <tspan x="-180.276" y="-39" font-family="HelveticaNeue-Bold" font-size="54" fill="#444242">Heater Core</tspan>
          <tspan x="-180.276" y="6" font-family="HelveticaNeue-Bold" font-size="32" fill="#444242">Small radiator, provides </tspan>
          <tspan x="-180.276" y="45" font-family="HelveticaNeue-Bold" font-size="32" fill="#444242">heat for passenger </tspan>
          <tspan x="-180.276" y="84" font-family="HelveticaNeue-Bold" font-size="32" fill="#444242">cabin.</tspan>
        </text>
        <g>
          <path d="M704.551,429.575 L754.958,428" fill-opacity="0" stroke="#000000" stroke-width="3"/>
          <path d="M704.42,425.377 L693.357,429.925 L704.682,433.773 z" fill="#000000" fill-opacity="1" stroke="#000000" stroke-width="3" stroke-opacity="1"/>
        </g>
        <g>
          <path d="M533.551,435.075 L583.958,433.5" fill-opacity="0" stroke="#000000" stroke-width="3"/>
          <path d="M533.42,430.877 L522.357,435.425 L533.682,439.273 z" fill="#000000" fill-opacity="1" stroke="#000000" stroke-width="3" stroke-opacity="1"/>
        </g>
        <g>
          <path d="M421.951,839.05 L370.958,843" fill-opacity="0" stroke="#000000" stroke-width="3"/>
          <path d="M422.275,843.238 L433.117,838.185 L421.626,834.863 z" fill="#000000" fill-opacity="1" stroke="#000000" stroke-width="3" stroke-opacity="1"/>
        </g>
        <g>
          <path d="M734.398,817.05 L683.406,821" fill-opacity="0" stroke="#000000" stroke-width="3"/>
          <path d="M734.723,821.238 L745.565,816.185 L734.074,812.863 z" fill="#000000" fill-opacity="1" stroke="#000000" stroke-width="3" stroke-opacity="1"/>
        </g>
        <g>
          <path d="M820.545,511.404 L821.236,481" fill-opacity="0" stroke="#000000" stroke-width="3"/>
          <path d="M816.346,511.308 L820.29,522.601 L824.744,511.499 z" fill="#000000" fill-opacity="1" stroke="#000000" stroke-width="3" stroke-opacity="1"/>
        </g>
        <g>
          <path d="M820.267,747.404 L820.958,717" fill-opacity="0" stroke="#000000" stroke-width="3"/>
          <path d="M816.068,747.308 L820.012,758.601 L824.466,747.499 z" fill="#000000" fill-opacity="1" stroke="#000000" stroke-width="3" stroke-opacity="1"/>
        </g>
        <g>
          <path d="M900.726,816 C900.726,816 937.937,811.146 945.423,774.519" fill-opacity="0" stroke="#000000" stroke-width="3"/>
          <path d="M949.604,774.921 L946.498,763.37 L941.243,774.116 z" fill="#000000" fill-opacity="1" stroke="#000000" stroke-width="3" stroke-opacity="1"/>
        </g>
        <g>
          <path d="M912.958,828 C912.958,828 1035.033,820.626 1058.191,782.89" fill-opacity="0" stroke="#000000" stroke-width="3"/>
          <path d="M1062.222,784.068 L1061.333,772.139 L1054.159,781.711 z" fill="#000000" fill-opacity="1" stroke="#000000" stroke-width="3" stroke-opacity="1"/>
        </g>
        <g>
          <path d="M912.958,838 C912.958,838 1107.854,836 1144.406,828 C1170.606,822.266 1188.816,787.759 1197.029,768.673" fill-opacity="0" stroke="#000000" stroke-width="3"/>
          <path d="M1200.943,770.196 L1201.089,758.235 L1193.114,767.151 z" fill="#000000" fill-opacity="1" stroke="#000000" stroke-width="3" stroke-opacity="1"/>
        </g>
        <g>
          <path d="M923.958,559 C923.958,559 906.519,521.211 895.206,478.508" fill-opacity="0" stroke="#000000" stroke-width="3"/>
          <path d="M899.285,477.504 L892.53,467.632 L891.128,479.512 z" fill="#000000" fill-opacity="1" stroke="#000000" stroke-width="3" stroke-opacity="1"/>
        </g>
        <g>
          <path d="M1061.958,542 C1061.958,542 1061.958,510 997.184,502.667 C949.896,497.313 929.107,488.292 919.993,481.085" fill-opacity="0" stroke="#030303" stroke-width="3"/>
          <path d="M923.539,478.835 L913.992,471.629 L916.447,483.336 z" fill="#030303" fill-opacity="1" stroke="#030303" stroke-width="3" stroke-opacity="1"/>
        </g>
        <g>
          <path d="M1195.958,536.308 C1195.958,536.308 1195.958,504.308 1084.676,496.975 C997.266,491.214 962.557,481.209 948.831,473.785" fill-opacity="0" stroke="#030303" stroke-width="3"/>
          <path d="M951.9,470.917 L941.184,465.601 L945.762,476.652 z" fill="#030303" fill-opacity="1" stroke="#030303" stroke-width="3" stroke-opacity="1"/>
        </g>
        <g>
          <path d="M1479.376,517.302 L1428.406,514.66" fill-opacity="0" stroke="#000000" stroke-width="3"/>
          <path d="M1479.159,521.497 L1490.561,517.882 L1479.594,513.108 z" fill="#000000" fill-opacity="1" stroke="#000000" stroke-width="3" stroke-opacity="1"/>
        </g>
        <g>
          <path d="M1676.291,758.667 C1667.791,763.667 1373.958,846 1373.958,846 C1373.958,846 1345.458,853.5 1313.958,860 C1282.958,861 897.791,874.333 878.291,871.333 C864.291,859.833 859.291,830.333 855.958,820 C852.525,809.36 837.625,811.667 833.958,820 C830.711,827.38 848.958,875.667 863.958,885.463 C878.744,895.12 1293.526,878.668 1313.958,877 C1338.458,875 1388.458,859 1388.458,859 C1388.458,859 1676.291,775.667 1682.291,772.667 C1689.118,769.253 1683.24,754.579 1676.291,758.667 z" fill="#4E37B8"/>
          <path d="M1676.291,758.667 C1667.791,763.667 1373.958,846 1373.958,846 C1373.958,846 1345.458,853.5 1313.958,860 C1282.958,861 897.791,874.333 878.291,871.333 C864.291,859.833 859.291,830.333 855.958,820 C852.525,809.36 837.625,811.667 833.958,820 C830.711,827.38 848.958,875.667 863.958,885.463 C878.744,895.12 1293.526,878.668 1313.958,877 C1338.458,875 1388.458,859 1388.458,859 C1388.458,859 1676.291,775.667 1682.291,772.667 C1689.118,769.253 1683.24,754.579 1676.291,758.667 z" fill-opacity="0" stroke="#000000" stroke-width="2"/>
        </g>
        <g>
          <g>
            <path d="M1407.958,486.007 L1352.027,487.662 L1351.112,547.154 L1405.478,544.672 L1407.958,486.007 z" fill="#545050"/>
            <path d="M1407.958,486.007 L1352.027,487.662 L1351.112,547.154 L1405.478,544.672 L1407.958,486.007 z" fill-opacity="0" stroke="#857D7D" stroke-width="2"/>
          </g>
          <g>
            <path d="M1400.765,477.154 L1344.958,478.809 L1352.027,487.662 L1407.958,486.007 L1400.765,477.154 z" fill="#545050"/>
            <path d="M1400.765,477.154 L1344.958,478.809 L1352.027,487.662 L1407.958,486.007 L1400.765,477.154 z" fill-opacity="0" stroke="#857D7D" stroke-width="2"/>
          </g>
          <g>
            <path d="M1350.446,546.154 L1352.027,487.662 L1344.958,478.809 L1344.958,539.045 L1350.446,546.154 z" fill="#545050"/>
            <path d="M1350.446,546.154 L1352.027,487.662 L1344.958,478.809 L1344.958,539.045 L1350.446,546.154 z" fill-opacity="0" stroke="#857D7D" stroke-width="2"/>
          </g>
        </g>
        <g>
          <path d="M1352.958,859.5 C1352.958,859.5 1327.819,871.258 1288.496,869.216" fill-opacity="0" stroke="#000000" stroke-width="3"/>
          <path d="M1288.872,865.033 L1277.341,868.214 L1288.12,873.4 z" fill="#000000" fill-opacity="1" stroke="#000000" stroke-width="3" stroke-opacity="1"/>
        </g>
        <g>
          <path d="M923.958,880 C893.183,883.517 887.149,887.407 865.067,868.593" fill-opacity="0" stroke="#000000" stroke-width="3"/>
          <path d="M867.876,865.471 L856.74,861.103 L862.258,871.716 z" fill="#000000" fill-opacity="1" stroke="#000000" stroke-width="3" stroke-opacity="1"/>
        </g>
      </g>
      <g>
        <text transform="matrix(0, -1, 1, 0, 82.766, 640)">
          <tspan x="-206.064" y="18.5" font-family="HelveticaNeue-Bold" font-size="72" fill="#000000">Front of Car</tspan>
        </text>
        <path d="M49.858,841.096 L101.266,841.096 L101.266,829.792 L80.026,829.792 L80.026,808.264 L71.242,808.264 L71.242,829.792 L59.362,829.792 L59.362,804.952 L49.858,804.952 z M64.042,799.48 L101.266,799.48 L101.266,789.256 L84.49,789.256 Q81.97,789.256 79.81,788.752 Q77.65,788.248 76.03,787.06 Q74.41,785.872 73.474,783.928 Q72.538,781.984 72.538,779.176 Q72.538,778.24 72.646,777.232 Q72.754,776.224 72.898,775.504 L63.394,775.504 Q63.034,776.728 63.034,777.736 Q63.034,779.68 63.61,781.48 Q64.186,783.28 65.23,784.864 Q66.274,786.448 67.75,787.672 Q69.226,788.896 70.954,789.616 L70.954,789.76 L64.042,789.76 z M82.69,763.696 Q80.458,763.696 78.298,763.264 Q76.138,762.832 74.482,761.788 Q72.826,760.744 71.782,759.016 Q70.738,757.288 70.738,754.696 Q70.738,752.104 71.782,750.34 Q72.826,748.576 74.482,747.532 Q76.138,746.488 78.298,746.056 Q80.458,745.624 82.69,745.624 Q84.922,745.624 87.046,746.056 Q89.17,746.488 90.862,747.532 Q92.554,748.576 93.562,750.34 Q94.57,752.104 94.57,754.696 Q94.57,757.288 93.562,759.016 Q92.554,760.744 90.862,761.788 Q89.17,762.832 87.046,763.264 Q84.922,763.696 82.69,763.696 z M82.69,773.92 Q87.154,773.92 90.754,772.552 Q94.354,771.184 96.91,768.664 Q99.466,766.144 100.834,762.616 Q102.202,759.088 102.202,754.696 Q102.202,750.304 100.834,746.74 Q99.466,743.176 96.91,740.656 Q94.354,738.136 90.754,736.768 Q87.154,735.4 82.69,735.4 Q78.226,735.4 74.59,736.768 Q70.954,738.136 68.398,740.656 Q65.842,743.176 64.438,746.74 Q63.034,750.304 63.034,754.696 Q63.034,759.088 64.438,762.616 Q65.842,766.144 68.398,768.664 Q70.954,771.184 74.59,772.552 Q78.226,773.92 82.69,773.92 z M64.042,728.776 L101.266,728.776 L101.266,718.552 L81.754,718.552 Q76.066,718.552 73.582,716.68 Q71.098,714.808 71.098,710.632 Q71.098,706.96 73.366,705.52 Q75.634,704.08 80.242,704.08 L101.266,704.08 L101.266,693.856 L78.37,693.856 Q74.914,693.856 72.07,694.468 Q69.226,695.08 67.246,696.592 Q65.266,698.104 64.15,700.732 Q63.034,703.36 63.034,707.464 Q63.034,710.704 64.51,713.8 Q65.986,716.896 69.226,718.84 L69.226,719.056 L64.042,719.056 z M64.042,673.12 L52.882,673.12 L52.882,683.344 L64.042,683.344 L64.042,689.536 L70.882,689.536 L70.882,683.344 L92.842,683.344 Q95.65,683.344 97.378,682.408 Q99.106,681.472 100.042,679.852 Q100.978,678.232 101.302,676.108 Q101.626,673.984 101.626,671.608 Q101.626,670.096 101.554,668.512 Q101.482,666.928 101.266,665.632 L93.346,665.632 Q93.49,666.352 93.562,667.144 Q93.634,667.936 93.634,668.8 Q93.634,671.392 92.77,672.256 Q91.906,673.12 89.314,673.12 L70.882,673.12 L70.882,665.632 L64.042,665.632 z M82.69,631.648 Q80.458,631.648 78.298,631.216 Q76.138,630.784 74.482,629.74 Q72.826,628.696 71.782,626.968 Q70.738,625.24 70.738,622.648 Q70.738,620.056 71.782,618.292 Q72.826,616.528 74.482,615.484 Q76.138,614.44 78.298,614.008 Q80.458,613.576 82.69,613.576 Q84.922,613.576 87.046,614.008 Q89.17,614.44 90.862,615.484 Q92.554,616.528 93.562,618.292 Q94.57,620.056 94.57,622.648 Q94.57,625.24 93.562,626.968 Q92.554,628.696 90.862,629.74 Q89.17,630.784 87.046,631.216 Q84.922,631.648 82.69,631.648 z M82.69,641.872 Q87.154,641.872 90.754,640.504 Q94.354,639.136 96.91,636.616 Q99.466,634.096 100.834,630.568 Q102.202,627.04 102.202,622.648 Q102.202,618.256 100.834,614.692 Q99.466,611.128 96.91,608.608 Q94.354,606.088 90.754,604.72 Q87.154,603.352 82.69,603.352 Q78.226,603.352 74.59,604.72 Q70.954,606.088 68.398,608.608 Q65.842,611.128 64.438,614.692 Q63.034,618.256 63.034,622.648 Q63.034,627.04 64.438,630.568 Q65.842,634.096 68.398,636.616 Q70.954,639.136 74.59,640.504 Q78.226,641.872 82.69,641.872 z M70.882,594.496 L101.266,594.496 L101.266,584.272 L70.882,584.272 L70.882,577.216 L64.042,577.216 L64.042,584.272 L61.81,584.272 Q59.506,584.272 58.534,583.372 Q57.562,582.472 57.562,580.384 Q57.562,578.44 57.778,576.64 L50.146,576.64 Q50.074,577.936 49.966,579.304 Q49.858,580.672 49.858,582.04 Q49.858,588.304 53.026,591.4 Q56.194,594.496 61.162,594.496 L64.042,594.496 L64.042,600.616 L70.882,600.616 z M67.138,517.384 L67.138,506.44 Q62.674,506.944 59.218,508.888 Q55.762,510.832 53.422,513.82 Q51.082,516.808 49.858,520.588 Q48.634,524.368 48.634,528.616 Q48.634,534.52 50.722,539.236 Q52.81,543.952 56.482,547.192 Q60.154,550.432 65.086,552.16 Q70.018,553.888 75.778,553.888 Q81.394,553.888 86.254,552.16 Q91.114,550.432 94.714,547.192 Q98.314,543.952 100.366,539.236 Q102.418,534.52 102.418,528.616 Q102.418,523.864 100.978,519.904 Q99.538,515.944 96.802,512.992 Q94.066,510.04 90.178,508.24 Q86.29,506.44 81.466,506.008 L81.466,516.952 Q86.65,517.6 89.818,520.516 Q92.986,523.432 92.986,528.616 Q92.986,532.432 91.51,535.096 Q90.034,537.76 87.586,539.416 Q85.138,541.072 82.078,541.828 Q79.018,542.584 75.778,542.584 Q72.394,542.584 69.226,541.828 Q66.058,541.072 63.574,539.416 Q61.09,537.76 59.614,535.096 Q58.138,532.432 58.138,528.616 Q58.138,526.528 58.822,524.62 Q59.506,522.712 60.73,521.2 Q61.954,519.688 63.574,518.68 Q65.194,517.672 67.138,517.384 z M75.49,499.816 Q71.89,499.6 69.514,498.016 Q67.138,496.432 65.698,493.984 Q64.258,491.536 63.646,488.476 Q63.034,485.416 63.034,482.32 Q63.034,479.512 63.43,476.632 Q63.826,473.752 64.978,471.376 Q66.13,469 68.182,467.488 Q70.234,465.976 73.618,465.976 L92.986,465.976 Q95.506,465.976 97.81,465.688 Q100.114,465.4 101.266,464.68 L101.266,475.048 Q100.402,475.336 99.502,475.516 Q98.602,475.696 97.666,475.768 Q100.186,478.216 101.194,481.528 Q102.202,484.84 102.202,488.296 Q102.202,490.96 101.554,493.264 Q100.906,495.568 99.538,497.296 Q98.17,499.024 96.082,499.996 Q93.994,500.968 91.114,500.968 Q87.946,500.968 85.894,499.852 Q83.842,498.736 82.618,496.972 Q81.394,495.208 80.782,492.94 Q80.17,490.672 79.81,488.368 Q79.45,486.064 79.234,483.832 Q79.018,481.6 78.586,479.872 Q78.154,478.144 77.326,477.136 Q76.498,476.128 74.914,476.2 Q73.258,476.2 72.286,476.74 Q71.314,477.28 70.774,478.18 Q70.234,479.08 70.054,480.268 Q69.874,481.456 69.874,482.824 Q69.874,485.848 71.17,487.576 Q72.466,489.304 75.49,489.592 z M83.05,476.2 Q83.626,476.848 83.95,477.82 Q84.274,478.792 84.49,479.908 Q84.706,481.024 84.85,482.248 Q84.994,483.472 85.21,484.696 Q85.426,485.848 85.786,486.964 Q86.146,488.08 86.758,488.908 Q87.37,489.736 88.306,490.24 Q89.242,490.744 90.682,490.744 Q92.05,490.744 92.986,490.24 Q93.922,489.736 94.462,488.872 Q95.002,488.008 95.218,486.856 Q95.434,485.704 95.434,484.48 Q95.434,481.456 94.426,479.8 Q93.418,478.144 92.014,477.352 Q90.61,476.56 89.17,476.38 Q87.73,476.2 86.866,476.2 z M64.042,458.056 L101.266,458.056 L101.266,447.832 L84.49,447.832 Q81.97,447.832 79.81,447.328 Q77.65,446.824 76.03,445.636 Q74.41,444.448 73.474,442.504 Q72.538,440.56 72.538,437.752 Q72.538,436.816 72.646,435.808 Q72.754,434.8 72.898,434.08 L63.394,434.08 Q63.034,435.304 63.034,436.312 Q63.034,438.256 63.61,440.056 Q64.186,441.856 65.23,443.44 Q66.274,445.024 67.75,446.248 Q69.226,447.472 70.954,448.192 L70.954,448.336 L64.042,448.336 z" fill-opacity="0" stroke="#444242" stroke-width="1"/>
      </g>
      <g>
        <path d="M1619.446,783.192 L1669.2,768.937" fill-opacity="0" stroke="#000000" stroke-width="3"/>
        <path d="M1618.289,779.154 L1608.679,786.276 L1620.603,787.229 z" fill="#000000" fill-opacity="1" stroke="#000000" stroke-width="3" stroke-opacity="1"/>
      </g>
      <g>
        <text transform="matrix(0, 1, -1, 0, 1821.234, 600)">
          <tspan x="-291.996" y="22.5" font-family="HelveticaNeue-Bold" font-size="72" fill="#000000">Passenger Cabin</tspan>
        </text>
        <path d="M1825.95,324.276 L1841.358,324.276 L1841.358,333.06 Q1841.358,335.004 1841.07,336.804 Q1840.782,338.604 1839.954,339.972 Q1839.126,341.34 1837.614,342.168 Q1836.102,342.996 1833.654,342.996 Q1831.206,342.996 1829.694,342.168 Q1828.182,341.34 1827.354,339.972 Q1826.526,338.604 1826.238,336.804 Q1825.95,335.004 1825.95,333.06 z M1850.142,312.972 L1798.734,312.972 L1798.734,324.276 L1817.166,324.276 L1817.166,336.156 Q1817.166,340.98 1818.57,344.364 Q1819.974,347.748 1822.278,349.872 Q1824.582,351.996 1827.57,352.968 Q1830.558,353.94 1833.654,353.94 Q1836.822,353.94 1839.774,352.968 Q1842.726,351.996 1845.03,349.872 Q1847.334,347.748 1848.738,344.364 Q1850.142,340.98 1850.142,336.156 z M1824.51,359.484 Q1828.11,359.7 1830.486,361.284 Q1832.862,362.868 1834.302,365.316 Q1835.742,367.764 1836.354,370.824 Q1836.966,373.884 1836.966,376.98 Q1836.966,379.788 1836.57,382.668 Q1836.174,385.548 1835.022,387.924 Q1833.87,390.3 1831.818,391.812 Q1829.766,393.324 1826.382,393.324 L1807.014,393.324 Q1804.494,393.324 1802.19,393.612 Q1799.886,393.9 1798.734,394.62 L1798.734,384.252 Q1799.598,383.964 1800.498,383.784 Q1801.398,383.604 1802.334,383.532 Q1799.814,381.084 1798.806,377.772 Q1797.798,374.46 1797.798,371.004 Q1797.798,368.34 1798.446,366.036 Q1799.094,363.732 1800.462,362.004 Q1801.83,360.276 1803.918,359.304 Q1806.006,358.332 1808.886,358.332 Q1812.054,358.332 1814.106,359.448 Q1816.158,360.564 1817.382,362.328 Q1818.606,364.092 1819.218,366.36 Q1819.83,368.628 1820.19,370.932 Q1820.55,373.236 1820.766,375.468 Q1820.982,377.7 1821.414,379.428 Q1821.846,381.156 1822.674,382.164 Q1823.502,383.172 1825.086,383.1 Q1826.742,383.1 1827.714,382.56 Q1828.686,382.02 1829.226,381.12 Q1829.766,380.22 1829.946,379.032 Q1830.126,377.844 1830.126,376.476 Q1830.126,373.452 1828.83,371.724 Q1827.534,369.996 1824.51,369.708 z M1816.95,383.1 Q1816.374,382.452 1816.05,381.48 Q1815.726,380.508 1815.51,379.392 Q1815.294,378.276 1815.15,377.052 Q1815.006,375.828 1814.79,374.604 Q1814.574,373.452 1814.214,372.336 Q1813.854,371.22 1813.242,370.392 Q1812.63,369.564 1811.694,369.06 Q1810.758,368.556 1809.318,368.556 Q1807.95,368.556 1807.014,369.06 Q1806.078,369.564 1805.538,370.428 Q1804.998,371.292 1804.782,372.444 Q1804.566,373.596 1804.566,374.82 Q1804.566,377.844 1805.574,379.5 Q1806.582,381.156 1807.986,381.948 Q1809.39,382.74 1810.83,382.92 Q1812.27,383.1 1813.134,383.1 z M1810.83,409.164 L1810.83,399.444 Q1807.086,399.588 1804.602,401.136 Q1802.118,402.684 1800.606,405.096 Q1799.094,407.508 1798.446,410.604 Q1797.798,413.7 1797.798,416.94 Q1797.798,420.108 1798.41,423.168 Q1799.022,426.228 1800.534,428.604 Q1802.046,430.98 1804.53,432.456 Q1807.014,433.932 1810.686,433.932 Q1813.278,433.932 1815.042,432.924 Q1816.806,431.916 1817.994,430.26 Q1819.182,428.604 1819.902,426.48 Q1820.622,424.356 1821.126,422.124 Q1821.63,419.964 1822.062,417.876 Q1822.494,415.788 1823.034,414.168 Q1823.574,412.548 1824.438,411.54 Q1825.302,410.532 1826.67,410.532 Q1827.822,410.532 1828.506,411.108 Q1829.19,411.684 1829.55,412.512 Q1829.91,413.34 1830.018,414.348 Q1830.126,415.356 1830.126,416.22 Q1830.126,418.956 1829.082,420.972 Q1828.038,422.988 1825.086,423.204 L1825.086,432.924 Q1828.542,432.636 1830.81,431.16 Q1833.078,429.684 1834.446,427.452 Q1835.814,425.22 1836.39,422.376 Q1836.966,419.532 1836.966,416.508 Q1836.966,413.484 1836.426,410.604 Q1835.886,407.724 1834.554,405.42 Q1833.222,403.116 1830.918,401.712 Q1828.614,400.308 1825.014,400.308 Q1822.566,400.308 1820.874,401.316 Q1819.182,402.324 1818.066,403.98 Q1816.95,405.636 1816.266,407.76 Q1815.582,409.884 1815.078,412.116 Q1813.926,417.588 1812.774,420.648 Q1811.622,423.708 1809.318,423.708 Q1807.95,423.708 1807.05,423.06 Q1806.15,422.412 1805.61,421.44 Q1805.07,420.468 1804.818,419.28 Q1804.566,418.092 1804.566,417.012 Q1804.566,415.5 1804.926,414.096 Q1805.286,412.692 1806.042,411.612 Q1806.798,410.532 1807.986,409.848 Q1809.174,409.164 1810.83,409.164 z M1810.83,447.828 L1810.83,438.108 Q1807.086,438.252 1804.602,439.8 Q1802.118,441.348 1800.606,443.76 Q1799.094,446.172 1798.446,449.268 Q1797.798,452.364 1797.798,455.604 Q1797.798,458.772 1798.41,461.832 Q1799.022,464.892 1800.534,467.268 Q1802.046,469.644 1804.53,471.12 Q1807.014,472.596 1810.686,472.596 Q1813.278,472.596 1815.042,471.588 Q1816.806,470.58 1817.994,468.924 Q1819.182,467.268 1819.902,465.144 Q1820.622,463.02 1821.126,460.788 Q1821.63,458.628 1822.062,456.54 Q1822.494,454.452 1823.034,452.832 Q1823.574,451.212 1824.438,450.204 Q1825.302,449.196 1826.67,449.196 Q1827.822,449.196 1828.506,449.772 Q1829.19,450.348 1829.55,451.176 Q1829.91,452.004 1830.018,453.012 Q1830.126,454.02 1830.126,454.884 Q1830.126,457.62 1829.082,459.636 Q1828.038,461.652 1825.086,461.868 L1825.086,471.588 Q1828.542,471.3 1830.81,469.824 Q1833.078,468.348 1834.446,466.116 Q1835.814,463.884 1836.39,461.04 Q1836.966,458.196 1836.966,455.172 Q1836.966,452.148 1836.426,449.268 Q1835.886,446.388 1834.554,444.084 Q1833.222,441.78 1830.918,440.376 Q1828.614,438.972 1825.014,438.972 Q1822.566,438.972 1820.874,439.98 Q1819.182,440.988 1818.066,442.644 Q1816.95,444.3 1816.266,446.424 Q1815.582,448.548 1815.078,450.78 Q1813.926,456.252 1812.774,459.312 Q1811.622,462.372 1809.318,462.372 Q1807.95,462.372 1807.05,461.724 Q1806.15,461.076 1805.61,460.104 Q1805.07,459.132 1804.818,457.944 Q1804.566,456.756 1804.566,455.676 Q1804.566,454.164 1804.926,452.76 Q1805.286,451.356 1806.042,450.276 Q1806.798,449.196 1807.986,448.512 Q1809.174,447.828 1810.83,447.828 z M1821.342,503.628 L1821.342,486.996 Q1822.422,487.068 1823.79,487.464 Q1825.158,487.86 1826.382,488.832 Q1827.606,489.804 1828.434,491.424 Q1829.262,493.044 1829.262,495.492 Q1829.262,499.236 1827.246,501.072 Q1825.23,502.908 1821.342,503.628 z M1814.862,486.996 L1814.862,513.852 Q1819.182,514.14 1823.142,513.132 Q1827.102,512.124 1830.198,509.856 Q1833.294,507.588 1835.13,504.06 Q1836.966,500.532 1836.966,495.78 Q1836.966,491.532 1835.454,488.04 Q1833.942,484.548 1831.314,482.028 Q1828.686,479.508 1825.086,478.14 Q1821.486,476.772 1817.31,476.772 Q1812.99,476.772 1809.39,478.104 Q1805.79,479.436 1803.198,481.884 Q1800.606,484.332 1799.202,487.86 Q1797.798,491.388 1797.798,495.78 Q1797.798,502.116 1800.678,506.58 Q1803.558,511.044 1810.254,513.204 L1810.254,504.204 Q1808.526,503.7 1806.978,501.468 Q1805.43,499.236 1805.43,496.14 Q1805.43,491.82 1807.662,489.516 Q1809.894,487.212 1814.862,486.996 z M1835.958,519.9 L1798.734,519.9 L1798.734,530.124 L1818.246,530.124 Q1823.934,530.124 1826.418,531.996 Q1828.902,533.868 1828.902,538.044 Q1828.902,541.716 1826.634,543.156 Q1824.366,544.596 1819.758,544.596 L1798.734,544.596 L1798.734,554.82 L1821.63,554.82 Q1825.086,554.82 1827.93,554.208 Q1830.774,553.596 1832.754,552.084 Q1834.734,550.572 1835.85,547.944 Q1836.966,545.316 1836.966,541.212 Q1836.966,537.972 1835.49,534.876 Q1834.014,531.78 1830.774,529.836 L1830.774,529.62 L1835.958,529.62 z M1807.518,579.948 Q1807.518,577.572 1808.526,575.988 Q1809.534,574.404 1811.118,573.432 Q1812.702,572.46 1814.682,572.064 Q1816.662,571.668 1818.678,571.668 Q1820.766,571.668 1822.674,572.136 Q1824.582,572.604 1826.058,573.648 Q1827.534,574.692 1828.398,576.24 Q1829.262,577.788 1829.262,579.948 Q1829.262,582.468 1828.326,584.124 Q1827.39,585.78 1825.806,586.788 Q1824.222,587.796 1822.17,588.228 Q1820.118,588.66 1817.814,588.66 Q1815.798,588.66 1813.962,588.12 Q1812.126,587.58 1810.686,586.5 Q1809.246,585.42 1808.382,583.764 Q1807.518,582.108 1807.518,579.948 z M1801.11,598.38 L1835.958,598.38 L1835.958,588.66 L1830.99,588.66 L1830.99,588.516 Q1834.23,586.644 1835.598,583.872 Q1836.966,581.1 1836.966,577.428 Q1836.966,573.54 1835.454,570.552 Q1833.942,567.564 1831.386,565.548 Q1828.83,563.532 1825.482,562.488 Q1822.134,561.444 1818.534,561.444 Q1814.718,561.444 1811.298,562.344 Q1807.878,563.244 1805.322,565.188 Q1802.766,567.132 1801.29,570.156 Q1799.814,573.18 1799.814,577.356 Q1799.814,580.74 1801.218,583.8 Q1802.622,586.86 1805.574,588.516 L1805.574,588.66 L1800.678,588.66 Q1796.718,588.732 1794.126,586.752 Q1791.534,584.772 1791.534,580.452 Q1791.534,577.716 1792.65,575.628 Q1793.766,573.54 1796.646,572.82 L1796.646,562.668 Q1793.478,562.884 1791.21,564.432 Q1788.942,565.98 1787.502,568.32 Q1786.062,570.66 1785.378,573.504 Q1784.694,576.348 1784.694,579.084 Q1784.694,585.492 1786.422,589.308 Q1788.15,593.124 1790.634,595.14 Q1793.118,597.156 1795.998,597.768 Q1798.878,598.38 1801.11,598.38 z M1821.342,631.644 L1821.342,615.012 Q1822.422,615.084 1823.79,615.48 Q1825.158,615.876 1826.382,616.848 Q1827.606,617.82 1828.434,619.44 Q1829.262,621.06 1829.262,623.508 Q1829.262,627.252 1827.246,629.088 Q1825.23,630.924 1821.342,631.644 z M1814.862,615.012 L1814.862,641.868 Q1819.182,642.156 1823.142,641.148 Q1827.102,640.14 1830.198,637.872 Q1833.294,635.604 1835.13,632.076 Q1836.966,628.548 1836.966,623.796 Q1836.966,619.548 1835.454,616.056 Q1833.942,612.564 1831.314,610.044 Q1828.686,607.524 1825.086,606.156 Q1821.486,604.788 1817.31,604.788 Q1812.99,604.788 1809.39,606.12 Q1805.79,607.452 1803.198,609.9 Q1800.606,612.348 1799.202,615.876 Q1797.798,619.404 1797.798,623.796 Q1797.798,630.132 1800.678,634.596 Q1803.558,639.06 1810.254,641.22 L1810.254,632.22 Q1808.526,631.716 1806.978,629.484 Q1805.43,627.252 1805.43,624.156 Q1805.43,619.836 1807.662,617.532 Q1809.894,615.228 1814.862,615.012 z M1835.958,647.916 L1798.734,647.916 L1798.734,658.14 L1815.51,658.14 Q1818.03,658.14 1820.19,658.644 Q1822.35,659.148 1823.97,660.336 Q1825.59,661.524 1826.526,663.468 Q1827.462,665.412 1827.462,668.22 Q1827.462,669.156 1827.354,670.164 Q1827.246,671.172 1827.102,671.892 L1836.606,671.892 Q1836.966,670.668 1836.966,669.66 Q1836.966,667.716 1836.39,665.916 Q1835.814,664.116 1834.77,662.532 Q1833.726,660.948 1832.25,659.724 Q1830.774,658.5 1829.046,657.78 L1829.046,657.636 L1835.958,657.636 z M1832.862,731.292 L1832.862,742.236 Q1837.326,741.732 1840.782,739.788 Q1844.238,737.844 1846.578,734.856 Q1848.918,731.868 1850.142,728.088 Q1851.366,724.308 1851.366,720.06 Q1851.366,714.156 1849.278,709.44 Q1847.19,704.724 1843.518,701.484 Q1839.846,698.244 1834.914,696.516 Q1829.982,694.788 1824.222,694.788 Q1818.606,694.788 1813.746,696.516 Q1808.886,698.244 1805.286,701.484 Q1801.686,704.724 1799.634,709.44 Q1797.582,714.156 1797.582,720.06 Q1797.582,724.812 1799.022,728.772 Q1800.462,732.732 1803.198,735.684 Q1805.934,738.636 1809.822,740.436 Q1813.71,742.236 1818.534,742.668 L1818.534,731.724 Q1813.35,731.076 1810.182,728.16 Q1807.014,725.244 1807.014,720.06 Q1807.014,716.244 1808.49,713.58 Q1809.966,710.916 1812.414,709.26 Q1814.862,707.604 1817.922,706.848 Q1820.982,706.092 1824.222,706.092 Q1827.606,706.092 1830.774,706.848 Q1833.942,707.604 1836.426,709.26 Q1838.91,710.916 1840.386,713.58 Q1841.862,716.244 1841.862,720.06 Q1841.862,722.148 1841.178,724.056 Q1840.494,725.964 1839.27,727.476 Q1838.046,728.988 1836.426,729.996 Q1834.806,731.004 1832.862,731.292 z M1824.51,748.86 Q1828.11,749.076 1830.486,750.66 Q1832.862,752.244 1834.302,754.692 Q1835.742,757.14 1836.354,760.2 Q1836.966,763.26 1836.966,766.356 Q1836.966,769.164 1836.57,772.044 Q1836.174,774.924 1835.022,777.3 Q1833.87,779.676 1831.818,781.188 Q1829.766,782.7 1826.382,782.7 L1807.014,782.7 Q1804.494,782.7 1802.19,782.988 Q1799.886,783.276 1798.734,783.996 L1798.734,773.628 Q1799.598,773.34 1800.498,773.16 Q1801.398,772.98 1802.334,772.908 Q1799.814,770.46 1798.806,767.148 Q1797.798,763.836 1797.798,760.38 Q1797.798,757.716 1798.446,755.412 Q1799.094,753.108 1800.462,751.38 Q1801.83,749.652 1803.918,748.68 Q1806.006,747.708 1808.886,747.708 Q1812.054,747.708 1814.106,748.824 Q1816.158,749.94 1817.382,751.704 Q1818.606,753.468 1819.218,755.736 Q1819.83,758.004 1820.19,760.308 Q1820.55,762.612 1820.766,764.844 Q1820.982,767.076 1821.414,768.804 Q1821.846,770.532 1822.674,771.54 Q1823.502,772.548 1825.086,772.476 Q1826.742,772.476 1827.714,771.936 Q1828.686,771.396 1829.226,770.496 Q1829.766,769.596 1829.946,768.408 Q1830.126,767.22 1830.126,765.852 Q1830.126,762.828 1828.83,761.1 Q1827.534,759.372 1824.51,759.084 z M1816.95,772.476 Q1816.374,771.828 1816.05,770.856 Q1815.726,769.884 1815.51,768.768 Q1815.294,767.652 1815.15,766.428 Q1815.006,765.204 1814.79,763.98 Q1814.574,762.828 1814.214,761.712 Q1813.854,760.596 1813.242,759.768 Q1812.63,758.94 1811.694,758.436 Q1810.758,757.932 1809.318,757.932 Q1807.95,757.932 1807.014,758.436 Q1806.078,758.94 1805.538,759.804 Q1804.998,760.668 1804.782,761.82 Q1804.566,762.972 1804.566,764.196 Q1804.566,767.22 1805.574,768.876 Q1806.582,770.532 1807.986,771.324 Q1809.39,772.116 1810.83,772.296 Q1812.27,772.476 1813.134,772.476 z M1817.31,817.908 Q1815.006,817.908 1812.846,817.404 Q1810.686,816.9 1809.03,815.82 Q1807.374,814.74 1806.402,813.12 Q1805.43,811.5 1805.43,809.196 Q1805.43,806.964 1806.402,805.308 Q1807.374,803.652 1809.03,802.572 Q1810.686,801.492 1812.846,800.988 Q1815.006,800.484 1817.31,800.484 Q1819.686,800.484 1821.846,800.988 Q1824.006,801.492 1825.662,802.572 Q1827.318,803.652 1828.29,805.308 Q1829.262,806.964 1829.262,809.196 Q1829.262,811.5 1828.29,813.12 Q1827.318,814.74 1825.662,815.82 Q1824.006,816.9 1821.846,817.404 Q1819.686,817.908 1817.31,817.908 z M1850.142,790.62 L1798.734,790.62 L1798.734,800.34 L1803.486,800.34 L1803.486,800.484 Q1800.39,802.14 1799.094,805.38 Q1797.798,808.62 1797.798,812.724 Q1797.798,815.532 1798.95,818.268 Q1800.102,821.004 1802.478,823.2 Q1804.854,825.396 1808.562,826.764 Q1812.27,828.132 1817.382,828.132 Q1822.494,828.132 1826.202,826.764 Q1829.91,825.396 1832.286,823.2 Q1834.662,821.004 1835.814,818.268 Q1836.966,815.532 1836.966,812.724 Q1836.966,809.268 1835.634,806.064 Q1834.302,802.86 1831.422,800.988 L1831.422,800.844 L1850.142,800.844 z M1841.718,845.124 L1850.142,845.124 L1850.142,834.9 L1841.718,834.9 z M1835.958,834.9 L1798.734,834.9 L1798.734,845.124 L1835.958,845.124 z M1835.958,853.188 L1798.734,853.188 L1798.734,863.412 L1818.246,863.412 Q1823.934,863.412 1826.418,865.284 Q1828.902,867.156 1828.902,871.332 Q1828.902,875.004 1826.634,876.444 Q1824.366,877.884 1819.758,877.884 L1798.734,877.884 L1798.734,888.108 L1821.63,888.108 Q1825.086,888.108 1827.93,887.496 Q1830.774,886.884 1832.754,885.372 Q1834.734,883.86 1835.85,881.232 Q1836.966,878.604 1836.966,874.5 Q1836.966,871.26 1835.49,868.164 Q1834.014,865.068 1830.774,863.124 L1830.774,862.908 L1835.958,862.908 z" fill-opacity="0" stroke="#444242" stroke-width="1"/>
      </g>
    </g>
    <text transform="matrix(1, 0, 0, 1, 1620.724, 180)">
      <tspan x="-205.276" y="-42" font-family="HelveticaNeue-Bold" font-size="54" fill="#444242">Valve</tspan>
      <tspan x="-205.276" y="3" font-family="HelveticaNeue-Bold" font-size="32" fill="#444242">Opens when passengers </tspan>
      <tspan x="-205.276" y="42" font-family="HelveticaNeue-Bold" font-size="32" fill="#444242">want heat. Allows coolant </tspan>
      <tspan x="-205.276" y="81" font-family="HelveticaNeue-Bold" font-size="32" fill="#444242">to enter heater core.</tspan>
    </text>
    <path d="M1562.5,280.5 L1405.5,471.5" fill-opacity="0" stroke="#000000" stroke-width="2"/>
  </g>
</svg>
